<svg width="60" height="60" viewBox="0 0 60 60" fill="none" xmlns="http://www.w3.org/2000/svg">
<g clip-path="url(#clip0_18_1751)">
<path d="M58.7064 37.9302V30.1639C58.7064 27.6084 57.7827 25.4659 56.0352 23.9677C54.6838 22.8091 52.9142 22.1127 50.9903 21.9681V13.8742C50.9903 11.0347 50.0998 8.63578 48.4151 6.93656C46.9022 5.41066 44.8676 4.57031 42.6861 4.57031C40.5048 4.57031 38.4702 5.41066 36.9572 6.93656C35.2725 8.63578 34.382 11.0347 34.382 13.8742V34.3992V47.7469C34.382 51.8398 31.9172 53.6719 29.4747 53.6719C27.0199 53.6719 24.3781 51.8177 24.3781 47.7469V32.1417C28.2267 31.7034 31.2272 28.4262 31.2272 24.4593C31.2272 23.0423 30.8427 21.7144 30.1753 20.5711C32.0558 16.8402 31.4029 12.2603 28.5068 9.26191C26.9242 7.61824 24.7384 6.82406 22.3547 7.0248C20.1757 7.20844 18.0033 8.18602 16.2386 9.7766C16.0935 9.90715 15.971 10.0218 15.867 10.1201C15.7623 10.0213 15.6397 9.90691 15.495 9.77754C13.7311 8.18613 11.5595 7.20855 9.38028 7.0248C6.99575 6.82359 4.80997 7.61824 3.22641 9.26121C-0.408626 13.0275 -0.408743 19.1586 3.22618 22.9283C3.23063 22.933 3.23509 22.9376 3.23966 22.942L5.22927 24.9168C5.40071 25.0869 5.62454 25.1719 5.84837 25.1719C6.07442 25.1719 6.30036 25.0852 6.47216 24.9121C6.81411 24.5675 6.812 24.011 6.46747 23.6692L4.48477 21.7014C1.50551 18.6041 1.50751 13.5732 4.49145 10.4815C7.25884 7.61051 11.6194 8.64832 14.3203 11.0851C14.4993 11.2451 14.6442 11.3828 14.7606 11.4933C15.1215 11.8361 15.4065 12.1068 15.8663 12.1068C16.3275 12.1068 16.6178 11.8311 16.985 11.4821C17.0992 11.3738 17.2411 11.2389 17.4147 11.0829C20.1152 8.64879 24.477 7.61062 27.2415 10.4821C29.419 12.7365 30.0509 16.0823 28.955 18.9872C27.5562 17.5902 25.6268 16.7252 23.4991 16.7252C21.9881 16.7252 20.5248 17.1613 19.267 17.9862C18.8611 18.2524 18.748 18.7972 19.0141 19.2032C19.2804 19.6091 19.8252 19.7222 20.231 19.4561C21.2016 18.8195 22.3316 18.483 23.4991 18.483C26.7912 18.483 29.4694 21.1639 29.4694 24.4591C29.4694 27.7543 26.7912 30.4352 23.4991 30.4352C20.2071 30.4352 17.5289 27.7543 17.5289 24.4591C17.5289 23.6481 17.6875 22.8633 18.0004 22.1265C18.1901 21.6797 17.9817 21.1637 17.535 20.974C17.0885 20.7845 16.5724 20.9925 16.3826 21.4395C15.9769 22.3948 15.7713 23.4108 15.7713 24.4593C15.7713 26.8248 16.8391 28.9445 18.5165 30.3642L16.1281 32.7345L16.0734 32.778C16.0048 32.8328 15.9321 32.8909 15.8672 32.9412C15.8039 32.8924 15.7333 32.8365 15.6667 32.7838L15.6032 32.7335L9.407 26.5848C9.06247 26.2429 8.50606 26.245 8.16399 26.5896C7.82216 26.9341 7.82438 27.4907 8.1688 27.8325L14.4001 34.0159C14.4236 34.0392 14.4484 34.0613 14.4745 34.0819L14.5749 34.1613C15.0284 34.5207 15.356 34.7805 15.8384 34.7958C15.8476 34.796 15.8569 34.7963 15.8663 34.7963C15.8753 34.7963 15.8844 34.7961 15.8936 34.7959C16.3826 34.7807 16.7128 34.5169 17.17 34.152L17.2603 34.0799C17.2854 34.06 17.3094 34.0385 17.3322 34.016L20.0111 31.3574C20.8112 31.7643 21.6906 32.036 22.6201 32.1418V47.7469C22.6201 52.7907 26.0683 55.4297 29.4744 55.4297C32.6845 55.4297 36.1396 53.0255 36.1396 47.7469V34.3992V13.8742C36.1396 8.68957 39.5331 6.32812 42.686 6.32812C44.3952 6.32812 45.9865 6.98379 47.1669 8.1743C48.5183 9.53719 49.2326 11.5082 49.2326 13.8742V21.9915C45.2511 22.3935 41.5166 25.182 41.5166 30.1639V37.4954C40.2947 37.8715 39.4041 39.0103 39.4041 40.3534C39.4041 42.002 40.746 43.3433 42.3955 43.3433H44.2024C45.8501 43.3433 47.1905 42.002 47.1905 40.3534C47.1905 38.7048 45.85 37.3635 44.2024 37.3635H43.2744V30.1639C43.2744 25.7205 46.8838 23.6966 50.2372 23.6966C52.0307 23.6966 53.6835 24.2668 54.8912 25.3022C56.2372 26.4561 56.9487 28.1373 56.9487 30.1638V37.6792H55.7017C54.054 37.6792 52.7138 39.0205 52.7138 40.6691C52.7138 42.3196 54.0541 43.6623 55.7017 43.6623H57.5086C59.158 43.6623 60.5 42.3196 60.5 40.6691C60.5 39.4461 59.7612 38.3928 58.7064 37.9302ZM45.4329 40.3534C45.4329 41.0327 44.881 41.5855 44.2025 41.5855H42.3956C41.7154 41.5855 41.1619 41.0327 41.1619 40.3534C41.1619 39.6741 41.7152 39.1213 42.3956 39.1213H44.2025C44.881 39.1213 45.4329 39.6739 45.4329 40.3534ZM57.5086 41.9046H55.7017C55.0233 41.9046 54.4715 41.3504 54.4715 40.6692C54.4715 39.9899 55.0234 39.4371 55.7017 39.4371H57.5086C58.1889 39.4371 58.7424 39.9899 58.7424 40.6692C58.7424 41.3504 58.189 41.9046 57.5086 41.9046Z" fill="#099582"/>
<path d="M26.703 24.4593C26.703 22.6915 25.2657 21.2532 23.4991 21.2532C21.7325 21.2532 20.2952 22.6914 20.2952 24.4593C20.2952 26.2251 21.7325 27.662 23.4991 27.662C25.2657 27.662 26.703 26.2251 26.703 24.4593ZM22.0529 24.4593C22.0529 23.6607 22.7017 23.011 23.4991 23.011C24.2966 23.011 24.9453 23.6607 24.9453 24.4593C24.9453 25.2559 24.2966 25.9042 23.4991 25.9042C22.7017 25.9041 22.0529 25.2559 22.0529 24.4593Z" fill="#099582"/>
</g>
<defs>
<clipPath id="clip0_18_1751">
<rect width="60" height="60" fill="white"/>
</clipPath>
</defs>
</svg>
