<?xml version="1.0" encoding="UTF-8"?>
<!DOCTYPE svg PUBLIC "-//W3C//DTD SVG 1.1//EN" "http://www.w3.org/Graphics/SVG/1.1/DTD/svg11.dtd">
<svg xmlns="http://www.w3.org/2000/svg" version="1.1" width="412px" height="432px" style="shape-rendering:geometricPrecision; text-rendering:geometricPrecision; image-rendering:optimizeQuality; fill-rule:evenodd; clip-rule:evenodd" xmlns:xlink="http://www.w3.org/1999/xlink">
<g><path style="opacity:1" fill="#099582" d="M 104.5,144.5 C 103.504,157.656 103.171,170.99 103.5,184.5C 105.099,184.768 106.432,184.434 107.5,183.5C 115.038,181.451 119.205,176.451 120,168.5C 125.931,158.304 131.598,147.971 137,137.5C 137.087,132.108 137.253,126.774 137.5,121.5C 138.607,120.978 139.774,120.645 141,120.5C 143.855,122.509 147.022,123.842 150.5,124.5C 168.741,111.752 189.074,104.752 211.5,103.5C 222.032,104.109 232.365,105.942 242.5,109C 253.625,114.061 264.291,119.894 274.5,126.5C 276.299,122.517 279.299,120.351 283.5,120C 285.827,123.609 286.16,127.442 284.5,131.5C 284.842,133.867 285.342,136.2 286,138.5C 294.826,150.81 301.659,164.143 306.5,178.5C 309.451,182.595 313.451,184.595 318.5,184.5C 320.547,164.302 319.381,144.302 315,124.5C 312.27,116.956 308.937,109.623 305,102.5C 288.681,78.9213 266.181,66.088 237.5,64C 230.187,58.818 230.854,55.318 239.5,53.5C 245.808,54.4602 252.141,55.1268 258.5,55.5C 257.126,45.2557 252.459,36.7557 244.5,30C 236.364,24.0158 227.531,19.5158 218,16.5C 216.377,11.3036 218.21,8.30356 223.5,7.5C 239.176,11.242 251.676,19.5753 261,32.5C 265.653,41.4603 269.319,50.7937 272,60.5C 292.962,71.1289 308.962,86.7956 320,107.5C 322.537,114.777 324.87,122.11 327,129.5C 328.166,147.81 328.833,166.143 329,184.5C 330.446,195.77 332.279,206.936 334.5,218C 333.939,229.514 329.273,239.014 320.5,246.5C 315.415,249.124 310.582,252.124 306,255.5C 301.847,271.295 296.513,286.628 290,301.5C 285.245,308.676 280.245,315.676 275,322.5C 270.591,327.58 265.591,331.914 260,335.5C 257.795,345.558 260.462,354.225 268,361.5C 274.817,368.994 283.317,373.494 293.5,375C 311.555,375.631 329.555,376.964 347.5,379C 360.653,383.215 369.986,391.548 375.5,404C 374.472,408.206 371.805,409.539 367.5,408C 358.494,395.875 346.494,388.541 331.5,386C 317.5,385.667 303.5,385.333 289.5,385C 275.31,382.4 264.143,375.233 256,363.5C 252.798,356.883 249.798,350.216 247,343.5C 230.341,353.363 212.508,356.196 193.5,352C 188.466,349.986 183.466,347.653 178.5,345C 177.5,344.333 176.5,344.333 175.5,345C 168.999,367.509 154.332,380.842 131.5,385C 117.833,385.333 104.167,385.667 90.5,386C 82.7175,387.615 75.3842,390.448 68.5,394.5C 62.6766,399.491 57.3433,404.991 52.5,411C 48.6629,412 46.6629,410.5 46.5,406.5C 50.0607,396.764 56.394,389.264 65.5,384C 72.9212,379.748 80.9212,377.082 89.5,376C 102.833,375.667 116.167,375.333 129.5,375C 147.786,371.372 159.286,360.872 164,343.5C 164.706,341.029 164.373,338.695 163,336.5C 145.726,322.556 133.06,305.223 125,284.5C 122.175,274.866 119.508,265.2 117,255.5C 105.559,251.064 96.8919,243.397 91,232.5C 89.8435,227.551 89.0101,222.551 88.5,217.5C 89.044,208.66 90.544,199.993 93,191.5C 93.9474,171.827 94.9474,152.16 96,132.5C 98.8921,111.882 107.725,94.3816 122.5,80C 132.079,72.7472 141.912,65.9139 152,59.5C 155.014,37.8335 166.181,22.0002 185.5,12C 189.946,10.629 194.446,9.46236 199,8.5C 204.802,11.6156 204.969,15.1156 199.5,19C 186.994,22.0018 177.16,28.8352 170,39.5C 167.227,44.7128 164.727,50.0461 162.5,55.5C 162.833,55.8333 163.167,56.1667 163.5,56.5C 170.757,54.8427 178.09,54.0094 185.5,54C 189.5,57 189.5,60 185.5,63C 143.782,68.3967 117.282,91.23 106,131.5C 104.925,135.77 104.425,140.103 104.5,144.5 Z"/></g>
<g><path style="opacity:1" fill="#099582" d="M 94.5,22.5 C 109.461,21.628 115.961,28.628 114,43.5C 108.692,52.3587 101.192,54.8587 91.5,51C 83.5444,43.5978 82.5444,35.4312 88.5,26.5C 90.5654,25.1433 92.5654,23.81 94.5,22.5 Z"/></g>
<g><path style="opacity:1" fill="#f3faf3" d="M 97.5,33.5 C 102.494,33.329 104.328,35.6624 103,40.5C 99.2122,43.2681 96.7122,42.2681 95.5,37.5C 95.7517,35.9271 96.4183,34.5938 97.5,33.5 Z"/></g>
<g><path style="opacity:1" fill="#099582" d="M 372.5,82.5 C 386.434,81.3048 396.268,86.9715 402,99.5C 404.352,121.478 394.519,132.312 372.5,132C 355.822,125.307 350.155,113.307 355.5,96C 359.607,89.3784 365.273,84.8784 372.5,82.5 Z"/></g>
<g><path style="opacity:1" fill="#fafdfb" d="M 374.5,92.5 C 386.982,92.1476 392.815,98.1476 392,110.5C 387.533,121.316 380.033,124.149 369.5,119C 362.377,112.227 361.71,104.893 367.5,97C 370.239,95.9741 372.572,94.4741 374.5,92.5 Z"/></g>
<g><path style="opacity:1" fill="#fefefe" d="M 202.5,114.5 C 244.322,113.014 274.155,131.014 292,168.5C 293.876,175.066 295.543,181.733 297,188.5C 302.314,226.645 296.647,262.979 280,297.5C 264.515,325.157 241.015,340.49 209.5,343.5C 185.707,340.272 166.374,329.272 151.5,310.5C 136.887,289.4 128.053,266.067 125,240.5C 123.901,221.093 124.567,201.76 127,182.5C 137.175,143.157 162.342,120.49 202.5,114.5 Z"/></g>
<g><path style="opacity:1" fill="#bbe2bd" d="M 104.5,144.5 C 104.5,157.5 104.5,170.5 104.5,183.5C 105.5,183.5 106.5,183.5 107.5,183.5C 106.432,184.434 105.099,184.768 103.5,184.5C 103.171,170.99 103.504,157.656 104.5,144.5 Z"/></g>
<g><path style="opacity:1" fill="#099582" d="M 36.5,176.5 C 55.2518,175.898 62.5852,184.565 58.5,202.5C 55.8132,206.021 52.6465,209.021 49,211.5C 44.7011,211.542 40.2011,211.375 35.5,211C 24.4113,204.238 21.9113,195.071 28,183.5C 30.6278,180.79 33.4611,178.456 36.5,176.5 Z"/></g>
<g><path style="opacity:1" fill="#f5fbf6" d="M 41.5,186.5 C 48.6721,188.855 50.1721,193.188 46,199.5C 40.5948,203.021 37.0948,201.688 35.5,195.5C 35.9439,191.402 37.9439,188.402 41.5,186.5 Z"/></g>
<g><path style="opacity:1" fill="#f7fbf7" d="M 113.5,193.5 C 114.831,200.97 115.498,208.804 115.5,217C 115.654,225.325 115.154,233.492 114,241.5C 109.362,240.081 105.695,237.414 103,233.5C 98.0184,224.346 97.5184,215.012 101.5,205.5C 103.909,199.758 107.909,195.758 113.5,193.5 Z"/></g>
<g><path style="opacity:1" fill="#fbfdfc" d="M 308.5,193.5 C 318.691,197.706 323.691,205.372 323.5,216.5C 324.073,225.18 321.407,232.68 315.5,239C 313.235,240.118 310.901,240.951 308.5,241.5C 308.5,225.5 308.5,209.5 308.5,193.5 Z"/></g>
<g><path style="opacity:1" fill="#099582" d="M 344.5,286.5 C 358.22,285.722 364.72,292.055 364,305.5C 360.176,315.626 353.01,319.126 342.5,316C 332.38,308.617 331.047,299.95 338.5,290C 340.727,289.059 342.727,287.892 344.5,286.5 Z"/></g>
<g><path style="opacity:1" fill="#f0faf1" d="M 346.5,297.5 C 352.465,296.928 354.131,299.095 351.5,304C 345.244,304.934 343.577,302.767 346.5,297.5 Z"/></g>
<g><path style="opacity:1" fill="#099582" d="M 85.5,307.5 C 109.234,305.285 119.067,315.951 115,339.5C 104.657,353.897 92.1572,356.231 77.5,346.5C 65.9972,330.408 68.6639,317.408 85.5,307.5 Z"/></g>
<g><path style="opacity:1" fill="#fafdfa" d="M 88.5,317.5 C 103.512,316.98 108.679,323.646 104,337.5C 95.5753,344.729 88.242,343.729 82,334.5C 80.3053,327.241 82.472,321.575 88.5,317.5 Z"/></g>
</svg>
