<svg width="41" height="40" viewBox="0 0 41 40" fill="none" xmlns="http://www.w3.org/2000/svg">
<path d="M6.0406 19.5399H6.54239V23.0246C6.54239 23.2401 6.71893 23.4148 6.93684 23.4148C7.15465 23.4148 7.33129 23.2402 7.33129 23.0246V19.5405H9.35067V27.2546C9.35067 27.5558 9.10295 27.8009 8.79852 27.8009H7.88353C7.57911 27.8009 7.33138 27.5558 7.33138 27.2546V26.5179C7.33138 26.3024 7.15484 26.1277 6.93694 26.1277C6.71912 26.1277 6.54249 26.3023 6.54249 26.5179V27.2546C6.54249 27.9862 7.14415 28.5815 7.88353 28.5815H8.79852C9.53791 28.5815 10.1396 27.9862 10.1396 27.2546V23.2052L15.0698 19.5399H18.8286L23.7584 23.2049V27.2544C23.7584 27.9859 24.3601 28.5812 25.0995 28.5812H26.0159C26.7553 28.5812 27.3569 27.9859 27.3569 27.2544V19.5399H28.0207C29.1305 19.5399 30.191 19.1301 31.0071 18.3861L35.1703 14.5902C36.1579 13.6895 36.2205 12.1705 35.3103 11.1934C34.4025 10.2189 32.8625 10.1568 31.8774 11.0547L27.844 14.7324H6.0406C4.70097 14.7324 3.61105 15.8108 3.61105 17.1362C3.61105 18.4615 4.70097 19.5399 6.0406 19.5399ZM10.1394 22.2289V19.5399H13.7562L10.1394 22.2289ZM20.1417 19.5399H23.7582V22.2285L20.1417 19.5399ZM26.5678 27.2543C26.5678 27.5555 26.3201 27.8006 26.0157 27.8006H25.0993C24.7948 27.8006 24.5471 27.5555 24.5471 27.2543V19.5398H26.5679V27.2543H26.5678ZM6.0406 15.5129H27.9979C28.0971 15.5129 28.1924 15.476 28.2653 15.4097L32.4119 11.6288C33.0773 11.0224 34.1172 11.0644 34.7303 11.7224C35.3447 12.382 35.3025 13.4082 34.6355 14.0161L30.4723 17.8122C29.8024 18.423 28.9316 18.7595 28.0204 18.7595H26.9623C23.7714 18.7595 9.20243 18.7595 6.0406 18.7595C5.13593 18.7595 4.39995 18.0313 4.39995 17.1362C4.39986 16.241 5.13584 15.5129 6.0406 15.5129Z" fill="#099582"/>
</svg>
