<svg width="60" height="60" viewBox="0 0 60 60" fill="none" xmlns="http://www.w3.org/2000/svg">
<path d="M55.1671 14.0941C54.3507 12.4621 52.4494 11.6918 50.7431 12.3024C49.4136 12.7788 48.1822 13.0325 47.0248 13.0808C47.0712 11.9187 47.3187 10.687 47.7971 9.35511C48.3963 7.67643 47.6686 5.7677 46.0035 4.93194C44.055 3.95511 41.6939 4.92535 40.9749 6.97077C40.3383 8.77194 39.963 10.5251 39.8336 12.2214C36.6365 12.2812 33.6578 13.3375 31.3003 15.314C28.4359 17.7155 26.7473 21.2722 26.6225 25.0339C23.5102 24.9183 20.016 25.6235 17.0429 28.8058L16.9677 28.8911C14.1997 32.0768 13.2967 34.9991 13.2328 37.5254C11.1341 37.4097 9.21572 37.7551 7.54889 38.5696C6.38606 39.1378 5.64147 40.2527 5.55762 41.5522C5.38083 44.2714 8.12284 46.2524 10.7767 45.0383C11.7881 44.5766 13.1772 44.6109 14.9841 45.1299C15.3826 46.5066 15.6245 48.0912 15.0631 49.3219C13.885 51.9098 15.7137 54.5505 18.3019 54.5505C19.6993 54.5505 20.9254 53.7909 21.5317 52.5498C22.3458 50.8826 22.6849 48.9625 22.569 46.866C25.0985 46.8014 28.0244 45.8984 31.2158 43.1233L31.305 43.0433C34.5213 40.0392 35.2231 36.5883 35.087 33.459C37.7078 33.3712 40.2456 32.5446 42.3578 31.0368C42.6318 30.841 42.6956 30.4604 42.4998 30.186C42.304 29.912 41.9238 29.8482 41.649 30.044C39.7187 31.4221 37.3912 32.1758 34.9928 32.2443C34.7986 30.4478 34.3954 28.833 34.1089 27.4513C36.4502 27.6168 38.7044 26.6812 40.1594 24.9521C41.3621 23.5227 41.9338 21.6862 41.8525 19.6397C42.0096 19.6712 42.1647 19.6949 42.3235 19.7348C43.7169 20.1349 45.168 20.319 46.6635 20.3123C46.6218 22.4133 46.1092 24.3958 45.1193 26.1696C44.9554 26.4641 45.0608 26.8352 45.3546 26.9995C45.6495 27.1639 46.0202 27.0581 46.1845 26.7642C47.2849 24.7924 47.8506 22.5943 47.884 20.2646C49.581 20.1348 51.3318 19.7625 53.1306 19.1275C55.1843 18.4027 56.1394 16.0378 55.1671 14.0941ZM42.1255 7.37628C42.603 6.01735 44.1706 5.37638 45.4568 6.02189C46.5201 6.55604 47.0534 7.81677 46.6492 8.94346C46.125 10.4019 45.8456 11.764 45.7975 13.0561C44.3902 12.9213 43.5865 12.4031 41.0633 12.2514C41.189 10.6785 41.5329 9.05277 42.1255 7.37628ZM17.8857 29.6938L17.9462 29.6247C20.6238 26.7588 23.7622 26.1257 26.6378 26.2482C26.6419 26.3204 26.6419 26.3922 26.6472 26.4645C26.7559 27.9595 27.1705 29.5361 27.4928 31.1316C25.3301 30.8752 23.1774 31.0863 21.4737 32.8874C19.3363 35.357 18.9922 37.1486 19.3316 38.9672C19.1475 38.9003 18.9591 38.8311 18.7641 38.7591C17.2597 38.1947 15.8078 37.8241 14.4236 37.6394C14.4571 35.3246 15.2902 32.6811 17.8857 29.6938ZM26.4138 37.7027C24.0324 39.7643 22.5347 39.9225 20.6864 39.4127C20.1755 37.565 20.3309 36.0709 22.3778 33.7059C23.8121 32.19 25.6736 32.0848 27.7149 32.3853C28.0167 34.4252 27.9154 36.2826 26.4138 37.7027ZM20.4362 52.0143C20.0627 52.7794 19.3281 53.269 18.4711 53.3252C16.6781 53.4478 15.3381 51.6619 16.1727 49.8272C16.7724 48.5136 16.6743 46.9804 16.3569 45.5816C17.6857 46.0727 19.3723 46.6813 21.3471 46.8348C21.4576 48.5578 21.2484 50.3508 20.4362 52.0143ZM39.2263 24.1669C37.9841 25.6429 35.9924 26.4494 33.8964 26.2058C33.648 24.0393 34.4943 22.0829 35.9307 20.8737C37.1697 19.8301 38.7975 19.3548 40.613 19.4683C40.7314 21.2938 40.2698 22.9265 39.2263 24.1669ZM52.7247 17.9774C49.1234 19.2488 45.7373 19.4457 42.6399 18.5572C39.7316 17.8289 37.0701 18.3196 35.1451 19.941C33.4073 21.404 32.4751 23.6796 32.6503 26.0228C32.8676 29.2855 36.3388 36.6731 30.4809 42.1438L30.408 42.2095C24.5434 47.3095 19.9964 45.6271 16.6767 44.3998C14.668 43.6569 12.2276 43.0349 10.27 43.9292C8.44786 44.7603 6.65854 43.4207 6.7743 41.6308C6.83006 40.7738 7.31971 40.0387 8.08435 39.6652C11.5386 37.9765 15.5668 38.8615 18.342 39.9035C21.2374 40.9719 23.5235 41.8166 27.2315 38.6068C30.7666 35.2642 28.1409 30.2081 27.8637 26.3764C27.5798 22.4883 29.1575 18.7021 32.0839 16.2487C35.2266 13.6144 39.4129 12.7855 43.8428 13.9078C44.1112 13.9369 46.6489 15.0649 51.1546 13.4505C52.2788 13.0475 53.535 13.5582 54.0762 14.64C54.722 15.9297 54.0848 17.4973 52.7247 17.9774Z" fill="#099582"/>
</svg>
