<svg width="60" height="60" viewBox="0 0 60 60" fill="none" xmlns="http://www.w3.org/2000/svg">
<path d="M54.332 13.9273C53.9238 12.8103 53.243 11.813 52.3515 11.0259C51.46 10.2388 50.3859 9.68691 49.227 9.42029C47.7867 9.07346 46.2842 9.07735 44.8457 9.43162C44.2082 9.57787 43.5631 9.68859 42.9133 9.76326C41.2712 9.95649 39.6087 9.66124 38.1336 8.91443C31.2051 5.39881 25.5891 7.31287 22.8602 8.76756C21.1663 9.65295 19.2321 9.96895 17.3445 9.66873C16.932 9.60506 16.5168 9.52498 16.1105 9.43162C14.6719 9.07742 13.1693 9.07354 11.7289 9.42029C10.5701 9.68649 9.49615 10.2379 8.60456 11.0245C7.71297 11.8111 7.03199 12.808 6.62344 13.9246C6.53438 14.1445 4.92461 18.3605 9.67344 23.3695C9.88906 25.0187 10.6651 26.5436 11.8715 27.6886C12.901 28.757 14.2224 29.4986 15.6707 29.8207C15.9892 29.8835 16.3129 29.9158 16.6375 29.9172C17.0871 29.9323 17.5352 29.8571 17.9553 29.6961C18.3754 29.5351 18.7589 29.2915 19.0832 28.9797C19.8945 28.1683 20.193 26.9562 19.9234 25.5668C19.6016 24.1184 18.8602 22.797 17.7918 21.7676C16.9 20.8077 15.7331 20.1472 14.4512 19.8765C12.1918 17.9976 11.0012 16.2711 11.1844 15.1316C11.2883 14.4847 11.8484 13.9597 12.8641 13.564C12.9723 13.5176 15.5266 12.439 17.1414 14.8176C17.5766 15.489 17.8148 16.2691 17.8289 17.0691C17.8895 18.7054 18.359 21.7308 20.827 23.6133C21.4538 24.0703 21.9971 24.6319 22.4332 25.2734C23.5906 27.0484 25.1441 30.6086 22.5527 34.4844C21.5007 36.0756 20.9443 37.9432 20.9539 39.8508C20.857 45.3019 24.7293 49.9969 27.9945 52.9758C28.0665 53.0414 28.1604 53.0777 28.2578 53.0777H32.6969C32.7941 53.0776 32.8879 53.0413 32.9598 52.9758C44.3348 42.5996 38.4621 34.5644 38.4148 34.5035C35.8102 30.609 37.3633 27.0488 38.5211 25.2738C38.957 24.6334 39.4998 24.0727 40.1258 23.6164C42.593 21.7344 43.0633 18.7086 43.1238 17.0722C43.1376 16.2721 43.3758 15.492 43.8113 14.8207C45.4176 12.4547 47.9809 13.5215 48.1027 13.573C49.0883 13.9578 49.6434 14.4801 49.7523 15.1261C49.9477 16.2765 48.825 17.9629 46.5965 19.8801C45.3156 20.1511 44.1497 20.8115 43.2586 21.7707C40.9148 24.1144 40.3348 27.3504 41.9668 28.9828C42.2912 29.2945 42.6748 29.5381 43.095 29.6991C43.5151 29.8602 43.9632 29.9354 44.4129 29.9203C44.7376 29.919 45.0615 29.8867 45.3801 29.8238C46.8283 29.5015 48.1497 28.76 49.1793 27.6918C50.385 26.5468 51.1607 25.0224 51.3766 23.3738C56.2328 18.307 54.4063 14.0851 54.332 13.9273ZM17.2395 22.3207C18.1979 23.2397 18.8646 24.4206 19.1563 25.716C19.375 26.8429 19.1527 27.8062 18.5313 28.4281C17.9098 29.05 16.9465 29.2722 15.8195 29.0531C14.5241 28.7611 13.3433 28.0943 12.4242 27.1359C11.4302 26.1889 10.753 24.9579 10.4852 23.6113C10.6191 23.61 10.7528 23.5989 10.8852 23.5781C11.1388 23.5362 11.3747 23.4217 11.5645 23.2483C11.7543 23.075 11.8897 22.8503 11.9543 22.6015L11.9934 22.4316C11.9962 22.4116 12.0038 22.3926 12.0157 22.3763C12.0275 22.3599 12.0432 22.3467 12.0613 22.3379C12.0781 22.3297 12.0966 22.3256 12.1153 22.326C12.134 22.3264 12.1523 22.3313 12.1688 22.3402C12.4389 22.4919 12.7279 22.6074 13.0281 22.684C13.2537 22.743 13.4892 22.7545 13.7195 22.7175C13.9497 22.6806 14.1698 22.5961 14.3656 22.4695C14.553 22.3492 14.7128 22.1907 14.8347 22.0044C14.9566 21.8181 15.0378 21.6081 15.073 21.3883C15.1051 21.2011 15.091 21.009 15.032 20.8285C15.8649 21.1646 16.6172 21.6731 17.2395 22.3207ZM21.227 14.7207C21.0587 14.5755 20.9468 14.3757 20.9111 14.1563C20.8754 13.9369 20.9181 13.712 21.0317 13.5209C21.1452 13.3298 21.3224 13.1849 21.5322 13.1114C21.742 13.0379 21.9709 13.0407 22.1789 13.1191C27.5255 15.227 33.4729 15.227 38.8195 13.1191C39.0275 13.0409 39.2563 13.0383 39.466 13.1118C39.6756 13.1853 39.8527 13.3303 39.9662 13.5213C40.0797 13.7123 40.1223 13.9372 40.0866 14.1565C40.051 14.3757 39.9393 14.5755 39.7711 14.7207C37.5254 16.6738 32.4434 22.2082 33.7531 31.4137C34.0838 33.4262 34.8545 35.341 36.0102 37.0215C36.6184 37.9472 37.082 39.5215 35.8387 41.7742C35.4719 42.4383 35.0574 43.1902 34.698 43.9703C33.8356 45.8488 32.3359 49.3699 31.7527 52.2941H29.2457C28.6621 49.3691 27.1633 45.8488 26.3 43.9703C25.9426 43.1922 25.527 42.4386 25.1598 41.7742C23.9164 39.523 24.3785 37.9461 24.9879 37.0215C26.1439 35.3412 26.9146 33.4263 27.2449 31.4137C28.5551 22.2086 23.4727 16.6734 21.227 14.7207ZM48.627 27.1363C47.7076 28.0947 46.5267 28.7614 45.2313 29.0535C44.1043 29.2715 43.1414 29.0496 42.5195 28.4285C41.1914 27.1004 41.7711 24.3609 43.8109 22.3211C44.4334 21.6737 45.1856 21.1652 46.0184 20.8289C45.9593 21.0084 45.9451 21.1996 45.977 21.3859C46.0119 21.6063 46.0931 21.8168 46.2152 22.0036C46.3372 22.1904 46.4974 22.3493 46.6852 22.4699C46.8801 22.5963 47.0992 22.6808 47.3285 22.7179C47.5578 22.7551 47.7923 22.7442 48.0172 22.6859C48.3165 22.6096 48.6046 22.4946 48.8742 22.3437C48.8914 22.3334 48.9109 22.3276 48.9309 22.3267C48.9509 22.3258 48.9708 22.33 48.9888 22.3388C49.0068 22.3475 49.0223 22.3606 49.0339 22.3769C49.0456 22.3932 49.053 22.4121 49.0555 22.432C49.0555 22.4386 49.0641 22.4687 49.066 22.4754L49.1004 22.6176C49.1661 22.8629 49.3013 23.0841 49.4896 23.2545C49.6779 23.425 49.9114 23.5375 50.1621 23.5785C50.2956 23.5993 50.4305 23.6106 50.5656 23.6121C50.2978 24.9584 49.6207 26.1893 48.627 27.1363ZM50.8254 22.8168C50.6446 22.8342 50.4624 22.8305 50.2824 22.8058C50.1829 22.7893 50.0901 22.7447 50.0149 22.6774C49.9398 22.6101 49.8853 22.5229 49.8578 22.4258L49.8223 22.282C49.7962 22.142 49.7373 22.0101 49.6504 21.8973C49.5636 21.7844 49.4512 21.6938 49.3225 21.6328C49.1938 21.5718 49.0524 21.5422 48.9101 21.5464C48.7677 21.5506 48.6284 21.5885 48.5035 21.657C48.2904 21.7774 48.0624 21.8693 47.8254 21.9304C47.705 21.9622 47.5794 21.9686 47.4564 21.9491C47.3335 21.9295 47.2159 21.8846 47.1113 21.8172C47.0147 21.7551 46.9324 21.6734 46.8696 21.5772C46.8069 21.4811 46.7652 21.3728 46.7473 21.2594C46.7184 21.0875 46.8133 20.9238 46.9816 20.6492C47.0117 20.6011 47.0418 20.5508 47.0719 20.5004C48.8297 18.9945 50.8301 16.8324 50.5207 14.9961C50.3645 14.0586 49.6441 13.3367 48.3988 12.8511C48.366 12.8367 45.1371 11.4726 43.1645 14.382C42.6462 15.1746 42.3613 16.0969 42.3422 17.0437C42.2867 18.5422 41.8633 21.3082 39.6512 22.9953C38.9541 23.5054 38.3501 24.1317 37.8656 24.8469C36.6027 26.7836 34.9106 30.6703 37.7781 34.957C37.8344 35.0308 43.2469 42.4433 32.5508 52.2902C33.1398 49.4777 34.5758 46.1117 35.4086 44.2988C35.7547 43.5449 36.1629 42.8058 36.523 42.1539C37.9543 39.5621 37.3895 37.7008 36.6637 36.5949C35.5713 35.0104 34.8419 33.2045 34.5273 31.3058C33.2734 22.4781 38.1355 17.1789 40.2852 15.3125C40.5918 15.0468 40.7952 14.6816 40.8596 14.281C40.924 13.8803 40.8453 13.4698 40.6374 13.1214C40.4295 12.7729 40.1055 12.5088 39.7224 12.3752C39.3392 12.2417 38.9213 12.2473 38.5418 12.391C33.374 14.4281 27.6256 14.4281 22.4578 12.391C22.0783 12.2473 21.6604 12.2417 21.2772 12.3752C20.8941 12.5088 20.5701 12.7729 20.3622 13.1214C20.1543 13.4698 20.0756 13.8803 20.14 14.281C20.2044 14.6816 20.4078 15.0468 20.7145 15.3125C22.8629 17.1812 27.7277 22.4801 26.4715 31.3054C26.157 33.2042 25.4274 35.0101 24.3348 36.5945C23.609 37.7 23.0457 39.5633 24.4758 42.1535C24.8363 42.8066 25.2445 43.5465 25.5902 44.2984C26.4234 46.1125 27.8609 49.4812 28.4496 52.2961H28.4105C17.7297 42.4707 22.9477 35.257 23.1887 34.9355C26.043 30.6679 24.3504 26.7812 23.0875 24.8437C22.6033 24.1285 21.9994 23.5022 21.3023 22.9922C19.0898 21.3047 18.6668 18.539 18.6113 17.0406C18.5927 16.094 18.3084 15.1717 17.791 14.3789C15.8172 11.4699 12.5879 12.8336 12.5699 12.8422C11.291 13.339 10.566 14.0676 10.4148 15.0078C10.118 16.8543 12.1766 19.0051 13.9801 20.5C14.0098 20.5492 14.0395 20.5984 14.0688 20.6457C14.2391 20.9191 14.3344 21.0844 14.3031 21.259C14.2849 21.3718 14.2431 21.4796 14.1805 21.5753C14.1178 21.6709 14.0357 21.7523 13.9395 21.814C13.834 21.8819 13.7156 21.9269 13.5917 21.9462C13.4679 21.9655 13.3414 21.9587 13.2203 21.9261C12.9829 21.865 12.7546 21.7731 12.541 21.6527C12.4169 21.5861 12.2789 21.5495 12.1381 21.5458C11.9972 21.5421 11.8575 21.5715 11.7301 21.6316C11.6027 21.6917 11.4911 21.7808 11.4043 21.8918C11.3176 22.0028 11.258 22.1325 11.2305 22.2707L11.1973 22.409C11.1713 22.51 11.1167 22.6013 11.04 22.672C10.9632 22.7426 10.8677 22.7895 10.7648 22.807C10.5864 22.8314 10.4058 22.835 10.2266 22.8176C5.8125 18.1515 7.28242 14.3769 7.34766 14.2187L7.35117 14.2094C7.7105 13.2061 8.31811 12.3103 9.11731 11.6054C9.91651 10.9006 10.8812 10.4097 11.9215 10.1785C13.2416 9.86273 14.6183 9.86809 15.9359 10.1941C16.3605 10.2918 16.7953 10.375 17.225 10.4422C19.279 10.7668 21.383 10.4213 23.2254 9.45701C25.8227 8.07498 31.1664 6.25623 37.7805 9.61091C39.3919 10.4272 41.2083 10.7502 43.0023 10.5394C43.6809 10.4614 44.3546 10.3458 45.0203 10.1929C46.338 9.86692 47.7146 9.86156 49.0348 10.1773C50.0779 10.4106 51.0448 10.9045 51.8451 11.6129C52.6455 12.3213 53.2532 13.2211 53.6113 14.2281C53.682 14.3875 55.2809 18.1605 50.8254 22.8168Z" fill="#099582"/>
<path d="M33.4207 18.7953C33.5243 18.7953 33.6237 18.7541 33.6969 18.6809C33.7702 18.6076 33.8113 18.5083 33.8113 18.4047C33.8113 18.3011 33.7702 18.2017 33.6969 18.1284C33.6237 18.0552 33.5243 18.014 33.4207 18.014H27.5789C27.4753 18.014 27.3759 18.0552 27.3027 18.1284C27.2294 18.2017 27.1883 18.3011 27.1883 18.4047C27.1883 18.5083 27.2294 18.6076 27.3027 18.6809C27.3759 18.7541 27.4753 18.7953 27.5789 18.7953H33.4207Z" fill="#099582"/>
<path d="M27.5789 38.3203H33.4207C33.5243 38.3203 33.6237 38.2792 33.6969 38.2059C33.7702 38.1326 33.8113 38.0333 33.8113 37.9297C33.8113 37.8261 33.7702 37.7267 33.6969 37.6535C33.6237 37.5802 33.5243 37.5391 33.4207 37.5391H27.5789C27.4753 37.5391 27.3759 37.5802 27.3027 37.6535C27.2294 37.7267 27.1883 37.8261 27.1883 37.9297C27.1883 38.0333 27.2294 38.1326 27.3027 38.2059C27.3759 38.2792 27.4753 38.3203 27.5789 38.3203Z" fill="#099582"/>
<path d="M33.4207 39.8785H27.5789C27.4753 39.8785 27.3759 39.9197 27.3027 39.993C27.2294 40.0662 27.1883 40.1656 27.1883 40.2692C27.1883 40.3728 27.2294 40.4721 27.3027 40.5454C27.3759 40.6186 27.4753 40.6598 27.5789 40.6598H33.4207C33.5243 40.6598 33.6237 40.6186 33.6969 40.5454C33.7702 40.4721 33.8113 40.3728 33.8113 40.2692C33.8113 40.1656 33.7702 40.0662 33.6969 39.993C33.6237 39.9197 33.5243 39.8785 33.4207 39.8785Z" fill="#099582"/>
</svg>
