<svg width="60" height="60" viewBox="0 0 60 60" fill="none" xmlns="http://www.w3.org/2000/svg">
<g clip-path="url(#clip0_18_1763)">
<path d="M30.3767 9.97192H31.8415V11.4368H30.3767V9.97192Z" fill="#099582"/>
<path d="M27.447 8.50702H28.9118V9.97186H27.447V8.50702Z" fill="#099582"/>
<path d="M50.5046 51.0822L51.5358 50.0421L52.5759 51.0734L51.5446 52.1134L50.5046 51.0822Z" fill="#099582"/>
<path d="M43.7812 31.5617C38.8922 31.5617 34.6936 34.5715 32.9391 38.8353L30.1606 37.9339V35.5003C32.6081 33.9302 34.2935 31.2713 34.5271 28.2127H35.2875C37.3068 28.2127 38.9496 26.5699 38.9496 24.5505V23.0857C38.9496 22.131 38.3374 21.3171 37.4853 21.0146L37.4851 14.0158C37.4851 12.5493 36.6046 11.2377 35.2883 10.6609C35.1008 8.9193 33.9714 7.47272 31.9937 6.45426C30.1733 5.51676 27.7018 5.00055 25.0339 5.00055C23.054 5.00055 21.166 5.28561 19.5741 5.82487L20.0441 7.21227C21.4865 6.72369 23.2119 6.46539 25.034 6.46539C31.0922 6.46539 33.8515 8.91305 33.8515 11.1872V11.7477L34.3925 11.8942C35.3509 12.1537 36.0203 13.0261 36.0203 14.0159L36.0205 20.8885H34.5552V19.4236C34.5552 18.2121 33.5695 17.2263 32.3579 17.2263L24.309 17.2258C22.6936 17.2257 21.3793 15.9113 21.3793 14.2957H19.9145C19.9145 15.5071 18.9271 16.4929 17.7132 16.4934C16.4996 16.4938 15.5124 17.4798 15.5124 18.6913V20.8886H14.0476L14.0478 14.016C14.0478 13.0262 14.7171 12.1539 15.6756 11.8943L16.2166 11.7478V11.1873C16.2166 9.77369 17.0687 8.61881 18.7488 7.75475L18.079 6.45201C16.0984 7.47057 14.9675 8.91803 14.7798 10.661C13.4635 11.2378 12.583 12.5494 12.583 14.0159L12.5828 21.0146C11.7304 21.317 11.118 22.131 11.118 23.0859V24.5507C11.118 26.57 12.7607 28.2129 14.7801 28.2129H15.5404C15.7742 31.2714 17.4595 33.9304 19.9069 35.5005V37.9433L11.8546 40.7034C9.12656 41.6381 5.5 43.3345 5.5 47.2554V54.9992H43.7812C46.0906 54.9992 48.3254 54.3275 50.2438 53.0566L49.435 51.8354C48.5885 52.3962 47.6713 52.8231 46.7108 53.1089V49.7795C47.9731 49.4534 48.9082 48.305 48.9082 46.9424C48.9082 45.327 47.5939 44.0128 45.9784 44.0128C45.104 44.0128 44.3185 44.3983 43.7812 45.0077C43.244 44.3983 42.4584 44.0128 41.584 44.0128C39.9686 44.0128 38.6543 45.327 38.6543 46.9424C38.6543 48.305 39.5894 49.4534 40.8516 49.7794V53.1071C36.6206 51.8434 33.5273 47.9167 33.5273 43.2803C33.5273 38.644 36.6206 34.7172 40.8516 33.4536V36.7812C39.5894 37.1072 38.6543 38.2556 38.6543 39.6182C38.6543 41.2337 39.9686 42.5479 41.584 42.5479C42.4584 42.5479 43.2439 42.1624 43.7812 41.553C44.3185 42.1625 45.1041 42.5479 45.9784 42.5479C47.5939 42.5479 48.9082 41.2337 48.9082 39.6182C48.9082 38.2556 47.9731 37.1073 46.7108 36.7812V33.4536C50.9418 34.7173 54.0352 38.6441 54.0352 43.2804C54.0352 45.3009 53.4477 47.256 52.3362 48.9341L53.5575 49.743C54.8283 47.8243 55.5 45.5896 55.5 43.2804C55.5 36.8187 50.243 31.5617 43.7812 31.5617ZM33.1709 48.2517L32.1864 53.5343H30.1606V39.474L32.4681 40.2225C32.2042 41.1978 32.0625 42.2228 32.0625 43.2804C32.0625 45.0568 32.4605 46.7417 33.1709 48.2517ZM16.7854 47.6556L15.0746 46.8417L16.96 40.5017L19.9067 39.4917V53.5343H17.8811L16.7854 47.6556ZM21.3715 44.4826L22.4307 45.0177L23.1906 46.6958L21.3715 50.8039V44.4826ZM24.4655 45.9599L23.8302 44.5571L25.0336 42.8262L26.2371 44.5571L25.6018 45.9599H24.4655ZM27.6366 45.0177L28.6957 44.4826V50.8039L26.8766 46.6958L27.6366 45.0177ZM28.6957 42.8415L27.3139 43.5397L26.0518 41.7246L28.6957 39.8734V42.8415ZM22.7535 43.5396L21.3716 42.8414V39.8732L24.0155 41.7245L22.7535 43.5396ZM24.4698 47.4248H25.5975L28.3028 53.5343H21.7644L24.4698 47.4248ZM36.7522 22.3533C37.1562 22.3533 37.4847 22.6819 37.4847 23.0857V24.5505C37.4847 25.7621 36.4989 26.7478 35.2874 26.7478H34.555V22.3533H36.7522ZM12.5825 24.5506V23.0858C12.5825 22.682 12.911 22.3534 13.3149 22.3534H15.5122V26.7479H14.7798C13.5683 26.7478 12.5825 25.7622 12.5825 24.5506ZM16.9771 27.4802V18.6911C16.9771 18.2871 17.3074 17.9583 17.7136 17.9581C18.8639 17.9577 19.8922 17.4254 20.5646 16.5944C21.339 17.8509 22.7276 18.6905 24.3088 18.6905L32.3577 18.691C32.7616 18.691 33.0901 19.0196 33.0901 19.4234V27.4801C33.0901 31.9225 29.476 35.5367 25.0336 35.5367C20.5912 35.5367 16.9771 31.9226 16.9771 27.4802ZM25.0336 37.0016C26.3307 37.0016 27.5678 36.7405 28.6957 36.2688V38.0851L25.0336 40.6492L21.3715 38.0851V36.2688C22.4994 36.7406 23.7366 37.0016 25.0336 37.0016ZM6.96484 47.2554C6.96484 44.954 8.61924 43.3605 12.3293 42.0889L15.2583 41.0849L13.3132 47.6256L15.4821 48.6577L16.3909 53.5343H6.96484V47.2554ZM41.584 48.4073C40.7763 48.4073 40.1191 47.7502 40.1191 46.9424C40.1191 46.1347 40.7763 45.4776 41.584 45.4776C42.3917 45.4776 43.0488 46.1347 43.0488 46.9424H44.5137C44.5137 46.1347 45.1708 45.4776 45.9784 45.4776C46.7861 45.4776 47.4434 46.1347 47.4434 46.9424C47.4434 47.7502 46.7862 48.4073 45.9784 48.4073H45.246V53.4296C44.7637 53.4987 44.2745 53.5343 43.7812 53.5343C43.2839 53.5343 42.795 53.498 42.3164 53.4293V48.4073H41.584ZM38.1136 53.5343H33.6765L34.3044 50.1651C35.3108 51.5467 36.6114 52.7007 38.1136 53.5343ZM45.9784 38.1535C46.7861 38.1535 47.4434 38.8106 47.4434 39.6183C47.4434 40.426 46.7862 41.0832 45.9784 41.0832C45.1707 41.0832 44.5137 40.426 44.5137 39.6183H43.0488C43.0488 40.426 42.3917 41.0832 41.584 41.0832C40.7763 41.0832 40.1191 40.426 40.1191 39.6183C40.1191 38.8106 40.7763 38.1535 41.584 38.1535H42.3164V33.1316C42.795 33.0629 43.2839 33.0265 43.7812 33.0265C44.2785 33.0265 44.7675 33.0629 45.246 33.1316V38.1535H45.9784Z" fill="#099582"/>
</g>
<defs>
<clipPath id="clip0_18_1763">
<rect width="50" height="50" fill="white" transform="translate(5.5 5)"/>
</clipPath>
</defs>
</svg>
