<svg width="60" height="60" viewBox="0 0 60 60" fill="none" xmlns="http://www.w3.org/2000/svg">
<path d="M47.7909 37.3913H45.4881C40.8548 37.3913 37.105 41.1722 37.1418 45.8062C37.1591 47.9799 35.2974 49.6672 33.1756 49.6672H28.0304C25.9214 49.6672 24.2001 47.9954 24.1103 45.9081C25.5942 45.7212 26.7468 44.4539 26.7468 42.9202V40.6162H31.1204C32.4076 40.6162 33.4845 39.6999 33.7332 38.4854C33.769 38.3116 33.7878 38.1316 33.7878 37.9474V15.885C33.7878 15.5544 33.5198 15.2864 33.1891 15.2864C32.8586 15.2864 32.5905 15.5543 32.5905 15.885V17.5282C27.3614 15.9596 24.2305 16.896 21.2016 17.8078C18.343 18.6695 15.6321 19.477 11.1989 17.9174V11.6709C11.1989 10.8602 11.8583 10.2008 12.6691 10.2008H17.8886C18.2192 10.2008 18.4873 9.93285 18.4873 9.60214C18.4873 7.72445 20.0147 6.19715 21.8922 6.19715C23.7699 6.19715 25.2972 7.72459 25.2972 9.60214C25.2972 9.93271 25.5652 10.2008 25.8959 10.2008H31.1201C31.9311 10.2008 32.5903 10.8602 32.5903 11.6709V12.375C32.5903 12.7056 32.8583 12.9737 33.189 12.9737C33.5196 12.9737 33.7876 12.7057 33.7876 12.375V11.6709C33.7876 10.2001 32.5909 9.00363 31.1201 9.00363H26.4559C26.1616 6.74796 24.2271 5 21.8925 5C19.558 5 17.6233 6.74782 17.3292 9.00363H12.6694C11.1986 9.00363 10.0019 10.2001 10.0019 11.6709C10.0019 12.9805 10.002 6.94493 10.0014 24.43C10.0014 24.4325 10 24.4345 10 24.4369C10 24.4394 10.0014 24.4414 10.0014 24.4438V29.7233C10.0014 29.7258 10 29.7278 10 29.7302C10 29.7327 10.0014 29.7347 10.0014 29.7371V37.949C10.0014 39.4195 11.1977 40.6158 12.6684 40.6158H17.042V42.9197C17.042 44.4582 18.2015 45.729 19.692 45.9098C19.7848 50.4327 23.4859 54.0852 28.031 54.0852H33.2121C37.8464 54.0852 41.5961 50.3042 41.5593 45.6702C41.5419 43.4968 43.4028 41.8092 45.525 41.8092H47.7907C49.009 41.8092 50 40.8182 50 39.6002C50.0001 38.3821 49.0091 37.3913 47.7909 37.3913ZM21.5474 18.9542C24.4699 18.0739 27.4881 17.164 32.5902 18.7765V37.9492C32.5902 38.0502 32.5799 38.1489 32.5603 38.2443C32.4225 38.9129 31.8293 39.4172 31.1204 39.4172H12.6694C11.8584 39.4172 11.1992 38.7578 11.1992 37.9471V35.6222H13.6244C13.9549 35.6222 14.223 35.3542 14.223 35.0235C14.223 34.693 13.9551 34.4249 13.6244 34.4249H11.1992V30.3289H13.6244C13.9549 30.3289 14.223 30.0609 14.223 29.7302C14.223 29.3996 13.9551 29.1316 13.6244 29.1316H11.1992V25.0354H13.6244C13.9549 25.0354 14.223 24.7675 14.223 24.4368C14.223 24.1062 13.9551 23.8381 13.6244 23.8381H11.1992V19.187C15.7753 20.6927 18.7069 19.8096 21.5474 18.9542ZM18.2391 42.92V40.6161H25.5495V42.92C25.5495 43.9219 24.7343 44.7371 23.7321 44.7371H20.0564C19.0543 44.7371 18.2391 43.9221 18.2391 42.92ZM47.7909 40.6122H45.5251C42.7125 40.6122 40.3402 42.8626 40.3621 45.68C40.394 49.6485 37.1806 52.8882 33.2121 52.8882H28.031C24.1544 52.8882 20.9956 49.7857 20.8905 45.9344H22.9146C23.0187 48.6698 25.2702 50.8644 28.0306 50.8644H33.1758C35.9511 50.8644 38.3615 48.6481 38.3392 45.7966C38.3073 41.8293 41.5194 38.5884 45.4882 38.5884H47.791C48.3489 38.5884 48.803 39.0425 48.803 39.6004C48.803 40.1584 48.3489 40.6122 47.7909 40.6122Z" fill="#099582"/>
<path d="M21.8936 36.9492C24.483 36.9492 26.5894 34.8427 26.5894 32.2534C26.5894 29.8249 22.7686 25.6314 22.3327 25.1612C22.2195 25.0389 22.0601 24.9694 21.8936 24.9694C21.7271 24.9694 21.5676 25.0388 21.4544 25.1612C21.0185 25.6311 17.1963 29.8249 17.1963 32.2534C17.1963 34.8427 19.3036 36.9492 21.8936 36.9492ZM21.8936 26.4646C23.1647 27.9211 25.3921 30.7799 25.3921 32.2536C25.3921 34.1827 23.8227 35.7521 21.8936 35.7521C19.9636 35.7521 18.3936 34.1827 18.3936 32.2536C18.3936 30.7816 20.622 27.9218 21.8936 26.4646Z" fill="#099582"/>
</svg>
