<svg width="60" height="60" viewBox="0 0 60 60" fill="none" xmlns="http://www.w3.org/2000/svg">
<g clip-path="url(#clip0_18_1747)">
<path fill-rule="evenodd" clip-rule="evenodd" d="M30.5 54.8704C30.3017 54.8704 30.1156 54.7855 29.9859 54.6357C26.5128 50.612 22.9669 47.1713 19.8378 44.1354C11.8269 36.3633 5.49994 30.2226 5.49994 19.8964C5.49994 11.756 11.2601 5.12946 18.3401 5.12946C24.5698 5.12946 27.7354 8.7565 30.5 14.707C33.2647 8.7565 36.4302 5.12946 42.6599 5.12946C49.7397 5.12946 55.4999 11.7519 55.4999 19.8964C55.4999 30.2226 49.1731 36.3633 41.1622 44.1354C38.0331 47.1713 34.4871 50.612 31.0141 54.6357C30.8845 54.7855 30.6983 54.8704 30.5 54.8704ZM41.7734 39.1119C41.4659 39.1119 41.1946 38.9054 41.1177 38.6059L37.9685 26.8466L35.5842 35.7399C35.4028 36.4088 34.4492 36.4129 34.2727 35.7399L32.7913 30.2145H28.4396C28.132 30.2145 27.8607 30.0081 27.7839 29.7085L26.9622 26.6403L23.91 38.031C23.7287 38.7 22.7751 38.704 22.5986 38.031L18.6599 23.3291L14.948 29.7571C14.8266 29.9677 14.6039 30.0971 14.3569 30.0971H9.5075C12.0229 34.6562 16.1081 38.6215 20.785 43.1597C23.7805 46.0662 27.1565 49.3409 30.5 53.1581C33.8436 49.345 37.2196 46.0702 40.2151 43.1637C44.892 38.6255 48.9772 34.6604 51.4925 30.1013H44.7082L42.4291 38.6059C42.3483 38.9054 42.081 39.1119 41.7734 39.1119ZM8.81314 28.737L13.9642 28.7371L18.2996 21.2281C18.6002 20.7068 19.3886 20.805 19.5423 21.39L23.2502 35.2258L26.3022 23.8348C26.4834 23.166 27.4372 23.1619 27.6137 23.8348L28.9576 28.8503L33.3052 28.8504C33.6127 28.8504 33.8841 29.0567 33.961 29.3563L34.9204 32.9346L37.3005 24.0454C37.4817 23.3763 38.4355 23.3724 38.6119 24.0454L41.7612 35.8047L43.5181 29.247C43.5991 28.9515 43.8662 28.7411 44.1737 28.7411H52.1869C53.4295 26.091 54.1399 23.2146 54.1399 19.9003C54.1399 12.5088 48.9911 6.49361 42.6601 6.49361C37.3775 6.49361 34.3618 9.14901 31.1235 16.6458C30.8855 17.1944 30.1079 17.1847 29.8768 16.6458C26.6382 9.14498 23.6225 6.48968 18.3401 6.48968C12.009 6.48968 6.86017 12.5048 6.86017 19.8964C6.86017 23.2106 7.57033 26.0871 8.81314 28.737Z" fill="#099582"/>
</g>
<defs>
<clipPath id="clip0_18_1747">
<rect width="60" height="60" fill="white"/>
</clipPath>
</defs>
</svg>
