<svg width="60" height="60" viewBox="0 0 60 60" fill="none" xmlns="http://www.w3.org/2000/svg">
<path d="M28.5079 50.8547C26.2926 52.5779 23.527 53.5271 20.721 53.5271C17.8952 53.5271 15.451 51.7087 14.6387 49.0022C11.9797 40.143 10.6314 30.9611 10.6314 21.7115V19.9854C10.6314 19.5785 10.3016 19.2488 9.89491 19.2488C9.48817 19.2488 9.15839 19.5785 9.15839 19.9854V21.7115C9.15839 31.1046 10.5275 40.429 13.2277 49.4258C13.7149 51.0491 14.6914 52.442 16.0513 53.4536C17.4112 54.4653 19.0259 55 20.7209 55C23.8529 55 26.9395 53.9407 29.4122 52.0173C29.7333 51.7676 29.791 51.3048 29.5413 50.9838C29.2918 50.6627 28.8291 50.605 28.5079 50.8547Z" fill="#099582"/>
<path d="M9.95937 17.1519C10.0019 17.1593 10.0442 17.1628 10.086 17.1628C10.4376 17.1628 10.7487 16.9102 10.8108 16.552C11.823 10.7118 16.8672 6.47295 22.8048 6.47295H37.5435C38.5078 6.47295 39.4675 6.58594 40.3959 6.80879C40.791 6.90352 41.189 6.66006 41.284 6.26445C41.3789 5.86895 41.1352 5.47139 40.7397 5.37646C39.6988 5.12666 38.6235 5 37.5435 5H22.8048C19.5706 5 16.4341 6.15176 13.9729 8.24316C11.5402 10.3104 9.90175 13.1719 9.35956 16.3004C9.29003 16.7013 9.55859 17.0824 9.95937 17.1519Z" fill="#099582"/>
<path d="M25.824 23.1836C26.2308 23.1836 26.5605 22.8539 26.5605 22.4471V19.5855H27.9647C28.3715 19.5855 28.7013 19.2558 28.7013 18.8489C28.7013 18.4421 28.3715 18.1124 27.9647 18.1124H24.7168C23.9478 18.1124 23.2222 17.7387 22.7757 17.1127L21.8769 15.8528C21.6406 15.5215 21.1808 15.4445 20.8496 15.6809C20.5184 15.9171 20.4415 16.377 20.6777 16.7081L21.5766 17.9681C22.299 18.9808 23.4729 19.5854 24.7169 19.5854H25.0877V22.447C25.0875 22.8539 25.4173 23.1836 25.824 23.1836Z" fill="#099582"/>
<path d="M25.3149 14.2353C25.7217 14.2353 26.0515 13.9056 26.0515 13.4987V9.07979C26.0515 8.67295 25.7217 8.34326 25.3149 8.34326C24.9082 8.34326 24.5784 8.67295 24.5784 9.07979V10.0339H24.036C22.8935 10.0339 21.8194 10.4787 21.0116 11.2867L20.1353 12.163C19.8477 12.4506 19.8477 12.9169 20.1353 13.2045C20.3656 13.4169 20.7945 13.5385 21.1769 13.2044L22.0531 12.3282C22.5828 11.7985 23.287 11.5068 24.036 11.5068H24.5784V13.4987C24.5784 13.9056 24.9082 14.2353 25.3149 14.2353Z" fill="#099582"/>
<path d="M41.7048 39.147C43.0018 39.147 44.0569 38.0918 44.0569 36.7948V35.7712C45.9361 35.7066 47.6938 34.9462 49.03 33.61L51.6257 31.0144C51.9133 30.7267 51.9133 30.2605 51.6257 29.9728C51.3382 29.6853 50.8718 29.6853 50.5842 29.9728L47.9885 32.5684C46.9134 33.6435 45.4979 34.253 43.9852 34.3C43.7272 33.2811 42.8028 32.5247 41.7048 32.5247H41.3417C42.1398 31.8628 42.9912 31.2654 43.8881 30.7431L44.4116 30.4381C48.5926 28.0029 51.1898 23.4846 51.1898 18.6462C51.1898 13.7376 48.5338 9.18448 44.2581 6.76358C43.9041 6.56309 43.4547 6.6875 43.2544 7.04161C43.054 7.39561 43.1784 7.84493 43.5324 8.04532C47.3472 10.2053 49.7169 14.2673 49.7169 18.6462C49.7169 22.9623 47.4 26.993 43.6703 29.1652L43.1468 29.4702C41.6914 30.318 40.3444 31.3457 39.1425 32.5247H31.4316V32.3528H31.4456C33.893 32.3528 35.8841 30.3618 35.8841 27.9145V27.6772C36.7206 27.5625 37.6427 28.228 37.6441 29.17V29.9716C37.6441 30.3784 37.9739 30.7081 38.3807 30.7081C38.7874 30.7081 39.1172 30.3784 39.1172 29.9716V29.1699C39.1172 27.5346 37.7867 26.2041 36.1514 26.2041H35.8842V19.9659C36.2877 20.0862 36.6831 20.2624 37.0567 20.4942C37.679 20.8804 38.3633 21.1459 39.0758 21.2809C39.1712 21.352 39.4677 21.4004 39.7376 21.3844V22.447C39.7376 22.8538 40.0674 23.1835 40.4741 23.1835C40.8809 23.1835 41.2106 22.8538 41.2106 22.447V17.7116L42.8491 16.0732C43.5657 15.3565 44.5187 14.9618 45.5323 14.9618H46.8598C47.2665 14.9618 47.5963 14.6321 47.5963 14.2253C47.5963 13.8185 47.2665 13.4888 46.8598 13.4888H45.5323C44.1252 13.4888 42.8023 14.0367 41.8075 15.0316L41.2106 15.6285V10.4056C41.2106 9.99873 40.8809 9.66905 40.4741 9.66905C40.0674 9.66905 39.7376 9.99873 39.7376 10.4056V13.489H38.3807C37.9739 13.489 37.6441 13.8187 37.6441 14.2255C37.6441 14.6323 37.9739 14.962 38.3807 14.962H39.7376V19.8871C39.0637 19.82 38.4125 19.6024 37.8335 19.2431C37.2209 18.8628 36.5597 18.5929 35.8842 18.4438V14.714C35.8842 14.3071 35.5544 13.9774 35.1477 13.9774C34.7409 13.9774 34.4111 14.3071 34.4111 14.714V18.2891L33.3599 18.2374C32.9546 18.2185 32.6081 18.5306 32.5881 18.9369C32.5682 19.3433 32.8813 19.6888 33.2876 19.7087L34.4111 19.7639V26.2042H34.0329C33.2408 26.2042 32.496 26.5127 31.9357 27.0729L31.4317 27.5769V27.458C31.4317 25.8727 30.142 24.5829 28.5566 24.5829H27.9647C27.558 24.5829 27.2282 24.9126 27.2282 25.3194C27.2282 25.7263 27.558 26.056 27.9647 26.056H28.5566C29.3298 26.056 29.9588 26.685 29.9588 27.4581V30.88H26.7827C26.1625 29.5751 24.8318 28.6705 23.2935 28.6705H21.4938C20.9301 28.6705 20.3825 28.4701 19.9521 28.1063L15.3696 24.2328C15.0588 23.9701 14.5942 24.0092 14.3316 24.3198C14.069 24.6305 14.1081 25.0951 14.4187 25.3577L16.5931 27.1957L14.9546 28.8342C14.667 29.1219 14.667 29.5881 14.9546 29.8758C15.1849 30.0882 15.6138 30.2097 15.9961 29.8758L17.722 28.1499L19.001 29.2311C19.697 29.8193 20.5822 30.1435 21.4936 30.1435H23.2933C24.6102 30.1435 25.6814 31.2148 25.6814 32.5315C25.6814 33.1694 25.433 33.7692 24.9819 34.2202L22.0675 37.1347C21.7799 37.4224 21.7799 37.8886 22.0675 38.1763C22.2978 38.3887 22.7267 38.5102 23.109 38.1763L26.0234 35.2618C26.7527 34.5326 27.1544 33.5629 27.1544 32.5315C27.1544 32.4717 27.1525 32.4121 27.1499 32.3529H29.9586V36.7386C29.9586 36.7622 29.9598 36.7856 29.9604 36.8093H27.9646C27.5578 36.8093 27.228 37.139 27.228 37.5458C27.228 37.9526 27.5578 38.2823 27.9646 38.2823H30.394C30.514 38.4769 30.6569 38.6591 30.8227 38.8248L32.3331 40.3353C32.5634 40.5477 32.9923 40.6691 33.3746 40.3353C33.6622 40.0476 33.6622 39.5813 33.3746 39.2937L33.2281 39.1472H34.6425C34.3945 39.736 34.1732 40.3375 33.9824 40.9448L33.9688 40.9884H28.5133C27.9189 40.9884 27.3387 41.078 26.7868 41.2494L24.8311 39.2937C24.5435 39.0062 24.0771 39.0062 23.7896 39.2937C23.502 39.5813 23.502 40.0476 23.7896 40.3353L25.3691 41.9148C25.0291 42.1355 24.7091 42.3923 24.4156 42.6856L23.5178 43.5835C23.2302 43.8712 23.2302 44.3374 23.5178 44.6251C23.8054 44.9126 24.2717 44.9126 24.5593 44.6251L25.4571 43.7272C26.2734 42.9108 27.3588 42.4613 28.5133 42.4613H33.506L32.819 44.6474C32.3836 46.0332 31.721 47.3221 30.8496 48.4778C30.6048 48.8026 30.6696 49.2645 30.9944 49.5093C31.2005 49.6707 31.6861 49.7557 32.0259 49.3645C32.9986 48.0739 33.7383 46.6355 34.2243 45.0888L35.05 42.4612H43.5674C45.1507 42.4612 46.6393 43.0778 47.7589 44.1975L48.9433 45.3818C49.1735 45.5942 49.6024 45.7157 49.9848 45.3818C50.2724 45.0941 50.2724 44.6279 49.9848 44.3402L48.8004 43.1559C47.4025 41.7581 45.544 40.9883 43.5674 40.9883H35.5184C35.7303 40.363 35.9756 39.7462 36.2516 39.1471L41.7048 39.147ZM31.4317 29.6601C32.0701 29.1355 33.0554 27.6422 34.0329 27.6772H34.4111V27.9145C34.4111 29.5496 33.0809 30.8799 31.4457 30.8799H31.4317V29.6601ZM41.7048 33.9977C42.1896 33.9977 42.584 34.3921 42.584 34.8769V36.7948C42.584 37.2796 42.1896 37.674 41.7048 37.674H31.7655C31.5493 37.4107 31.4317 37.0837 31.4317 36.7386V33.9978H41.7048V33.9977Z" fill="#099582"/>
</svg>
