<svg width="60" height="60" viewBox="0 0 60 60" fill="none" xmlns="http://www.w3.org/2000/svg">
<path d="M46.9205 49.0168H35.8632C35.7869 47.6133 35.4519 45.695 34.8952 43.8392C37.6715 42.8605 40.1155 40.999 41.758 38.4943C41.9334 38.2266 41.8587 37.8674 41.5911 37.6919C41.3239 37.5166 40.9647 37.5917 40.7888 37.8588C39.2911 40.1431 37.0652 41.8424 34.5344 42.7394C34.2689 41.9937 33.968 41.2786 33.633 40.6359C41.3488 38.0455 42.9988 27.8472 36.4194 22.9752C36.8952 22.3598 37.2136 21.6186 37.3141 20.8091C41.4258 23.5763 43.446 28.3853 42.6635 33.0338C42.6106 33.3493 42.8233 33.648 43.1391 33.7012C43.4547 33.7549 43.7536 33.5415 43.8066 33.2257C44.6835 28.0068 42.3183 22.3046 37.2621 19.3652C37.0554 18.3525 36.5036 17.4637 35.7354 16.8275L36.409 15.8792C37.0045 15.0407 36.8067 13.8741 35.9683 13.2788L35.5413 12.9755L37.6539 10.0008C38.1468 9.30689 37.9831 8.34127 37.2892 7.84859L35.4313 6.52907C34.7378 6.03653 33.7718 6.19978 33.2794 6.89396L31.1667 9.86854L30.7395 9.56512C29.9014 8.96981 28.7348 9.16728 28.1391 10.0058L21.8996 18.7913C21.3973 19.4987 21.4655 20.4361 22.0007 21.0705L20.6489 22.9739C19.7137 24.2908 20.0219 26.1137 21.3395 27.049L22.5573 27.9138C23.8775 28.8516 25.6989 28.538 26.6321 27.2232L27.9831 25.3212C28.8273 25.6445 29.7028 25.3215 30.1695 24.6646L30.5965 24.0633C31.2696 24.4721 32.0561 24.712 32.8995 24.712C33.9096 24.712 34.8392 24.3698 35.587 23.8005C41.6402 28.1001 40.1253 37.4419 33.0173 39.6017C32.2734 38.5129 31.4042 37.8026 30.4299 37.8026C29.4557 37.8026 28.5865 38.5139 27.8429 39.604C26.2621 39.1216 24.8354 38.2071 23.7292 36.9443C25.677 36.6213 27.2045 35.0494 27.4588 33.0795H28.1348C28.4548 33.0795 28.7143 32.8202 28.7143 32.5001C28.7143 32.1799 28.4549 31.9206 28.1348 31.9206C22.6323 31.9206 18.5836 31.9206 13.0797 31.9206C12.7597 31.9206 12.5003 32.1799 12.5003 32.5001C12.5003 32.8202 12.7596 33.0795 13.0797 33.0795H13.7557C14.0414 35.2932 15.934 37.0103 18.2243 37.0103H18.2631C19.8525 40.2574 22.6537 42.6816 25.9655 43.8466C25.4107 45.7001 25.0765 47.6151 25.0004 49.0166H13.9431C13.6232 49.0166 13.3637 49.276 13.3637 49.5961C13.3637 51.8893 15.2293 53.7549 17.5223 53.7549H43.3415C45.6347 53.7549 47.5003 51.8893 47.5003 49.5961C47.4998 49.2761 47.2405 49.0168 46.9205 49.0168ZM34.2237 7.56491C34.3466 7.39206 34.5872 7.35188 34.7601 7.47397L36.618 8.79349C36.7909 8.91642 36.8316 9.15699 36.7088 9.33011L34.5963 12.3046L32.1112 10.5396L34.2237 7.56491ZM25.6872 26.5526C25.1216 27.3492 24.0195 27.5318 23.2279 26.9692L22.01 26.1044C21.2154 25.5397 21.0287 24.4403 21.5934 23.645L22.9075 21.7947L27.0013 24.7021L25.6872 26.5526ZM28.2398 24.1606C26.4205 22.8685 24.813 21.7268 23.0111 20.4469C22.6935 20.2215 22.6188 19.7797 22.8441 19.4621L29.0836 10.6769C29.3087 10.36 29.75 10.284 30.0684 10.5099C32.4737 12.2182 28.4781 9.38073 35.2974 14.2236C35.6147 14.449 35.6897 14.8908 35.4643 15.2084L34.7507 16.2129C34.1862 15.9534 33.5606 15.8046 32.8995 15.8046C30.4432 15.8046 28.4446 17.8021 28.4446 20.2573C28.4446 21.4529 28.9206 22.5377 29.6899 23.3386L29.2247 23.9935C28.9992 24.3114 28.5574 24.3859 28.2398 24.1606ZM32.8993 23.5535C31.0819 23.5535 29.6033 22.0749 29.6033 20.2574C29.6033 18.441 31.0819 16.9635 32.8993 16.9635C34.7157 16.9635 36.1932 18.441 36.1932 20.2574C36.1931 22.0748 34.7156 23.5535 32.8993 23.5535ZM30.4298 38.9617C32.4118 38.9617 34.5024 45.2041 34.7061 49.0166H26.157C26.3606 45.2041 28.4493 38.9617 30.4298 38.9617ZM14.9228 33.0796H26.2914C26.0163 34.6524 24.6406 35.8515 22.9902 35.8515C22.8816 35.8515 18.1012 35.8515 18.2242 35.8515C16.5735 35.8516 15.198 34.6525 14.9228 33.0796ZM19.5623 37.0104H22.289C23.5389 38.7225 25.2755 39.9704 27.2326 40.6283C26.8945 41.2764 26.591 41.9984 26.3237 42.7513C23.4791 41.7448 21.0467 39.7201 19.5623 37.0104ZM43.341 52.5963H17.5219C16.066 52.5963 14.8489 51.5536 14.5782 50.1757H46.2849C46.0143 51.5535 44.7971 52.5963 43.341 52.5963Z" fill="#099582"/>
<path d="M30.4316 45.8973C31.7169 45.8973 32.7628 44.8514 32.7628 43.5661C32.7628 42.2805 31.7169 41.2347 30.4316 41.2347C29.146 41.2347 28.1002 42.2805 28.1002 43.5661C28.1002 44.8514 29.146 45.8973 30.4316 45.8973ZM30.4316 42.3934C31.078 42.3934 31.604 42.9195 31.604 43.5661C31.604 44.2125 31.078 44.7385 30.4316 44.7385C29.785 44.7385 29.2589 44.2125 29.2589 43.5661C29.2589 42.9194 29.785 42.3934 30.4316 42.3934Z" fill="#099582"/>
</svg>
