<svg width="60" height="60" viewBox="0 0 60 60" fill="none" xmlns="http://www.w3.org/2000/svg">
<path d="M13.8035 48.0139L16.3759 47.4535C17.5459 47.1984 18.0805 45.8007 17.3849 44.8039C16.9552 43.9892 14.5424 42.0471 16.2239 40.3069C16.8572 39.6516 17.8476 39.5291 18.6329 40.0097C22.5607 42.4124 26.4513 43.4656 30.1995 43.1405C30.462 43.1179 30.6563 42.8864 30.6335 42.6239C30.6109 42.3613 30.3772 42.1659 30.117 42.1899C26.5778 42.4967 22.8812 41.4901 19.1309 39.1956C17.962 38.4799 16.4843 38.6644 15.5377 39.6437C13.633 41.615 15.1886 43.4295 16.5908 45.3341C16.91 45.7682 16.6904 46.4084 16.1727 46.5211L13.6003 47.0815C13.3499 47.1362 13.0941 47.0504 12.9318 46.8578C11.0083 44.5816 10.5763 41.463 11.8043 38.7194C12.9936 36.062 15.4786 34.3627 18.2896 34.2852L18.4333 34.2822C26.8675 34.1444 31.519 24.8654 25.6838 18.9679C24.4242 17.6949 23.425 15.7205 22.6295 12.932C22.4777 12.4004 22.7665 11.8319 23.2732 11.6649L24.7653 11.173C25.3796 10.9705 26.0233 11.4326 26.0351 12.1084C26.0638 13.738 26.4875 15.0594 27.2943 16.036C28.1893 17.1194 29.7995 17.0903 30.7594 16.095C34.5609 12.153 46.0182 14.1136 45.0518 25.7105C44.5035 32.2891 40.1784 38.6024 34.5343 41.0635C34.2928 41.1688 34.1823 41.45 34.2877 41.6916C34.3928 41.9329 34.6736 42.0435 34.9159 41.9382C40.8676 39.3431 45.4266 32.7028 46.0029 25.7898C47.0361 13.3941 34.5614 10.7775 30.0727 15.4327C29.4992 16.0273 28.5531 16.061 28.0301 15.428C27.355 14.6109 27.0146 13.5196 26.9897 12.0916C26.9662 10.7588 25.6779 9.86834 24.4668 10.2666L22.9744 10.7585C21.9712 11.0893 21.4168 12.159 21.712 13.194C22.5528 16.1407 23.63 18.249 25.0055 19.6393C30.2448 24.9341 26.0209 33.2037 18.4183 33.328L18.2632 33.3315C15.0825 33.4194 12.2738 35.3344 10.9335 38.3296C9.55436 41.4111 10.0409 44.9148 12.203 47.4737C12.5956 47.9387 13.2099 48.143 13.8035 48.0139Z" fill="#099582"/>
<path d="M40.046 34.4277C41.4924 32.3729 42.5564 30.0694 43.1226 27.7661C43.5872 25.8766 42.1315 24.0441 40.1692 24.0441H32.7403C31.2373 24.0441 29.9742 25.145 29.7373 26.6618C29.2402 29.8434 27.1377 32.7304 24.1133 34.385C23.1155 34.9309 22.4959 35.9581 22.4959 37.0661C22.4959 38.4093 23.4064 39.6107 24.71 39.988C24.86 40.0314 25.0099 40.0723 25.1601 40.1111C30.7376 41.5488 36.6939 39.189 40.046 34.4277ZM25.3984 39.1871C25.2575 39.1506 25.1162 39.1121 24.9753 39.0712C24.0773 38.8114 23.4502 37.9868 23.4502 37.0661C23.4502 36.307 23.8797 35.6007 24.5713 35.2223C27.854 33.4264 30.1377 30.2813 30.6801 26.809C30.8441 25.7599 31.7106 24.9984 32.7405 24.9984H40.1693C41.5143 24.9984 42.5121 26.2525 42.1961 27.5383C41.6578 29.7272 40.6448 31.9197 39.2658 33.8784C36.0993 38.3757 30.5264 40.5088 25.3984 39.1871Z" fill="#099582"/>
<path d="M41.4858 47.7762C41.2222 47.7762 41.0087 47.9897 41.0087 48.2533C41.0087 48.517 41.2222 48.7305 41.4858 48.7305C46.2683 48.7305 50.159 44.8395 50.159 40.057C50.159 39.7934 49.9455 39.5799 49.6819 39.5799C49.4182 39.5799 49.2047 39.7934 49.2047 40.057C49.2047 44.3135 45.7421 47.7762 41.4858 47.7762Z" fill="#099582"/>
<path d="M41.4858 45.2517C44.3501 45.2517 46.6803 42.9214 46.6803 40.0572C46.6803 39.7935 46.4668 39.58 46.2032 39.58C45.9395 39.58 45.726 39.7935 45.726 40.0572C45.726 42.3952 43.8238 44.2974 41.4858 44.2974C41.2222 44.2974 41.0087 44.5109 41.0087 44.7745C41.0087 45.0382 41.2223 45.2517 41.4858 45.2517Z" fill="#099582"/>
<path d="M41.4858 41.7727C42.4318 41.7727 43.2015 41.003 43.2015 40.0572C43.2015 39.7935 42.988 39.58 42.7243 39.58C42.4607 39.58 42.2472 39.7935 42.2472 40.0572C42.2472 40.4768 41.9057 40.8184 41.4858 40.8184C41.2222 40.8184 41.0087 41.0319 41.0087 41.2956C41.0087 41.5592 41.2223 41.7727 41.4858 41.7727Z" fill="#099582"/>
</svg>
