<svg width="60" height="60" viewBox="0 0 60 60" fill="none" xmlns="http://www.w3.org/2000/svg">
<path d="M51.4498 11.0114C50.1648 9.34463 48.6082 8.11982 46.9481 7.46924C45.0394 6.72119 43.0756 6.73076 41.1112 7.49756C41.1067 7.49932 41.1022 7.50107 41.0978 7.50293C37.7636 8.88662 36.371 12.4547 37.5501 16.593L37.5531 16.6032C37.6838 17.0359 37.7988 17.4681 37.8986 17.8944C36.6406 18.4588 35.5472 19.1877 34.6244 20.0814C32.341 22.2931 31.1833 25.4489 31.1833 29.4616V36.6509C31.1833 37.1303 30.829 37.465 30.3204 37.465H30.3189C30.0991 37.465 29.8941 37.3813 29.7417 37.2291C29.589 37.0766 29.5048 36.8712 29.5048 36.6509V29.4616C29.5048 25.449 28.3471 22.2931 26.0637 20.0814C25.2104 19.2551 24.2107 18.57 23.0706 18.0251C23.1771 17.5561 23.3026 17.08 23.4466 16.6032L23.4496 16.593C24.6287 12.4547 23.2361 8.88662 19.9019 7.50293C19.8975 7.50107 19.893 7.49932 19.8885 7.49756C17.9241 6.73066 15.9603 6.72119 14.0516 7.46924C12.3915 8.11982 10.835 9.34463 9.55 11.0114C6.97168 14.3562 5.86914 19.3183 6.67285 23.9612C7.36172 27.9403 9.34199 31.1605 12.2489 33.0287C13.8661 34.068 15.6206 34.5818 17.2529 34.5818C19.1105 34.5818 20.8099 33.916 21.9667 32.6015C23.0436 31.3776 24.1321 29.2145 23.2016 25.8589C23.2006 25.8552 23.1995 25.8516 23.1984 25.8479C23.1113 25.5531 23.0359 25.2533 22.9684 24.9515C24.6355 25.8882 25.5791 27.5562 25.5791 29.6113V37.1595C25.5791 37.8629 25.2202 38.4506 24.5943 38.772C22.1663 40.0188 20.7736 41.9392 20.7736 44.0403C20.7736 45.3557 21.3275 46.6213 22.3754 47.7005C23.3513 48.7056 24.7131 49.5046 26.3136 50.0111C27.0401 50.2411 27.5097 50.8821 27.5097 51.6441V53.9259C27.5097 54.3034 27.8157 54.6095 28.1933 54.6095H32.4953C32.8729 54.6095 33.1789 54.3034 33.1789 53.9259V51.6441C33.1789 50.8821 33.6484 50.2411 34.375 50.0111C35.9755 49.5045 37.3372 48.7056 38.3132 47.7005C39.361 46.6213 39.9149 45.3557 39.9149 44.0403C39.9149 41.9392 38.5224 40.0189 36.0941 38.772C35.4684 38.4507 35.1095 37.8629 35.1095 37.1595V29.6113C35.1095 27.4152 36.1869 25.6612 38.0733 24.7691C37.997 25.1333 37.9063 25.4937 37.8018 25.8479C37.8007 25.8516 37.7997 25.8552 37.7986 25.8589C36.868 29.2145 37.9564 31.3776 39.0334 32.6015C40.1903 33.9161 41.8893 34.5819 43.7472 34.5818C45.3793 34.5818 47.1342 34.0679 48.7511 33.0287C51.658 31.1605 53.6383 27.9403 54.3271 23.9612C55.1309 19.3183 54.0283 14.3562 51.4498 11.0114ZM52.98 23.728C52.3572 27.3254 50.5929 30.22 48.0119 31.8786C45.1274 33.7324 41.7831 33.6566 40.0597 31.6982C38.8185 30.2878 38.5005 28.4479 39.1145 26.2293C39.3005 25.5989 39.4456 24.9508 39.549 24.2968C39.8758 24.2368 40.2049 24.2023 40.5314 24.1963C40.8479 25.5999 41.349 27.6765 43.9448 28.7369C44.2944 28.8797 44.6934 28.7121 44.8361 28.3626C44.9789 28.0131 44.8113 27.6141 44.4618 27.4713C42.7391 26.7675 42.2624 25.5323 41.9704 24.3473C42.7934 24.5413 43.5452 24.9187 44.1311 25.4671C44.4066 25.725 44.8392 25.7108 45.0973 25.4352C45.3553 25.1596 45.341 24.727 45.0653 24.4689C44.4431 23.8864 43.6942 23.4531 42.8768 23.1772C43.8532 22.8108 45.1053 22.7328 46.5417 22.9626C46.9143 23.0216 47.265 22.7684 47.3247 22.3955C47.3843 22.0228 47.1305 21.6722 46.7576 21.6125C44.26 21.2131 42.1711 21.6423 40.8282 22.8216C39.7857 22.7979 38.7133 22.9977 37.703 23.4358C35.1858 24.5274 33.7421 26.7783 33.7421 29.6112V37.1594C33.7421 38.3752 34.3879 39.4327 35.4694 39.988C37.4256 40.9926 38.5476 42.4695 38.5476 44.0401C38.5476 45.9938 36.7478 47.8259 33.9623 48.7075C32.6559 49.121 31.8116 50.2736 31.8116 51.6439V53.2421H28.8768V51.6439C28.8768 50.2736 28.0325 49.1211 26.7261 48.7075C23.9406 47.8259 22.1407 45.9938 22.1407 44.0401C22.1407 42.4695 23.2626 40.9925 25.2187 39.988C26.3004 39.4326 26.9462 38.3752 26.9462 37.1594V29.6112C26.9462 26.7783 25.5024 24.5274 22.9853 23.4358C21.9749 22.9977 20.9028 22.7979 19.8601 22.8216C18.5172 21.6422 16.4284 21.2131 13.9307 21.6125C13.5579 21.6721 13.304 22.0227 13.3636 22.3955C13.4231 22.7684 13.7739 23.0218 14.1466 22.9626C15.5831 22.7327 16.8351 22.8107 17.8115 23.1773C16.994 23.4532 16.2452 23.8865 15.6229 24.469C15.3474 24.7271 15.3331 25.1597 15.591 25.4353C15.849 25.7108 16.2815 25.7252 16.5572 25.4672C17.1336 24.9276 17.8702 24.5536 18.6776 24.3569C18.3412 25.6478 17.974 26.7574 16.2265 27.4713C15.877 27.6141 15.7094 28.0131 15.8521 28.3626C15.9949 28.7121 16.3941 28.8797 16.7435 28.7369C19.2231 27.7239 19.6855 25.9269 20.0571 24.4828C20.0822 24.3853 20.1068 24.2897 20.1315 24.1959C20.5741 24.2023 21.0215 24.2594 21.4617 24.3652C21.5644 24.9956 21.7059 25.6209 21.8853 26.2295C22.4993 28.4479 22.1812 30.288 20.9401 31.6982C19.2169 33.6565 15.8725 33.7324 12.9879 31.8786C10.4069 30.22 8.64258 27.3254 8.01982 23.728C7.27929 19.4502 8.28047 14.8974 10.6328 11.8462C11.7894 10.346 14.9562 7.04424 19.3846 8.76846C21.4908 9.646 23.3174 12.061 22.1361 16.2135C22.0069 16.6417 21.893 17.0694 21.7918 17.4935C21.3781 17.3456 20.9495 17.2129 20.5048 17.0966C19.2899 15.0702 17.7926 13.9363 15.9345 13.633C15.5619 13.5723 15.2105 13.8249 15.1497 14.1976C15.0889 14.5701 15.3417 14.9215 15.7143 14.9823C16.7951 15.1587 17.7341 15.7249 18.5573 16.7024C17.1682 16.4964 15.6548 16.4189 14.0211 16.4712C13.6437 16.4832 13.3477 16.7989 13.3598 17.1763C13.3718 17.5536 13.6861 17.85 14.0648 17.8376C15.7225 17.7846 17.2404 17.8706 18.6167 18.0946C17.6172 18.8858 15.9603 19.6754 12.1049 19.7258C11.7273 19.7308 11.4254 20.0408 11.4303 20.4183C11.4352 20.7958 11.7444 21.1016 12.1228 21.0929C17.5631 21.0218 19.2007 19.4874 20.2668 18.4475C22.2437 18.9808 23.8643 19.8542 25.1127 21.0634C27.12 23.0076 28.1378 25.8331 28.1378 29.4615V36.6508C28.1378 37.2367 28.3645 37.7857 28.776 38.1966C29.1866 38.6065 29.7345 38.8322 30.318 38.8322H30.3218C31.5716 38.8322 32.5507 37.874 32.5507 36.6509V29.4616C32.5507 25.8333 33.5685 23.0078 35.5758 21.0635C36.8244 19.8542 38.4444 18.9808 40.4216 18.4475C41.4877 19.4874 43.1253 21.0219 48.5657 21.0929C48.9418 21.0984 49.2532 20.7958 49.2582 20.4183C49.2631 20.0408 48.9611 19.7308 48.5836 19.7258C44.7282 19.6754 43.0712 18.8857 42.0717 18.0946C43.4478 17.8707 44.9664 17.785 46.6236 17.8376C47.0012 17.849 47.3167 17.5535 47.3287 17.1763C47.3408 16.7989 47.0446 16.4832 46.6674 16.4712C45.0334 16.4187 43.5204 16.4964 42.1311 16.7024C42.9543 15.7249 43.8933 15.1586 44.9742 14.9822C45.3468 14.9214 45.5996 14.57 45.5388 14.1975C45.4779 13.8249 45.1267 13.5724 44.754 13.6329C42.8959 13.9361 41.3984 15.0702 40.1837 17.0966C39.8411 17.1861 39.5089 17.2863 39.1848 17.3946C39.0894 17.0031 38.9831 16.6083 38.864 16.2132C37.6831 12.0612 39.5094 9.6458 41.6155 8.76836C46.0437 7.04414 49.2108 10.3459 50.3674 11.8461C52.7196 14.8973 53.7209 19.4502 52.9803 23.7279L52.98 23.728ZM31.7265 9.87354V6.07422C31.7265 5.69668 32.0325 5.39062 32.4101 5.39062C32.7876 5.39062 33.0936 5.69668 33.0936 6.07422V9.87354C33.0936 12.8268 34.0496 15.0064 35.9351 16.3521C36.2424 16.5715 36.3137 16.9983 36.0943 17.3057C35.9609 17.4926 35.7507 17.5922 35.5374 17.5922C35.4 17.5922 35.2612 17.5509 35.1408 17.4649C32.8752 15.8479 31.7265 13.2938 31.7265 9.87354ZM24.5941 17.3057C24.3748 16.9984 24.4461 16.5715 24.7534 16.3521C26.6389 15.0064 27.5948 12.8267 27.5948 9.87354V6.07422C27.5948 5.69668 27.9009 5.39062 28.2784 5.39062C28.656 5.39062 28.962 5.69668 28.962 6.07422V9.87354C28.962 13.2937 27.8133 15.8479 25.5477 17.4649C25.4273 17.5509 25.2886 17.5922 25.1511 17.5922C24.9377 17.5922 24.7275 17.4926 24.5941 17.3057Z" fill="#099582"/>
</svg>
