<svg width="60" height="60" viewBox="0 0 60 60" fill="none" xmlns="http://www.w3.org/2000/svg">
<path d="M35.034 35.7239C34.782 35.5079 34.506 35.3039 34.23 35.0999C38.208 34.5779 40.524 32.1239 43.614 29.6579C43.884 29.4479 43.914 29.0159 43.668 28.7759C39.99 24.9959 37.224 21.5519 37.806 14.5919C37.644 -0.864134 11.586 -0.864134 11.466 14.6399C11.958 20.5739 9.132 24.3539 6.132 28.3559C5.868 28.7639 5.004 29.5259 5.706 29.9819C8.97 32.1419 10.494 34.4339 15.042 35.1059C14.766 35.3099 14.496 35.5139 14.238 35.7299C7.614 37.7339 3 43.8839 3 50.7179V55.2239C3 56.2019 3.81 56.9999 4.8 56.9999H44.478C45.468 56.9999 46.278 56.2019 46.278 55.2239V50.7179C46.278 43.8839 41.658 37.7339 35.034 35.7239ZM29.238 44.0399C30.12 44.7539 31.182 45.1439 32.316 45.1319C31.638 48.9959 29.772 52.5419 27.57 55.7579L26.904 55.6799C27.99 49.5119 27.96 43.0379 26.802 36.4259C26.802 35.9339 26.802 34.8059 26.802 34.3019C27.75 34.0559 28.656 33.6719 29.478 33.1499C30.618 33.9659 31.314 35.1359 31.404 36.5699L32.076 40.9499C31.722 41.9579 30.888 42.6059 29.454 42.9959C28.998 43.1039 28.86 43.7579 29.238 44.0399ZM26.442 48.8639C26.328 51.1919 26.076 53.5079 25.656 55.7999H23.574C22.368 49.3199 22.524 42.6779 23.634 36.2099H25.602C26.202 40.4039 26.664 44.6219 26.442 48.8639ZM20.346 53.7179C18.738 51.0719 17.454 48.1859 16.914 45.1319C17.904 45.1199 20.118 44.6579 20.208 43.4519C20.16 43.2299 19.998 43.0559 19.776 42.9959C18.348 42.6119 17.508 41.9579 17.154 40.9499L17.832 36.5459C17.964 35.1479 18.624 33.9179 19.782 33.1439C20.598 33.6659 21.498 34.0499 22.434 34.2959V36.4259C21.228 42.6539 21.246 49.2779 22.332 55.6799L21.66 55.7579C21.204 55.0919 20.754 54.4139 20.346 53.7179ZM33.612 25.3619C33.27 29.6579 28.53 32.7599 26.226 33.2159C24.732 33.5099 21.84 33.1379 20.13 31.9439C19.386 31.4159 15.666 28.6139 15.666 25.3679V19.2719C17.286 17.3459 18.984 15.4079 21.606 15.1319C24.558 17.8919 28.59 19.5839 33.606 20.1779V25.3619H33.612ZM23.634 34.5179C24.288 34.5899 24.96 34.5959 25.602 34.5239V35.0159H23.634V34.5179ZM6.894 29.3339C9.978 25.2059 13.2 21.0719 12.666 14.5859C12.72 4.05587 26.268 1.75187 32.916 6.86387C40.602 13.2539 32.004 19.1939 42.354 29.1359C39.162 31.7759 36.678 34.1339 32.562 33.9779C32.154 33.7379 31.77 33.5159 31.386 33.3179C31.116 32.9879 30.816 32.6939 30.492 32.4119C35.646 28.2479 34.782 25.5359 34.806 19.6259C34.806 19.3199 34.572 19.0619 34.266 19.0319C29.082 18.5099 25.152 16.8899 22.242 14.0699C19.416 13.2599 15.528 17.0219 14.46 19.0439C14.556 25.0439 13.392 28.1699 18.756 32.3999C18.414 32.6819 18.102 32.9939 17.82 33.3359C17.442 33.5459 17.076 33.7619 16.71 33.9779C12.204 34.1039 10.008 31.5659 6.894 29.3339ZM4.8 55.7999C4.476 55.7999 4.2 55.5359 4.2 55.2239C3.816 47.6759 4.98 41.8919 12.054 37.9199C10.578 39.7859 9.858 41.8499 9.852 44.1599C7.032 45.1079 7.308 47.5859 7.788 49.9679C7.902 50.8439 9.246 50.2919 9.774 50.2859C10.104 50.2379 10.332 49.9379 10.284 49.6079C10.194 48.9059 9.36 49.1279 8.892 49.1999C8.532 47.4839 8.376 45.6479 10.548 45.2219C12.78 45.0479 13.128 46.8179 13.29 48.5759L12.546 48.6839C11.778 48.7799 11.946 49.9919 12.714 49.8719C13.224 49.7279 14.706 49.8899 14.562 49.0019C14.316 46.6079 13.938 44.2619 11.052 44.0099C10.986 40.5119 13.596 37.2959 16.848 35.3159C16.65 36.0119 16.092 40.1279 15.948 40.9199C16.098 42.1799 17.016 43.1099 18.222 43.7099C17.634 43.9379 16.998 43.9979 16.296 43.8959C15.918 43.8299 15.558 44.1839 15.612 44.5679C16.146 48.6359 18 52.4039 20.232 55.8119H4.8V55.7999ZM45.078 55.2239C45.078 55.5359 44.802 55.7999 44.478 55.7999H29.004C31.23 52.3919 33.09 48.6239 33.624 44.5559C33.684 44.1779 33.318 43.8179 32.94 43.8839C32.238 43.9859 31.602 43.9259 31.014 43.6979C32.22 43.0979 33.138 42.1679 33.288 40.9079C33.132 40.0559 32.586 36.0299 32.4 35.2799C35.862 37.3559 38.292 40.8179 37.968 44.7659C35.202 45.3179 35.622 49.4759 38.466 49.4579C41.184 49.4819 41.748 45.5819 39.162 44.8319C39.294 42.2159 38.586 39.8699 37.05 37.8299C41.88 40.2779 45.078 45.2579 45.078 50.7179V55.2239ZM38.448 45.9119C40.02 45.9119 40.05 48.2399 38.466 48.2579C36.9 48.2519 36.882 45.9419 38.448 45.9119Z" fill="#099582"/>
<path d="M50.2801 7.90174C45.9061 7.83574 42.5701 12.2157 43.8121 16.3857C43.7101 18.1917 42.8521 19.5417 40.9741 20.8857C40.7521 21.0477 40.6621 21.3357 40.7641 21.5937C41.2861 22.7757 46.5901 20.6217 46.8421 20.3157C51.1201 22.9977 57.1261 19.6437 57.0001 14.5797C57.0001 10.8957 53.9821 7.90174 50.2801 7.90174ZM50.2801 20.0517C49.1641 20.0517 48.0901 19.7217 47.1781 19.1037C46.9741 18.9657 46.7041 18.9657 46.5001 19.1037C45.6901 19.6557 44.6521 20.0877 43.3561 20.3997C44.7901 18.9597 45.2401 16.8117 44.7661 14.5797C44.9581 7.36174 55.6141 7.36174 55.8001 14.5797C55.8001 17.5917 53.3221 20.0517 50.2801 20.0517Z" fill="#099582"/>
<path d="M54.522 13.0618C54.348 12.7798 53.976 12.6958 53.694 12.8698L48.942 15.8518L46.746 13.6978C46.2 13.1458 45.342 14.0158 45.906 14.5498L48.438 17.0398C48.636 17.2378 48.942 17.2678 49.176 17.1178L54.33 13.8838C54.618 13.7098 54.702 13.3378 54.522 13.0618Z" fill="#099582"/>
</svg>
