<svg width="41" height="40" viewBox="0 0 41 40" fill="none" xmlns="http://www.w3.org/2000/svg">
<path d="M34.5996 25.9739H32.7376C28.9912 25.9739 25.9593 28.9987 25.989 32.7059C26.0031 34.4448 24.4977 35.7947 22.7821 35.7947H18.6218C16.9165 35.7947 15.5247 34.4572 15.4521 32.7874C16.6519 32.6379 17.5839 31.6241 17.5839 30.3971V28.5539H21.1203C22.1611 28.5539 23.0318 27.8209 23.2329 26.8492C23.2618 26.7102 23.2771 26.5662 23.2771 26.4188V8.76892C23.2771 8.50446 23.0604 8.29 22.793 8.29C22.5257 8.29 22.309 8.50435 22.309 8.76892V10.0835C18.0808 8.82857 15.5493 9.57769 13.1002 10.3072C10.7888 10.9965 8.59682 11.6425 5.01226 10.3949V5.39764C5.01226 4.74908 5.54545 4.22154 6.20107 4.22154H10.4214C10.6887 4.22154 10.9055 4.0072 10.9055 3.74262C10.9055 2.24047 12.1405 1.01864 13.6586 1.01864C15.1769 1.01864 16.4118 2.24059 16.4118 3.74262C16.4118 4.00708 16.6285 4.22154 16.8959 4.22154H21.12C21.7758 4.22154 22.3088 4.74908 22.3088 5.39764V5.96092C22.3088 6.22537 22.5255 6.43983 22.7929 6.43983C23.0602 6.43983 23.2769 6.22549 23.2769 5.96092V5.39764C23.2769 4.22097 22.3093 3.26382 21.12 3.26382H17.3487C17.1108 1.45928 15.5465 0.0609131 13.6589 0.0609131C11.7712 0.0609131 10.2068 1.45917 9.96906 3.26382H6.20131C5.01203 3.26382 4.04439 4.22097 4.04439 5.39764C4.04439 6.44535 4.0445 1.61685 4.04404 15.6049C4.04404 15.6069 4.04288 15.6085 4.04288 15.6104C4.04288 15.6124 4.04404 15.614 4.04404 15.616V19.8396C4.04404 19.8415 4.04288 19.8431 4.04288 19.8451C4.04288 19.847 4.04404 19.8486 4.04404 19.8506V26.4201C4.04404 27.5965 5.01133 28.5536 6.20049 28.5536H9.73685V30.3967C9.73685 31.6275 10.6744 32.6441 11.8796 32.7888C11.9546 36.407 14.9472 39.3291 18.6223 39.3291H22.8116C26.5588 39.3291 29.5906 36.3043 29.5609 32.5971C29.5469 30.8584 31.0515 29.5083 32.7675 29.5083H34.5995C35.5845 29.5083 36.3858 28.7155 36.3858 27.7411C36.386 26.7666 35.5847 25.9739 34.5996 25.9739ZM13.3798 11.2243C15.7428 10.52 18.1833 9.79215 22.3087 11.0821V26.4203C22.3087 26.5011 22.3004 26.5801 22.2846 26.6564C22.1732 27.1913 21.6935 27.5947 21.1203 27.5947H6.20131C5.54556 27.5947 5.01249 27.0671 5.01249 26.4186V24.5587H6.97344C7.24073 24.5587 7.45749 24.3443 7.45749 24.0797C7.45749 23.8153 7.24085 23.6008 6.97344 23.6008H5.01249V20.324H6.97344C7.24073 20.324 7.45749 20.1097 7.45749 19.8451C7.45749 19.5806 7.24085 19.3662 6.97344 19.3662H5.01249V16.0892H6.97344C7.24073 16.0892 7.45749 15.8749 7.45749 15.6103C7.45749 15.3459 7.24085 15.1314 6.97344 15.1314H5.01249V11.4105C8.71264 12.6151 11.0831 11.9086 13.3798 11.2243ZM10.7048 30.3969V28.5538H16.6158V30.3969C16.6158 31.1985 15.9567 31.8506 15.1463 31.8506H12.1742C11.3639 31.8506 10.7048 31.1986 10.7048 30.3969ZM34.5996 28.5507H32.7676C30.4934 28.5507 28.5751 30.351 28.5929 32.6049C28.6187 35.7797 26.0204 38.3714 22.8116 38.3714H18.6223C15.4877 38.3714 12.9337 35.8895 12.8486 32.8084H14.4852C14.5695 34.9967 16.39 36.7524 18.6219 36.7524H22.7822C25.0262 36.7524 26.9752 34.9794 26.9572 32.6982C26.9314 29.5244 29.5286 26.9316 32.7377 26.9316H34.5997C35.0508 26.9316 35.418 27.2949 35.418 27.7412C35.418 28.1876 35.0508 28.5507 34.5996 28.5507Z" fill="#099582"/>
<path d="M13.6597 25.6204C15.7534 25.6204 17.4566 23.9352 17.4566 21.8638C17.4566 19.921 14.3673 16.5661 14.0148 16.1899C13.9233 16.0921 13.7943 16.0365 13.6597 16.0365C13.5251 16.0365 13.3961 16.092 13.3046 16.1899C12.9522 16.5659 9.86163 19.921 9.86163 21.8638C9.86163 23.9352 11.5655 25.6204 13.6597 25.6204ZM13.6597 17.2327C14.6875 18.3979 16.4885 20.6849 16.4885 21.8639C16.4885 23.4072 15.2195 24.6627 13.6597 24.6627C12.0992 24.6627 10.8297 23.4072 10.8297 21.8639C10.8297 20.6863 12.6315 18.3985 13.6597 17.2327Z" fill="#099582"/>
</svg>
