<svg width="41" height="40" viewBox="0 0 41 40" fill="none" xmlns="http://www.w3.org/2000/svg">
<g clip-path="url(#clip0_18_1877)">
<path d="M35.8503 37.3868H25.6324C25.5618 36.1036 25.2523 34.3498 24.7379 32.6531C27.3034 31.7583 29.5618 30.0563 31.0797 27.7663C31.2417 27.5215 31.1727 27.1931 30.9255 27.0327C30.6785 26.8724 30.3466 26.941 30.184 27.1853C28.8001 29.2738 26.7431 30.8274 24.4044 31.6476C24.1591 30.9657 23.881 30.312 23.5715 29.7243C30.7015 27.356 32.2263 18.0318 26.1464 13.5774C26.586 13.0148 26.8803 12.3371 26.9732 11.5969C30.7727 14.127 32.6395 18.5238 31.9165 22.7738C31.8675 23.0623 32.0641 23.3354 32.3559 23.3841C32.6475 23.4331 32.9238 23.238 32.9727 22.9493C33.7831 18.1777 31.5974 12.9643 26.9251 10.2768C26.734 9.3509 26.2241 8.53835 25.5143 7.9567L26.1367 7.08961C26.687 6.32297 26.5043 5.2564 25.7295 4.71212L25.3349 4.43483L27.2871 1.71509C27.7426 1.08066 27.5914 0.197815 26.9502 -0.252637L25.2333 -1.45905C24.5924 -1.90938 23.6997 -1.76012 23.2447 -1.12544L21.2924 1.59418L20.8976 1.31676C20.1231 0.77248 19.0452 0.953018 18.4947 1.71966L12.7288 9.75215C12.2647 10.3989 12.3276 11.2559 12.8222 11.8359L11.5731 13.5762C10.7089 14.7802 10.9937 16.4469 12.2112 17.302L13.3366 18.0927C14.5566 18.9501 16.2397 18.6634 17.1021 17.4613L18.3505 15.7223C19.1306 16.0179 19.9396 15.7226 20.3709 15.122L20.7655 14.5722C21.3875 14.946 22.1143 15.1653 22.8936 15.1653C23.8271 15.1653 24.6861 14.8524 25.3772 14.3319C30.9708 18.2631 29.5709 26.8041 23.0025 28.7788C22.3151 27.7833 21.5119 27.1339 20.6116 27.1339C19.7113 27.1339 18.908 27.7842 18.2209 28.7808C16.7601 28.3398 15.4417 27.5037 14.4195 26.3492C16.2194 26.0538 17.631 24.6167 17.866 22.8156H18.4907C18.7864 22.8156 19.0261 22.5785 19.0261 22.2858C19.0261 21.9932 18.7865 21.7561 18.4907 21.7561C13.4059 21.7561 9.66457 21.7561 4.5785 21.7561C4.28281 21.7561 4.04303 21.9932 4.04303 22.2858C4.04303 22.5785 4.28269 22.8156 4.5785 22.8156H5.20314C5.46721 24.8395 7.21611 26.4095 9.33252 26.4095H9.36837C10.8371 29.3783 13.4257 31.5947 16.4861 32.6598C15.9733 34.3545 15.6645 36.1053 15.5943 37.3867H5.37636C5.08068 37.3867 4.84089 37.6238 4.84089 37.9165C4.84089 40.0131 6.56487 41.7188 8.68385 41.7188H32.5429C34.662 41.7188 36.386 40.0131 36.386 37.9165C36.3856 37.624 36.146 37.3868 35.8503 37.3868ZM24.1173 -0.511999C24.2309 -0.670032 24.4533 -0.706775 24.613 -0.595148L26.3299 0.611269C26.4896 0.72366 26.5273 0.943609 26.4138 1.1019L24.4616 3.82139L22.1652 2.20775L24.1173 -0.511999ZM16.2289 16.8481C15.7062 17.5765 14.6878 17.7434 13.9563 17.229L12.8308 16.4384C12.0966 15.9221 11.924 14.9169 12.4458 14.1898L13.6602 12.4981L17.4433 15.1563L16.2289 16.8481ZM18.5877 14.6612C16.9065 13.4798 15.421 12.436 13.7559 11.2659C13.4624 11.0598 13.3934 10.6558 13.6016 10.3655L19.3674 2.33323C19.5755 2.04348 19.9832 1.97407 20.2775 2.18054C22.5002 3.74244 18.8079 1.14818 25.1095 5.5759C25.4027 5.78199 25.472 6.18591 25.2637 6.4763L24.6044 7.39474C24.0827 7.1575 23.5045 7.02147 22.8936 7.02147C20.6238 7.02147 18.777 8.84768 18.777 11.0924C18.777 12.1856 19.2168 13.1774 19.9277 13.9097L19.4979 14.5084C19.2894 14.799 18.8812 14.8672 18.5877 14.6612ZM22.8935 14.1061C21.214 14.1061 19.8476 12.7543 19.8476 11.0926C19.8476 9.43188 21.214 8.08104 22.8935 8.08104C24.572 8.08104 25.9373 9.43188 25.9373 11.0926C25.9372 12.7541 24.5719 14.1061 22.8935 14.1061ZM20.6115 28.1936C22.443 28.1936 24.3749 33.901 24.5631 37.3867H16.663C16.8511 33.901 18.7813 28.1936 20.6115 28.1936ZM6.28165 22.8158H16.7873C16.533 24.2537 15.2617 25.35 13.7366 25.35C13.6363 25.35 9.2188 25.35 9.33239 25.35C7.80709 25.3501 6.53595 24.2538 6.28165 22.8158ZM10.569 26.4096H13.0886C14.2437 27.9749 15.8484 29.1159 17.657 29.7173C17.3446 30.3099 17.0641 30.97 16.8171 31.6584C14.1885 30.7381 11.9407 28.887 10.569 26.4096ZM32.5425 40.6595H8.68346C7.33806 40.6595 6.21342 39.7062 5.96322 38.4464H35.2629C35.0128 39.7061 33.8881 40.6595 32.5425 40.6595Z" fill="#099582"/>
<path d="M20.6134 34.5349C21.8011 34.5349 22.7676 33.5787 22.7676 32.4036C22.7676 31.2282 21.8011 30.272 20.6134 30.272C19.4254 30.272 18.459 31.2282 18.459 32.4036C18.459 33.5787 19.4254 34.5349 20.6134 34.5349ZM20.6134 31.3314C21.2107 31.3314 21.6968 31.8124 21.6968 32.4036C21.6968 32.9945 21.2107 33.4755 20.6134 33.4755C20.0159 33.4755 19.5298 32.9945 19.5298 32.4036C19.5298 31.8123 20.0159 31.3314 20.6134 31.3314Z" fill="#099582"/>
</g>
<defs>
<clipPath id="clip0_18_1877">
<rect width="40.4287" height="40" fill="white"/>
</clipPath>
</defs>
</svg>
