<svg width="60" height="60" viewBox="0 0 60 60" fill="none" xmlns="http://www.w3.org/2000/svg">
<path d="M44.6861 24.8626C44.4131 24.8437 44.1701 25.0465 44.1484 25.3219C43.8493 29.1107 42.0601 32.557 39.1109 35.0248C37.6196 36.2662 36.7246 38.0323 36.6552 39.8696L36.64 40.1627C36.3132 44.9132 32.481 48.7046 27.7158 48.9826C27.5248 48.9976 27.3337 49.001 27.1429 49.001C22.6314 49.001 18.7908 45.8373 17.8519 41.4608C17.6905 40.7057 18.2754 39.9931 19.051 39.9931C19.625 39.9931 20.1241 40.3934 20.2457 40.9724C20.9267 44.2071 23.9089 46.7522 27.5839 46.5404C31.0514 46.3382 33.9565 43.4619 34.1992 39.9681C34.2032 39.8971 34.207 39.829 34.2066 39.7765C34.305 37.2477 35.5196 34.8308 37.539 33.1453C40.4257 30.739 41.9516 27.1984 41.7259 23.4314C41.3792 17.6443 36.5736 12.8296 30.7855 12.4702C24.5038 12.0821 19.2348 16.6306 18.4394 22.5629C18.3547 23.1969 17.8432 23.6571 17.223 23.6571C16.4711 23.6571 15.9085 22.9792 16.0142 22.2529C16.9896 15.1225 23.2626 9.55651 30.9364 10.0282C37.1573 10.4114 42.4631 14.9213 43.8392 20.9956C43.9003 21.2648 44.1667 21.4335 44.4374 21.3728C44.7067 21.3117 44.8756 21.0439 44.8146 20.7746C43.3408 14.2701 37.6591 9.44058 30.9976 9.0303C22.8139 8.52235 16.0704 14.4631 15.0244 22.1115C14.8258 23.4369 15.867 24.6572 17.223 24.6572C18.332 24.6572 19.281 23.8138 19.4304 22.6957C20.1569 17.2779 24.9721 13.1145 30.7237 13.4683C36.0163 13.7968 40.4106 18.1995 40.7279 23.4911C40.9343 26.9377 39.5388 30.1765 36.8986 32.3775C34.662 34.2439 33.3167 36.9267 33.207 39.7571C33.207 39.8093 33.2039 39.8585 33.2002 39.9226C32.9933 42.9003 30.5008 45.3687 27.5254 45.542C24.3481 45.7293 21.8027 43.5137 21.2242 40.7666C21.0066 39.7294 20.1002 38.9931 19.051 38.9931C17.6405 38.9931 16.5796 40.2908 16.874 41.6701C17.9204 46.5461 22.1942 50.0011 27.143 50.0011C27.36 50.0011 27.5772 49.9966 27.7841 49.9803C33.0403 49.6735 37.2767 45.4825 37.6386 40.2169L37.6546 39.9081C37.7134 38.3533 38.4774 36.8534 39.7518 35.7925C42.9096 33.1501 44.825 29.4597 45.1453 25.4005C45.1669 25.1251 44.9615 24.8842 44.6861 24.8626Z" fill="#099582"/>
<path d="M27.5948 32.2311C27.5669 32.9279 27.4781 33.6106 27.3306 34.2602C27.2652 34.5491 26.9074 34.6534 26.6968 34.4432C26.1721 33.9182 25.4268 33.7047 24.703 33.8718C23.3532 34.184 22.647 35.6741 23.2596 36.8909C25.4633 41.2676 32.0647 39.9358 32.393 35.0483L32.3975 34.969C32.4517 33.8862 32.8922 32.9587 33.6375 32.3577C35.4404 30.904 36.4237 28.7409 36.335 26.4233C36.1943 22.7468 33.21 19.6904 29.5412 19.4649C25.9055 19.2402 22.6432 21.7619 21.9571 25.3283C21.7794 26.2516 22.2095 27.2279 23.027 27.7584C23.9868 28.3808 25.2658 28.2412 26.0682 27.4258L26.4871 27.0002C27.1447 26.3326 28.2419 26.4527 28.7459 27.2276C29.0892 27.7553 29.0558 28.4403 28.6625 28.9318C28.5004 29.2408 27.7008 29.6026 27.5948 32.2311ZM29.5842 26.6825C28.7275 25.3661 26.8746 25.1816 25.7748 26.2989L25.3559 26.7245C24.8848 27.2031 24.1348 27.2849 23.5714 26.9196C23.0917 26.6085 22.8378 26.0452 22.9393 25.5177C23.5306 22.4433 26.3371 20.2648 29.4802 20.4632C32.6425 20.6574 35.2145 23.2923 35.336 26.4618C35.4124 28.4607 34.5645 30.326 33.0101 31.5794C32.04 32.3618 31.4677 33.548 31.3989 34.921L31.3952 34.9866C31.1356 38.8523 25.9025 39.9154 24.153 36.4413C23.8306 35.8011 24.213 35.0119 24.9288 34.8461C25.3206 34.7558 25.7154 34.8756 25.9897 35.1502C26.7569 35.917 28.0658 35.5395 28.3061 34.4815C28.3061 34.4812 28.3061 34.4812 28.3061 34.4812C28.4669 33.7722 28.5637 33.0287 28.5942 32.2713C28.6864 29.9813 29.3047 29.8343 29.4436 29.5569C30.107 28.7274 30.1634 27.5721 29.5842 26.6825Z" fill="#099582"/>
<path d="M32.0238 26.0048C32.0238 26.2809 32.2476 26.5048 32.5238 26.5048C32.8 26.5048 33.0239 26.281 33.0239 26.0048C33.0239 23.8546 31.2764 22.1054 29.1286 22.1054C28.8524 22.1054 28.6285 22.3292 28.6285 22.6054C28.6285 22.8816 28.8523 23.1055 29.1286 23.1055C30.7249 23.1054 32.0238 24.4059 32.0238 26.0048Z" fill="#099582"/>
</svg>
