<svg width="41" height="40" viewBox="0 0 41 40" fill="none" xmlns="http://www.w3.org/2000/svg">
<path d="M23.2292 22.3921C23.0783 22.2641 22.913 22.1433 22.7477 22.0224C25.1302 21.7131 26.5173 20.2589 28.368 18.7976C28.5297 18.6732 28.5476 18.4172 28.4003 18.275C26.1975 16.035 24.5408 13.9942 24.8894 9.86993C24.7924 0.711148 9.18568 0.711148 9.11381 9.89837C9.40848 13.4147 7.71593 15.6546 5.91916 18.0261C5.76104 18.2678 5.24358 18.7194 5.66402 18.9896C7.6189 20.2696 8.53166 21.6277 11.2556 22.0259C11.0903 22.1468 10.9285 22.2677 10.774 22.3957C6.80676 23.5832 4.04333 27.2275 4.04333 31.2772V33.9473C4.04333 34.5268 4.52846 34.9997 5.12139 34.9997H28.8854C29.4784 34.9997 29.9635 34.5268 29.9635 33.9473V31.2772C29.9635 27.2275 27.1965 23.5832 23.2292 22.3921ZM19.7579 27.32C20.2861 27.7431 20.9222 27.9742 21.6013 27.9671C21.1953 30.2567 20.0777 32.358 18.7589 34.2637L18.36 34.2175C19.0104 30.5625 18.9924 26.7262 18.2989 22.8081C18.2989 22.5166 18.2989 21.8482 18.2989 21.5495C18.8667 21.4037 19.4093 21.1762 19.9016 20.8669C20.5844 21.3504 21.0012 22.0437 21.0551 22.8935L21.4576 25.4889C21.2456 26.0862 20.7461 26.4702 19.8872 26.7013C19.6141 26.7653 19.5315 27.1529 19.7579 27.32ZM18.0833 30.1785C18.015 31.558 17.8641 32.9304 17.6125 34.2886H16.3656C15.6433 30.4487 15.7367 26.5129 16.4015 22.6801H17.5802C17.9395 25.1654 18.2162 27.6648 18.0833 30.1785ZM14.4322 33.0549C13.4692 31.4869 12.7002 29.7768 12.3767 27.9671C12.9697 27.9599 14.2957 27.6862 14.3496 26.9715C14.3208 26.84 14.2238 26.7369 14.0909 26.7013C13.2356 26.4738 12.7325 26.0862 12.5205 25.4889L12.9265 22.8792C13.0056 22.0508 13.4009 21.322 14.0944 20.8633C14.5832 21.1726 15.1222 21.4002 15.6828 21.546V22.8081C14.9605 26.4987 14.9713 30.4239 15.6217 34.2175L15.2192 34.2637C14.9461 33.8691 14.6766 33.4673 14.4322 33.0549ZM22.3775 16.2519C22.1727 18.7976 19.3338 20.6358 17.9539 20.906C17.0591 21.0802 15.327 20.8598 14.3029 20.1522C13.8573 19.8393 11.6293 18.179 11.6293 16.2555V12.6432C12.5995 11.5019 13.6165 10.3535 15.1869 10.1899C16.9549 11.8254 19.3698 12.828 22.3739 13.18V16.2519H22.3775ZM16.4015 21.6775C16.7932 21.7202 17.1957 21.7237 17.5802 21.6811V21.9726H16.4015V21.6775ZM6.37554 18.6056C8.22261 16.1595 10.1523 13.7098 9.83252 9.86637C9.86486 3.6266 17.9791 2.26131 21.9607 5.29054C26.564 9.07707 21.4145 12.5969 27.6133 18.4883C25.7016 20.0527 24.2138 21.45 21.7487 21.3575C21.5043 21.2153 21.2743 21.0837 21.0443 20.9664C20.8826 20.7709 20.703 20.5967 20.5089 20.4295C23.5957 17.9621 23.0783 16.355 23.0927 12.8529C23.0927 12.6716 22.9525 12.5187 22.7692 12.5009C19.6644 12.1916 17.3107 11.2317 15.5678 9.56061C13.8752 9.08062 11.5466 11.3099 10.907 12.5081C10.9645 16.0635 10.2673 17.9159 13.48 20.4224C13.2751 20.5895 13.0883 20.7744 12.9194 20.9771C12.693 21.1015 12.4738 21.2295 12.2546 21.3575C9.55581 21.4322 8.24058 19.9282 6.37554 18.6056ZM5.12139 34.2886C4.92734 34.2886 4.76204 34.1322 4.76204 33.9473C4.53206 29.4746 5.2292 26.0471 9.46598 23.6934C8.58197 24.7992 8.15074 26.0222 8.14715 27.3911C6.45819 27.9528 6.62349 29.4212 6.91097 30.8327C6.97925 31.3518 7.7842 31.0247 8.10043 31.0212C8.29808 30.9927 8.43463 30.815 8.40588 30.6194C8.35198 30.2034 7.85248 30.335 7.57218 30.3776C7.35657 29.3608 7.26314 28.2728 8.564 28.0204C9.90079 27.9173 10.1092 28.9661 10.2062 30.0079L9.76065 30.0719C9.30067 30.1288 9.40129 30.847 9.86127 30.7758C10.1667 30.6905 11.0543 30.7865 10.9681 30.2603C10.8207 28.8417 10.5943 27.4515 8.86586 27.3022C8.82633 25.2294 10.3895 23.3237 12.3372 22.1504C12.2186 22.5628 11.8844 25.0018 11.7982 25.4711C11.888 26.2178 12.4378 26.7689 13.1601 27.1244C12.808 27.2595 12.427 27.2951 12.0066 27.2346C11.7802 27.1955 11.5646 27.4053 11.5969 27.6328C11.9168 30.0434 13.0272 32.2762 14.364 34.2957H5.12139V34.2886ZM29.2448 33.9473C29.2448 34.1322 29.0795 34.2886 28.8854 34.2886H19.6177C20.9509 32.2691 22.0649 30.0363 22.3847 27.6257C22.4207 27.4017 22.2015 27.1884 21.9751 27.2275C21.5546 27.288 21.1737 27.2524 20.8215 27.1173C21.5438 26.7618 22.0937 26.2107 22.1835 25.464C22.0901 24.9592 21.763 22.5735 21.6516 22.129C23.7251 23.3592 25.1805 25.4107 24.9864 27.7502C23.3298 28.0773 23.5814 30.5412 25.2847 30.5305C26.9126 30.5447 27.2504 28.2337 25.7016 27.7893C25.7806 26.2391 25.3566 24.8489 24.4366 23.6401C27.3294 25.0907 29.2448 28.0417 29.2448 31.2772V33.9473ZM25.2739 28.4293C26.2154 28.4293 26.2334 29.8088 25.2847 29.8194C24.3468 29.8159 24.336 28.447 25.2739 28.4293Z" fill="#099582"/>
<path d="M32.3604 5.90559C29.7407 5.86648 27.7427 8.46194 28.4866 10.933C28.4255 12.0031 27.9116 12.8031 26.7868 13.5995C26.6539 13.6955 26.6 13.8662 26.661 14.0191C26.9737 14.7195 30.1504 13.4431 30.3013 13.2618C32.8635 14.851 36.4606 12.8636 36.3851 9.86278C36.3851 7.67975 34.5776 5.90559 32.3604 5.90559ZM32.3604 13.1053C31.692 13.1053 31.0487 12.9098 30.5025 12.5436C30.3804 12.4618 30.2186 12.4618 30.0965 12.5436C29.6113 12.8707 28.9897 13.1267 28.2135 13.3115C29.0723 12.4582 29.3418 11.1854 29.0579 9.86278C29.1729 5.5856 35.555 5.5856 35.6664 9.86278C35.6664 11.6476 34.1823 13.1053 32.3604 13.1053Z" fill="#099582"/>
<path d="M34.901 8.96328C34.7968 8.79617 34.574 8.74639 34.4051 8.8495L31.559 10.6165L30.2438 9.34015C29.9168 9.01305 29.4029 9.52859 29.7407 9.84502L31.2572 11.3205C31.3757 11.4379 31.559 11.4556 31.6992 11.3667L34.786 9.45037C34.9585 9.34726 35.0088 9.12683 34.901 8.96328Z" fill="#099582"/>
</svg>
