<svg xmlns="http://www.w3.org/2000/svg" width="412" height="432" style="shape-rendering:geometricPrecision;text-rendering:geometricPrecision;image-rendering:optimizeQuality;fill-rule:evenodd;clip-rule:evenodd"><path fill="#099582" d="M104.5 144.5a400.456 400.456 0 0 0-1 40c1.599.268 2.932-.066 4-1 7.538-2.049 11.705-7.049 12.5-15a699.143 699.143 0 0 0 17-31c.087-5.392.253-10.726.5-16a11.25 11.25 0 0 1 3.5-1c2.855 2.009 6.022 3.342 9.5 4 18.241-12.748 38.574-19.748 61-21a133.66 133.66 0 0 1 31 5.5 247.359 247.359 0 0 1 32 17.5c1.799-3.983 4.799-6.149 9-6.5 2.327 3.609 2.66 7.442 1 11.5.342 2.367.842 4.7 1.5 7a151.156 151.156 0 0 1 20.5 40c2.951 4.095 6.951 6.095 12 6 2.047-20.198.881-40.198-3.5-60a153.154 153.154 0 0 0-10-22c-16.319-23.579-38.819-36.412-67.5-38.5-7.313-5.182-6.646-8.682 2-10.5 6.308.96 12.641 1.627 19 2-1.374-10.244-6.041-18.744-14-25.5-8.136-5.984-16.969-10.484-26.5-13.5-1.623-5.196.21-8.196 5.5-9 15.676 3.742 28.176 12.075 37.5 25a143.486 143.486 0 0 1 11 28c20.962 10.629 36.962 26.296 48 47a420.988 420.988 0 0 1 7 22 1009.806 1009.806 0 0 1 2 55 481.478 481.478 0 0 0 5.5 33.5c-.561 11.514-5.227 21.014-14 28.5a107.54 107.54 0 0 0-14.5 9 312.714 312.714 0 0 1-16 46 368.074 368.074 0 0 1-15 21 69.365 69.365 0 0 1-15 13c-2.205 10.058.462 18.725 8 26 6.817 7.494 15.317 11.994 25.5 13.5a693.76 693.76 0 0 1 54 4c13.153 4.215 22.486 12.548 28 25-1.028 4.206-3.695 5.539-8 4-9.006-12.125-21.006-19.459-36-22l-42-1c-14.19-2.6-25.357-9.767-33.5-21.5a392.046 392.046 0 0 1-9-20c-16.659 9.863-34.492 12.696-53.5 8.5a150.367 150.367 0 0 1-15-7c-1-.667-2-.667-3 0-6.501 22.509-21.168 35.842-44 40l-41 1a71.884 71.884 0 0 0-22 8.5 124.944 124.944 0 0 0-16 16.5c-3.837 1-5.837-.5-6-4.5 3.56-9.736 9.894-17.236 19-22.5 7.421-4.252 15.421-6.918 24-8l40-1c18.286-3.628 29.786-14.128 34.5-31.5.706-2.471.373-4.805-1-7-17.274-13.944-29.94-31.277-38-52a933.617 933.617 0 0 1-8-29c-11.441-4.436-20.108-12.103-26-23a117.92 117.92 0 0 1-2.5-15 119.8 119.8 0 0 1 4.5-26c.947-19.673 1.947-39.34 3-59 2.892-20.618 11.725-38.118 26.5-52.5A439.416 439.416 0 0 1 152 59.5c3.014-21.666 14.181-37.5 33.5-47.5A153.47 153.47 0 0 1 199 8.5c5.802 3.116 5.969 6.616.5 10.5-12.506 3.002-22.34 9.835-29.5 20.5a174.54 174.54 0 0 0-7.5 16l1 1a99.073 99.073 0 0 1 22-2.5c4 3 4 6 0 9-41.718 5.397-68.218 28.23-79.5 68.5a49.555 49.555 0 0 0-1.5 13ZM94.5 22.5c14.961-.872 21.461 6.128 19.5 21-5.308 8.859-12.808 11.359-22.5 7.5-7.956-7.402-8.956-15.569-3-24.5a514.278 514.278 0 0 0 6-4Z" style="opacity:1"/><path fill="#f3faf3" d="M97.5 33.5c4.994-.171 6.828 2.162 5.5 7-3.788 2.768-6.288 1.768-7.5-3 .252-1.573.918-2.906 2-4Z" style="opacity:1"/><path fill="#099582" d="M372.5 82.5c13.934-1.195 23.768 4.472 29.5 17 2.352 21.978-7.481 32.812-29.5 32.5-16.678-6.693-22.345-18.693-17-36 4.107-6.622 9.773-11.122 17-13.5Z" style="opacity:1"/><path fill="#fafdfb" d="M374.5 92.5c12.482-.352 18.315 5.648 17.5 18-4.467 10.816-11.967 13.649-22.5 8.5-7.123-6.773-7.79-14.107-2-22 2.739-1.026 5.072-2.526 7-4.5Z" style="opacity:1"/><path fill="#fefefe" d="M202.5 114.5c41.822-1.486 71.655 16.514 89.5 54a311.273 311.273 0 0 1 5 20c5.314 38.145-.353 74.479-17 109-15.485 27.657-38.985 42.99-70.5 46-23.793-3.228-43.126-14.228-58-33-14.613-21.1-23.447-44.433-26.5-70a318.252 318.252 0 0 1 2-58c10.175-39.343 35.342-62.01 75.5-68Z" style="opacity:1"/><path fill="#bbe2bd" d="M104.5 144.5v39h3c-1.068.934-2.401 1.268-4 1a400.456 400.456 0 0 1 1-40Z" style="opacity:1"/><path fill="#099582" d="M36.5 176.5c18.752-.602 26.085 8.065 22 26a40.565 40.565 0 0 1-9.5 9c-4.299.042-8.799-.125-13.5-.5-11.089-6.762-13.589-15.929-7.5-27.5 2.628-2.71 5.461-5.044 8.5-7Z" style="opacity:1"/><path fill="#f5fbf6" d="M41.5 186.5c7.172 2.355 8.672 6.688 4.5 13-5.405 3.521-8.905 2.188-10.5-4 .444-4.098 2.444-7.098 6-9Z" style="opacity:1"/><path fill="#f7fbf7" d="M113.5 193.5c1.331 7.47 1.998 15.304 2 23.5.154 8.325-.346 16.492-1.5 24.5-4.638-1.419-8.305-4.086-11-8-4.982-9.154-5.482-18.488-1.5-28 2.409-5.742 6.409-9.742 12-12Z" style="opacity:1"/><path fill="#fbfdfc" d="M308.5 193.5c10.191 4.206 15.191 11.872 15 23 .573 8.68-2.093 16.18-8 22.5a31.774 31.774 0 0 1-7 2.5v-48Z" style="opacity:1"/><path fill="#099582" d="M344.5 286.5c13.72-.778 20.22 5.555 19.5 19-3.824 10.126-10.99 13.626-21.5 10.5-10.12-7.383-11.453-16.05-4-26 2.227-.941 4.227-2.108 6-3.5Z" style="opacity:1"/><path fill="#f0faf1" d="M346.5 297.5c5.965-.572 7.631 1.595 5 6.5-6.256.934-7.923-1.233-5-6.5Z" style="opacity:1"/><path fill="#099582" d="M85.5 307.5c23.734-2.215 33.567 8.451 29.5 32-10.343 14.397-22.843 16.731-37.5 7-11.503-16.092-8.836-29.092 8-39Z" style="opacity:1"/><path fill="#fafdfa" d="M88.5 317.5c15.012-.52 20.179 6.146 15.5 20-8.425 7.229-15.758 6.229-22-3-1.695-7.259.472-12.925 6.5-17Z" style="opacity:1"/></svg>