<svg width="41" height="40" viewBox="0 0 41 40" fill="none" xmlns="http://www.w3.org/2000/svg">
<path d="M5.29671 27.9863H15.4967V31.7275H14.2392C13.8403 31.7275 13.5157 32.0487 13.5157 32.4433V33.8855C13.5157 34.2802 13.8403 34.6014 14.2392 34.6014H22.2122C22.6112 34.6014 22.9358 34.2802 22.9358 33.8855V32.4433C22.9358 32.0487 22.6112 31.7275 22.2122 31.7275H20.9548V27.9863H31.1547C32.0842 27.9863 32.8404 27.2381 32.8404 26.3183V14.6356C34.8645 13.6891 36.1872 11.571 35.9197 9.16561C35.6451 6.69507 33.6332 4.70478 31.1363 4.4331C28.619 4.15841 26.4518 5.56874 25.5432 7.61807H5.29671C4.36723 7.61807 3.61102 8.36626 3.61102 9.28608V26.3184C3.61102 27.2381 4.36723 27.9863 5.29671 27.9863ZM22.2757 32.4433V33.8855C22.2757 33.9202 22.2474 33.9484 22.2123 33.9484H14.2393C14.2042 33.9484 14.1759 33.9202 14.1759 33.8855V32.4433C14.1759 32.4087 14.2042 32.3806 14.2393 32.3806H22.2123C22.2474 32.3805 22.2757 32.4087 22.2757 32.4433ZM16.1568 31.7275V27.9873H20.2948V31.7275H16.1568ZM31.0643 5.08236C33.2564 5.32085 35.0226 7.06822 35.264 9.23708C35.5871 12.1452 33.2795 14.5003 30.521 14.5003C29.5072 14.5003 28.5396 14.1906 27.7219 13.6046C27.6551 13.5568 27.5794 13.5194 27.4419 13.5194C27.1941 13.5194 26.7463 13.6415 25.7925 14.0449L25.7812 14.0192C26.6047 12.7077 26.5725 12.4459 26.4452 12.2399C25.987 11.5 25.7448 10.6476 25.7448 9.77481C25.7449 7.03813 28.1345 4.76187 31.0643 5.08236ZM20.9184 15.9466C21.116 15.9963 21.2624 16.1736 21.2624 16.3843C21.2624 16.595 21.116 16.7724 20.9184 16.822V15.9466ZM20.7372 15.2798C20.7086 15.2798 20.2547 15.2798 20.2818 15.2798C20.0786 15.2798 19.8917 15.1792 19.7814 15.0107L19.1899 14.1094C19.1045 13.9792 18.9599 13.8969 18.8031 13.8893C18.7952 13.8889 18.7872 13.8888 18.7792 13.8888C18.6309 13.8888 18.4889 13.9559 18.3956 14.0716L17.6025 15.0571C17.4885 15.1987 17.3184 15.2798 17.1355 15.2798C17.0696 15.2798 15.6085 15.2798 15.6919 15.2798V14.3047C15.6919 13.4663 16.3814 12.7841 17.2287 12.7841H19.2006C20.0479 12.7841 20.7374 13.4663 20.7374 14.3047V15.2798H20.7372ZM15.5222 15.9617V16.807C15.3436 16.7458 15.2126 16.5817 15.2126 16.3843C15.2126 16.1869 15.3436 16.0229 15.5222 15.9617ZM16.2169 17.1623V15.9328H17.1355C17.5205 15.9328 17.8789 15.7619 18.1186 15.4639L18.765 14.661L19.2276 15.3662C19.4537 15.7111 19.8328 15.9192 20.2468 15.9306V16.8616C20.2468 17.9703 19.3351 18.8722 18.2146 18.8722C17.2066 18.8722 16.3701 18.1417 16.2116 17.1881C16.2123 17.1792 16.2169 17.1715 16.2169 17.1623ZM18.2146 19.5253C18.4122 19.5253 18.6045 19.5028 18.7901 19.4626V20.3639C18.7901 20.6715 18.5372 20.9219 18.2262 20.9219C17.9152 20.9219 17.6623 20.6716 17.6623 20.3639V19.4685C17.8407 19.5054 18.0253 19.5253 18.2146 19.5253ZM18.2262 21.575C18.9012 21.575 19.4501 21.0317 19.4501 20.3639V20.0554H20.5825C21.817 20.0554 22.8216 21.0492 22.8216 22.2708V24.9984H22.1014V24.0216C22.1014 23.8412 21.9537 23.6951 21.7714 23.6951C21.5891 23.6951 21.4414 23.8412 21.4414 24.0216V24.9984H15.011V24.0216C15.011 23.8412 14.8633 23.6951 14.681 23.6951C14.4987 23.6951 14.351 23.8412 14.351 24.0216V24.9984H13.6306V22.2708C13.6306 21.0492 14.6352 20.0554 15.8696 20.0554H17.0023V20.3639C17.0022 21.0317 17.5512 21.575 18.2262 21.575ZM20.5825 19.4023H19.4501V19.2256C20.1331 18.8749 20.6439 18.2436 20.829 17.4865C21.4338 17.4742 21.9225 16.9856 21.9225 16.3842C21.9225 15.9904 21.7116 15.6466 21.3973 15.451V14.3046C21.3973 13.1061 20.4118 12.131 19.2005 12.131H17.2286C16.0173 12.131 15.0318 13.1061 15.0318 14.3046V15.4794C14.7428 15.6793 14.5525 16.0096 14.5525 16.3842C14.5525 16.9695 15.0163 17.4452 15.5989 17.4817C15.7849 18.2493 16.3064 18.8876 17.0022 19.2366V19.4022H15.8695C14.2708 19.4022 12.9704 20.689 12.9704 22.2706V25.0974H7.27068C6.86254 25.0974 6.53045 24.7689 6.53045 24.3651V11.2391C6.53045 10.8353 6.86254 10.5067 7.27068 10.5067H25.1355C25.2333 11.2145 25.4719 11.8966 25.8408 12.513C25.8143 12.6108 25.7013 12.9089 25.2207 13.6746C25.0642 13.9237 25.089 14.2406 25.2823 14.4634C25.4755 14.686 25.7882 14.7583 26.061 14.6426C26.968 14.2582 27.2947 14.1884 27.3955 14.1763C28.1489 14.7012 29.0118 15.019 29.9211 15.1173V24.3653C29.9211 24.7691 29.589 25.0976 29.1808 25.0976H23.4816V22.2709C23.4816 20.6891 22.1811 19.4023 20.5825 19.4023ZM4.27104 9.28608C4.27104 8.72653 4.73127 8.27119 5.29671 8.27119H25.3044C25.1613 8.75559 25.0849 9.26125 25.0849 9.7749C25.0849 9.80123 25.0872 9.82738 25.0876 9.85371H7.27068C6.49851 9.85371 5.87033 10.4752 5.87033 11.2392V24.3653C5.87033 25.1292 6.49841 25.7507 7.27068 25.7507H29.1808C29.953 25.7507 30.5812 25.1292 30.5812 24.3653V15.1517C31.1291 15.1457 31.6679 15.0579 32.1806 14.8949V26.3183C32.1806 26.878 31.7204 27.3332 31.1549 27.3332H5.29671C4.73127 27.3332 4.27104 26.8779 4.27104 26.3183V9.28608Z" fill="#099582"/>
<path d="M27.6986 10.9535C28.3357 10.9535 28.8542 10.4406 28.8542 9.81022C28.8542 9.17977 28.3357 8.66687 27.6986 8.66687C27.0615 8.66687 26.543 9.17977 26.543 9.81022C26.543 10.4406 27.0615 10.9535 27.6986 10.9535ZM27.6986 9.31989C27.9718 9.31989 28.1942 9.53976 28.1942 9.81022C28.1942 10.0805 27.9719 10.3004 27.6986 10.3004C27.4253 10.3004 27.203 10.0805 27.203 9.81022C27.203 9.53976 27.4252 9.31989 27.6986 9.31989Z" fill="#099582"/>
<path d="M30.5195 10.9535C31.1566 10.9535 31.6748 10.4406 31.6748 9.81022C31.6748 9.17977 31.1566 8.66687 30.5195 8.66687C29.8824 8.66687 29.3639 9.17977 29.3639 9.81022C29.3639 10.4406 29.8824 10.9535 30.5195 10.9535ZM30.5195 9.31989C30.7926 9.31989 31.0148 9.53976 31.0148 9.81022C31.0148 10.0805 30.7926 10.3004 30.5195 10.3004C30.2462 10.3004 30.0239 10.0805 30.0239 9.81022C30.024 9.53976 30.2462 9.31989 30.5195 9.31989Z" fill="#099582"/>
<path d="M33.3403 10.9535C33.9774 10.9535 34.4959 10.4406 34.4959 9.81022C34.4959 9.17977 33.9774 8.66687 33.3403 8.66687C32.7032 8.66687 32.1847 9.17977 32.1847 9.81022C32.1847 10.4406 32.7032 10.9535 33.3403 10.9535ZM33.3403 9.31989C33.6136 9.31989 33.8359 9.53976 33.8359 9.81022C33.8359 10.0805 33.6137 10.3004 33.3403 10.3004C33.0669 10.3004 32.8447 10.0805 32.8447 9.81022C32.8447 9.53976 33.067 9.31989 33.3403 9.31989Z" fill="#099582"/>
</svg>
