<svg width="41" height="40" viewBox="0 0 41 40" fill="none" xmlns="http://www.w3.org/2000/svg">
<path d="M27.7358 23.226H18.2466C17.7168 23.226 17.2857 23.6523 17.2857 24.1767V31.4899C17.2857 32.0142 17.7168 32.4406 18.2466 32.4406H27.7358C28.2656 32.4406 28.6967 32.0143 28.6967 31.4899V24.1767C28.6966 23.6524 28.2656 23.226 27.7358 23.226ZM27.7743 24.1767V27.377H23.3313V24.1385H27.7358C27.757 24.1386 27.7743 24.1556 27.7743 24.1767ZM18.2466 24.1386H22.4089V27.3771H18.208V24.1768C18.2081 24.1557 18.2254 24.1386 18.2466 24.1386ZM18.2081 31.4899V28.2896H22.409V31.5281H18.2467C18.2254 31.528 18.2081 31.5109 18.2081 31.4899ZM27.7358 31.528H23.3313V28.2895H27.7743V31.4897C27.7743 31.5109 27.757 31.528 27.7358 31.528Z" fill="#099582"/>
<path d="M3.56024 7.69721C3.56024 10.9232 5.84786 13.7385 9.01636 14.4371C9.10513 14.5786 9.3536 15.0724 9.8138 16.6693C9.90478 16.9848 10.1849 17.1936 10.5144 17.1936C10.5202 17.1936 10.5259 17.1936 10.5317 17.1933C10.8687 17.1858 11.1476 16.9626 11.2256 16.6379C11.5775 15.1707 11.7802 14.6517 11.8643 14.4781C15.1221 13.8596 17.4896 11.0592 17.5188 7.75843C17.551 4.11542 14.5905 0.9942 10.9189 0.80169C6.91126 0.588922 3.56024 3.73642 3.56024 7.69721ZM10.87 1.71288C14.0557 1.88009 16.6246 4.58848 16.5965 7.75065C16.5709 10.6626 14.4481 13.1254 11.5499 13.607C11.2319 13.6598 10.9994 13.8012 10.4988 15.7404C9.91098 13.8386 9.63373 13.6318 9.3194 13.5681C6.5168 13.0006 4.48264 10.5314 4.48264 7.69721C4.48264 4.27957 7.36404 1.53362 10.87 1.71288Z" fill="#099582"/>
<path d="M10.5398 11.7273C12.8326 11.7273 14.698 9.88159 14.698 7.61298C14.698 5.34436 12.8326 3.49866 10.5398 3.49866C8.24679 3.49866 6.38141 5.34436 6.38141 7.61298C6.38141 9.88159 8.24679 11.7273 10.5398 11.7273ZM10.5398 4.41127C12.3241 4.41127 13.7757 5.84743 13.7757 7.61298C13.7757 9.37852 12.3242 10.8147 10.5398 10.8147C8.75546 10.8147 7.3038 9.37852 7.3038 7.61298C7.3038 5.84743 8.75546 4.41127 10.5398 4.41127Z" fill="#099582"/>
<path d="M9.39646 8.73763C9.48688 8.85852 9.62612 8.92225 9.76734 8.92225C9.86264 8.92225 9.95882 8.89302 10.0414 8.83279L12.3698 7.12714C12.5747 6.97712 12.6178 6.69153 12.466 6.48873C12.3145 6.28625 12.0261 6.24387 11.8211 6.39357L9.86319 7.82797L9.35462 7.1486C9.20333 6.94613 8.91456 6.90408 8.70959 7.05344C8.50494 7.20346 8.46189 7.48938 8.61352 7.69186L9.39646 8.73763Z" fill="#099582"/>
<path d="M35.6173 20.6406C36.2235 19.5673 35.834 18.2059 34.7492 17.606L32.8491 16.5554V11.9496C32.8491 11.3237 32.3347 10.8146 31.7022 10.8146H28.9229C28.2906 10.8146 27.7762 11.3236 27.7762 11.9496V13.7505L24.9766 12.2027C23.7523 11.5254 22.2308 11.5254 21.0058 12.2027L11.2334 17.6059C10.1486 18.2058 9.75913 19.5671 10.3653 20.6405C10.6887 21.2134 11.2436 21.6187 11.9202 21.7448V35.0939C11.2406 35.2782 10.7369 35.8882 10.7369 36.6184C10.7369 37.4936 11.4565 38.2057 12.341 38.2057H33.3992C34.2837 38.2057 35.0034 37.4935 35.0034 36.6184C35.0034 35.9778 34.6158 35.4278 34.0622 35.1773V21.7408C34.7572 21.6115 35.2981 21.206 35.6173 20.6406ZM12.8426 21.7255C13.0465 21.6783 13.2452 21.6038 13.433 21.4997L22.9913 16.2142L32.5497 21.4997C32.7374 21.6035 32.9361 21.6765 33.1399 21.7236V35.0317H12.8426V21.7255ZM28.6985 11.9497C28.6985 11.8271 28.7992 11.7273 28.9229 11.7273H31.7022C31.8261 11.7273 31.9268 11.8271 31.9268 11.9497V16.0455L28.6986 14.2606L28.6985 11.9497ZM11.1705 20.1958C10.8122 19.5613 11.0425 18.7571 11.6834 18.4024L21.4559 12.9992C22.4033 12.4759 23.5799 12.4759 24.5265 12.9992L34.2991 18.4024C34.9401 18.7571 35.1703 19.5613 34.812 20.1958C34.4516 20.8342 33.64 21.0567 32.9996 20.7033L23.2162 15.2933C23.0764 15.2156 22.906 15.2156 22.7662 15.2933L12.9829 20.7033C12.3443 21.0558 11.5318 20.8355 11.1705 20.1958ZM33.3992 37.2934H12.341C11.9651 37.2934 11.6593 36.9907 11.6593 36.6186C11.6593 36.2469 11.9652 35.9442 12.341 35.9442H12.3814H33.3992C33.7752 35.9442 34.081 36.2469 34.081 36.6186C34.081 36.9907 33.7752 37.2934 33.3992 37.2934Z" fill="#099582"/>
</svg>
