<svg width="41" height="40" viewBox="0 0 41 40" fill="none" xmlns="http://www.w3.org/2000/svg">
<path d="M35.5398 19.2022C35.7677 19.2022 35.9525 19.0195 35.9525 18.7939V5.03795C35.9525 3.78073 34.9186 2.75781 33.6479 2.75781H5.91414C4.64343 2.75781 3.60956 3.78073 3.60956 5.03795V23.5957C3.60956 24.853 4.64343 25.8759 5.91414 25.8759H15.5692V31.0216H12.6665C11.2122 31.0216 10.0289 32.1924 10.0289 33.6312C10.0289 35.07 11.2123 36.2408 12.6665 36.2408H27.866C29.3205 36.2408 30.5038 35.07 30.5038 33.6312C30.5038 32.1924 29.3205 31.0216 27.866 31.0216H24.9634V25.8759H33.6479C34.9186 25.8759 35.9525 24.853 35.9525 23.5957V22.4492C35.9525 22.2237 35.7678 22.0409 35.5398 22.0409C35.3119 22.0409 35.1271 22.2236 35.1271 22.4492V23.5957C35.1271 24.4027 34.4635 25.0591 33.6479 25.0591C14.5784 25.0583 17.3226 25.0591 5.91414 25.0591C5.09857 25.0591 4.43504 24.4027 4.43504 23.5957V5.03795C4.43504 4.23103 5.09857 3.57454 5.91414 3.57454H33.6479C34.4635 3.57454 35.1271 4.23103 35.1271 5.03795V18.7939C35.1271 19.0195 35.3118 19.2022 35.5398 19.2022ZM29.6783 33.6312C29.6783 34.6198 28.8654 35.4242 27.8659 35.4242H12.6665C11.6673 35.4242 10.8543 34.6198 10.8543 33.6312C10.8543 32.6426 11.6673 31.8382 12.6665 31.8382H27.866C28.8654 31.8382 29.6783 32.6426 29.6783 33.6312ZM24.138 31.0216H16.3946V25.8759H24.138V31.0216Z" fill="#099582"/>
<path d="M26.6353 8.07985C21.8879 10.8114 17.583 10.8269 13.0873 8.12895C12.9935 8.0728 12.8811 8.05555 12.775 8.08162C12.6686 8.10729 12.577 8.17384 12.5202 8.26635L7.46297 16.5164C7.40621 16.6091 7.38898 16.7202 7.41513 16.8254C7.44108 16.9306 7.50833 17.0213 7.60183 17.0774C15.1467 21.6047 23.5779 21.9459 31.9534 17.1265C32.048 17.0721 32.1168 16.9827 32.145 16.878C32.173 16.7732 32.1577 16.6619 32.1028 16.5682L27.1996 8.22764C27.0849 8.03252 26.8322 7.96647 26.6353 8.07985ZM8.38442 16.5881L13.0143 9.03534C17.5547 11.6299 21.9208 11.6145 26.6916 8.98782L31.1802 16.6234C23.6126 20.8403 15.6951 20.8288 8.38442 16.5881Z" fill="#099582"/>
</svg>
