<svg width="22" height="22" viewBox="0 0 22 22" fill="none" xmlns="http://www.w3.org/2000/svg">
<path d="M21 0.999941C20.6875 0.687489 20.2636 0.511963 19.8217 0.511963C19.3797 0.511963 18.9559 0.687489 18.6433 0.999941L11 8.64328L3.35667 0.999941C3.04412 0.687489 2.62028 0.511963 2.17833 0.511963C1.73639 0.511963 1.31255 0.687489 1 0.999941C0.68755 1.31249 0.512024 1.73633 0.512024 2.17827C0.512024 2.62021 0.68755 3.04406 1 3.35661L8.64334 10.9999L1 18.6433C0.68755 18.9558 0.512024 19.3797 0.512024 19.8216C0.512024 20.2635 0.68755 20.6874 1 20.9999C1.31255 21.3124 1.73639 21.4879 2.17833 21.4879C2.62028 21.4879 3.04412 21.3124 3.35667 20.9999L11 13.3566L18.6433 20.9999C18.9559 21.3124 19.3797 21.4879 19.8217 21.4879C20.2636 21.4879 20.6875 21.3124 21 20.9999C21.3125 20.6874 21.488 20.2635 21.488 19.8216C21.488 19.3797 21.3125 18.9558 21 18.6433L13.3567 10.9999L21 3.35661C21.3125 3.04406 21.488 2.62021 21.488 2.17827C21.488 1.73633 21.3125 1.31249 21 0.999941Z" fill="#099582"/>
</svg>
