<svg width="366" height="333" viewBox="0 0 366 333" fill="none" xmlns="http://www.w3.org/2000/svg">
<path d="M59.234 253.519C56.629 257.25 52.996 260.039 48.332 261.886C43.668 263.734 38.242 264.656 32.047 264.656C25.781 264.656 20.218 263.187 15.363 260.25C10.508 257.312 6.75 253.133 4.093 247.711C1.437 242.293 0.07 236.011 0 228.863V222.16C0 210.582 2.703 201.605 8.105 195.234C13.508 188.867 21.101 185.679 30.886 185.679C38.91 185.679 45.367 187.73 50.261 191.832C55.152 195.929 58.144 201.746 59.234 209.277H49.097C47.199 199.07 41.144 193.968 30.937 193.968C24.144 193.968 18.996 196.355 15.496 201.129C11.992 205.902 10.226 212.816 10.191 221.867V228.152C10.191 236.785 12.16 243.644 16.101 248.734C20.043 253.824 25.379 256.371 32.101 256.371C35.902 256.371 39.226 255.949 42.078 255.105C44.929 254.261 47.285 252.84 49.152 250.84V233.613H31.359V225.328H59.234V253.519Z" fill="#117679"/>
<path d="M119.578 228.074H86.2649V255.312H124.961V263.601H76.1289V186.734H124.437V195.023H86.2649V219.785H119.578V228.074Z" fill="#117679"/>
<path d="M196.656 263.601H186.465L147.769 204.367V263.601H137.578V186.734H147.769L186.57 246.234V186.734H196.656V263.601Z" fill="#117679"/>
<path d="M215.398 186.734H225.531V263.601H215.398V186.734Z" fill="#117679"/>
<path d="M298.176 186.734V239C298.14 246.25 295.859 252.179 291.34 256.793C286.816 261.402 280.683 263.988 272.941 264.551L270.246 264.656C261.836 264.656 255.133 262.386 250.133 257.847C245.136 253.308 242.601 247.058 242.531 239.105V186.734H252.562V238.789C252.562 244.351 254.093 248.672 257.156 251.75C260.218 254.832 264.582 256.371 270.246 256.371C275.984 256.371 280.375 254.836 283.422 251.777C286.465 248.715 287.984 244.402 287.984 238.844V186.734H298.176Z" fill="#117679"/>
<path d="M336.82 229.34C328.125 226.84 321.8 223.769 317.84 220.129C313.883 216.484 311.902 211.988 311.902 206.636C311.902 200.586 314.32 195.578 319.16 191.617C324 187.66 330.293 185.679 338.035 185.679C343.312 185.679 348.019 186.699 352.156 188.742C356.289 190.781 359.492 193.597 361.765 197.187C364.035 200.777 365.168 204.703 365.168 208.961H354.98C354.98 204.301 353.504 200.633 350.547 197.968C347.59 195.301 343.418 193.968 338.035 193.968C333.035 193.968 329.136 195.07 326.34 197.273C323.543 199.476 322.144 202.535 322.144 206.449C322.144 209.586 323.472 212.242 326.129 214.41C328.785 216.578 333.308 218.558 339.695 220.359C346.086 222.156 351.082 224.14 354.691 226.304C358.297 228.468 360.972 230.992 362.715 233.879C364.457 236.765 365.328 240.164 365.328 244.07C365.328 250.297 362.898 255.285 358.043 259.035C353.187 262.781 346.691 264.656 338.562 264.656C333.281 264.656 328.355 263.644 323.781 261.621C319.203 259.597 315.676 256.828 313.195 253.308C310.715 249.789 309.472 245.793 309.472 241.324H319.66C319.66 245.968 321.379 249.636 324.808 252.332C328.242 255.023 332.824 256.371 338.562 256.371C343.91 256.371 348.011 255.277 350.863 253.097C353.715 250.914 355.14 247.941 355.14 244.172C355.14 240.41 353.82 237.496 351.179 235.437C348.539 233.379 343.754 231.347 336.82 229.34Z" fill="#117679"/>
<path d="M36.593 310.097C38.511 307.746 41.004 306.57 44.07 306.57C49.414 306.57 52.109 309.582 52.156 315.613V332.32H47.836V315.59C47.82 313.765 47.402 312.418 46.586 311.547C45.765 310.676 44.492 310.238 42.761 310.238C41.363 310.238 40.129 310.613 39.07 311.359C38.011 312.109 37.187 313.09 36.593 314.304V332.32H32.269V296.426H36.593V310.097Z" fill="#117679"/>
<path d="M72.414 310.121C70.668 310.121 69.207 310.758 68.019 312.027C66.84 313.297 66.105 315.074 65.824 317.363H78.492V317.039C78.363 314.844 77.773 313.14 76.715 311.933C75.656 310.726 74.222 310.121 72.414 310.121ZM72.953 332.789C69.523 332.789 66.734 331.664 64.586 329.414C62.437 327.16 61.363 324.152 61.363 320.379V319.586C61.363 317.078 61.84 314.84 62.797 312.867C63.758 310.894 65.097 309.351 66.816 308.238C68.539 307.125 70.406 306.57 72.414 306.57C75.703 306.57 78.258 307.652 80.082 309.816C81.902 311.984 82.816 315.082 82.816 319.117V320.918H65.683C65.746 323.41 66.476 325.426 67.871 326.957C69.265 328.492 71.035 329.261 73.187 329.261C74.711 329.261 76.004 328.949 77.066 328.328C78.125 327.703 79.05 326.875 79.847 325.847L82.488 327.906C80.367 331.16 77.191 332.789 72.953 332.789Z" fill="#117679"/>
<path d="M100.082 329.027C101.437 329.027 102.722 328.676 103.937 327.976C105.152 327.273 106.031 326.363 106.578 325.242V320.054H103.187C97.8899 320.054 95.2419 321.605 95.2419 324.703C95.2419 326.058 95.6949 327.117 96.5969 327.883C97.5039 328.644 98.6639 329.027 100.082 329.027ZM107.254 332.32C107.004 331.824 106.8 330.933 106.648 329.656C104.636 331.746 102.238 332.789 99.4489 332.789C96.9569 332.789 94.9099 332.086 93.3159 330.676C91.7179 329.265 90.9219 327.476 90.9219 325.312C90.9219 322.679 91.9219 320.633 93.9219 319.176C95.9259 317.718 98.7379 316.992 102.371 316.992H106.578V315.004C106.578 313.496 106.125 312.289 105.222 311.394C104.316 310.5 102.984 310.051 101.226 310.051C99.6829 310.051 98.3899 310.441 97.3469 311.218C96.3039 312 95.7809 312.941 95.7809 314.047H91.4329C91.4329 312.785 91.8829 311.566 92.7769 310.39C93.6719 309.215 94.8859 308.281 96.4219 307.597C97.9569 306.914 99.6439 306.57 101.48 306.57C104.394 306.57 106.679 307.297 108.328 308.754C109.98 310.211 110.836 312.215 110.902 314.773V326.41C110.902 328.73 111.195 330.578 111.789 331.949V332.32H107.254Z" fill="#117679"/>
<path d="M121.879 296.426H126.203V332.321H121.879V296.426Z" fill="#117679"/>
<path d="M142.816 300.914V307.035H147.535V310.379H142.816V326.078C142.816 327.094 143.027 327.855 143.445 328.359C143.867 328.867 144.582 329.121 145.593 329.121C146.093 329.121 146.781 329.027 147.652 328.84V332.324C146.515 332.636 145.41 332.789 144.336 332.789C142.402 332.789 140.945 332.203 139.965 331.035C138.98 329.867 138.492 328.207 138.492 326.058V310.379H133.886V307.035H138.492V300.914H142.816Z" fill="#117679"/>
<path d="M160.734 310.097C162.652 307.746 165.144 306.57 168.215 306.57C173.558 306.57 176.25 309.582 176.3 315.613V332.32H171.976V315.59C171.961 313.765 171.543 312.418 170.726 311.547C169.91 310.676 168.633 310.238 166.906 310.238C165.504 310.238 164.269 310.613 163.215 311.359C162.152 312.109 161.328 313.09 160.734 314.304V332.32H156.41V296.426H160.734V310.097Z" fill="#117679"/>
<path d="M212.422 329.261C213.961 329.261 215.308 328.793 216.465 327.859C217.617 326.926 218.254 325.754 218.379 324.355H222.468C222.39 325.801 221.89 327.179 220.972 328.488C220.054 329.797 218.828 330.84 217.293 331.621C215.758 332.402 214.133 332.789 212.422 332.789C208.976 332.789 206.238 331.64 204.207 329.344C202.172 327.043 201.156 323.902 201.156 319.914V319.187C201.156 316.726 201.609 314.539 202.511 312.621C203.414 310.707 204.711 309.218 206.402 308.156C208.093 307.097 210.09 306.57 212.398 306.57C215.23 306.57 217.59 307.418 219.465 309.117C221.343 310.812 222.343 313.019 222.468 315.73H218.379C218.254 314.094 217.636 312.75 216.523 311.699C215.406 310.648 214.031 310.121 212.398 310.121C210.199 310.121 208.5 310.914 207.289 312.492C206.082 314.074 205.48 316.359 205.48 319.351V320.172C205.48 323.082 206.078 325.328 207.277 326.902C208.476 328.476 210.191 329.261 212.422 329.261Z" fill="#117679"/>
<path d="M231.531 296.426H235.855V332.321H231.531V296.426Z" fill="#117679"/>
<path d="M251.3 332.32H246.976V307.035H251.3V332.32ZM246.625 300.332C246.625 299.629 246.84 299.035 247.269 298.554C247.695 298.07 248.332 297.828 249.172 297.828C250.015 297.828 250.652 298.07 251.09 298.554C251.523 299.035 251.742 299.629 251.742 300.332C251.742 301.031 251.523 301.613 251.09 302.082C250.652 302.551 250.015 302.781 249.172 302.781C248.332 302.781 247.695 302.551 247.269 302.082C246.84 301.613 246.625 301.031 246.625 300.332Z" fill="#117679"/>
<path d="M266.136 307.035L266.277 310.215C268.207 307.785 270.73 306.57 273.847 306.57C279.191 306.57 281.886 309.582 281.933 315.613V332.32H277.609V315.59C277.593 313.769 277.176 312.422 276.359 311.547C275.543 310.676 274.265 310.238 272.539 310.238C271.136 310.238 269.906 310.613 268.847 311.359C267.785 312.109 266.961 313.09 266.367 314.304V332.32H262.047V307.035H266.136Z" fill="#117679"/>
<path d="M296.98 332.32H292.656V307.035H296.98V332.32ZM292.304 300.332C292.304 299.629 292.519 299.035 292.949 298.554C293.375 298.07 294.011 297.828 294.851 297.828C295.695 297.828 296.332 298.07 296.769 298.554C297.203 299.035 297.422 299.629 297.422 300.332C297.422 301.031 297.203 301.613 296.769 302.082C296.332 302.551 295.695 302.781 294.851 302.781C294.011 302.781 293.375 302.551 292.949 302.082C292.519 301.613 292.304 301.031 292.304 300.332Z" fill="#117679"/>
<path d="M317.867 329.261C319.41 329.261 320.758 328.793 321.91 327.859C323.062 326.926 323.699 325.754 323.824 324.355H327.914C327.836 325.801 327.34 327.179 326.418 328.488C325.5 329.797 324.273 330.84 322.738 331.621C321.203 332.402 319.582 332.789 317.867 332.789C314.422 332.789 311.683 331.64 309.652 329.344C307.621 327.043 306.601 323.902 306.601 319.914V319.187C306.601 316.726 307.054 314.539 307.957 312.621C308.863 310.707 310.16 309.218 311.847 308.156C313.539 307.097 315.539 306.57 317.843 306.57C320.679 306.57 323.035 307.418 324.91 309.117C326.789 310.812 327.789 313.019 327.914 315.73H323.824C323.699 314.094 323.082 312.75 321.968 311.699C320.851 310.648 319.476 310.121 317.843 310.121C315.648 310.121 313.945 310.914 312.738 312.492C311.531 314.074 310.926 316.359 310.926 319.351V320.172C310.926 323.082 311.527 325.328 312.726 326.902C313.926 328.476 315.636 329.261 317.867 329.261Z" fill="#117679"/>
<path d="M180.004 154.144L140.207 114.344C139.707 113.844 139.222 113.34 138.75 112.828C128.449 101.656 124.004 86.562 126.55 71.41C129.168 55.832 138.633 42.621 152.515 35.16L154.148 34.285C166.789 27.492 174.644 14.351 174.644 0C180.894 0 189.386 24.066 159.218 43.726L157.59 44.605C146.648 50.484 139.187 60.902 137.121 73.183C135.129 85.047 138.593 96.844 146.629 105.558C147.004 105.965 147.39 106.367 147.785 106.761L180.004 138.98L217.715 101.273C222.797 96.187 226.41 89.844 228.168 82.918C230.468 73.824 225.66 67.051 220.711 63.297C202.386 49.386 186.484 72.722 183.91 79.496C181.312 86.336 174.644 89.937 174.644 89.937C174.644 75.875 181.515 62.652 193.023 54.566C203.222 47.398 216.48 47.359 226.793 54.468C236.953 61.465 241.57 73.668 238.558 85.551C236.328 94.347 231.746 102.402 225.297 108.851L180.004 154.144Z" fill="#117679"/>
</svg>
