<svg xmlns="http://www.w3.org/2000/svg" width="127" height="51" fill="none"><path fill="#fff" d="M20.589 13.769v9.772c-.33.489-.856 1.039-1.577 1.65-.72.599-1.717 1.124-2.988 1.576-1.26.44-2.885.66-4.877.66-1.626 0-3.123-.28-4.492-.843a10.129 10.129 0 0 1-3.538-2.493c-.99-1.1-1.76-2.433-2.31-3.997C.269 18.517 0 16.733 0 14.74V12.67c0-1.993.232-3.771.697-5.335.476-1.565 1.173-2.891 2.09-3.979A8.76 8.76 0 0 1 6.16.862C7.492.287 9.02 0 10.744 0c2.04 0 3.746.354 5.115 1.063 1.381.697 2.457 1.663 3.227 2.897.782 1.235 1.283 2.64 1.503 4.217h-3.538a7.423 7.423 0 0 0-.954-2.64c-.464-.795-1.13-1.43-1.998-1.907-.868-.489-1.986-.733-3.355-.733-1.235 0-2.304.226-3.209.678A5.905 5.905 0 0 0 5.298 5.52c-.586.843-1.026 1.863-1.32 3.061-.28 1.198-.421 2.549-.421 4.052v2.108c0 1.54.177 2.915.531 4.126.367 1.21.887 2.242 1.559 3.098a6.734 6.734 0 0 0 2.402 1.925c.94.44 1.98.66 3.116.66 1.26 0 2.28-.104 3.062-.312.782-.22 1.393-.476 1.834-.77.44-.305.776-.592 1.008-.861v-5.977H10.89v-2.86h9.699ZM43.415 24.182v2.879H29.279v-2.879h14.136ZM29.995.367V27.06h-3.54V.367h3.54Zm11.55 11.477v2.878H29.279v-2.878h12.266ZM43.23.367v2.896H29.28V.367h13.952ZM68.33.367V27.06h-3.556L51.334 6.47v20.59h-3.538V.367h3.539L64.829 21.01V.367h3.501ZM78.396.367V27.06h-3.539V.367h3.539ZM100.103.367h3.52v18.059c0 2.004-.446 3.673-1.338 5.005a8.355 8.355 0 0 1-3.557 3.006c-1.467.66-3.062.99-4.785.99-1.81 0-3.447-.33-4.914-.99a8.041 8.041 0 0 1-3.465-3.006c-.843-1.332-1.265-3-1.265-5.005V.366h3.502v18.06c0 1.393.257 2.542.77 3.446a4.817 4.817 0 0 0 2.145 2.017c.929.44 2.005.66 3.227.66 1.234 0 2.31-.22 3.227-.66a4.797 4.797 0 0 0 2.163-2.017c.513-.904.77-2.053.77-3.446V.366ZM123.405 20.314c0-.623-.097-1.173-.293-1.65-.183-.489-.513-.929-.99-1.32-.464-.391-1.112-.764-1.943-1.119-.819-.354-1.858-.715-3.117-1.081a28.64 28.64 0 0 1-3.575-1.302c-1.064-.489-1.974-1.045-2.732-1.668-.758-.624-1.338-1.339-1.742-2.145-.403-.807-.605-1.73-.605-2.769 0-1.039.214-1.998.642-2.878a6.742 6.742 0 0 1 1.833-2.292c.807-.66 1.767-1.173 2.879-1.54s2.353-.55 3.722-.55c2.004 0 3.703.385 5.096 1.155 1.406.758 2.475 1.754 3.209 2.988a7.5 7.5 0 0 1 1.1 3.924h-3.52c0-1.002-.214-1.888-.642-2.659-.428-.782-1.076-1.393-1.943-1.833-.868-.452-1.968-.678-3.3-.678-1.259 0-2.298.19-3.117.568-.819.379-1.43.892-1.834 1.54-.391.648-.586 1.387-.586 2.219 0 .562.116 1.075.348 1.54.245.452.617.874 1.118 1.265.514.39 1.162.751 1.944 1.081.794.33 1.742.648 2.842.954 1.515.428 2.823.904 3.923 1.43 1.1.525 2.005 1.118 2.713 1.778.722.648 1.253 1.387 1.596 2.219.354.818.531 1.747.531 2.786 0 1.088-.22 2.072-.66 2.952a6.415 6.415 0 0 1-1.888 2.255c-.819.623-1.803 1.106-2.952 1.448-1.137.33-2.408.495-3.813.495-1.235 0-2.451-.17-3.649-.513a10.882 10.882 0 0 1-3.245-1.54 8.056 8.056 0 0 1-2.328-2.53c-.575-1.014-.862-2.188-.862-3.52h3.52c0 .917.177 1.705.532 2.365a4.695 4.695 0 0 0 1.448 1.613 6.749 6.749 0 0 0 2.109.954 10.31 10.31 0 0 0 2.475.293c1.234 0 2.279-.171 3.135-.513.855-.343 1.503-.831 1.943-1.467.452-.636.678-1.387.678-2.255ZM12.87 38.638v12.203H11.4V38.638h1.47Zm-.35 7.58-.612-.025c.005-.587.093-1.13.262-1.628.17-.503.408-.94.715-1.311a3.186 3.186 0 0 1 2.518-1.168c.424 0 .806.058 1.145.175.339.111.627.291.866.54.243.249.428.572.556.97.127.391.19.87.19 1.437v5.633h-1.477v-5.649c0-.45-.067-.81-.199-1.08a1.22 1.22 0 0 0-.58-.596c-.254-.127-.567-.19-.937-.19-.366 0-.7.076-1.002.23a2.395 2.395 0 0 0-.77.635c-.212.27-.379.58-.5.93-.117.344-.175.71-.175 1.096ZM25.392 51c-.598 0-1.14-.1-1.628-.302a3.691 3.691 0 0 1-1.247-.866 3.85 3.85 0 0 1-.795-1.319 4.836 4.836 0 0 1-.278-1.668v-.334c0-.699.103-1.321.31-1.867.206-.55.487-1.017.842-1.398s.757-.67 1.208-.866c.45-.196.916-.294 1.398-.294.614 0 1.144.106 1.589.318.45.212.818.508 1.104.89.286.376.498.82.636 1.334.137.509.206 1.065.206 1.669v.66h-6.42v-1.2h4.95v-.112a3.664 3.664 0 0 0-.238-1.112 2 2 0 0 0-.635-.89c-.292-.233-.689-.35-1.192-.35a2 2 0 0 0-1.645.835 3.122 3.122 0 0 0-.468 1.009 5.115 5.115 0 0 0-.167 1.374v.334c0 .408.055.792.167 1.152.116.355.283.667.5.937.223.27.49.482.803.636.317.154.678.23 1.08.23.519 0 .959-.106 1.319-.317.36-.212.675-.496.945-.85l.89.707a4.11 4.11 0 0 1-.707.802c-.286.254-.638.46-1.057.62-.413.159-.903.238-1.47.238ZM36.986 49.371v-4.425c0-.339-.069-.633-.206-.882a1.352 1.352 0 0 0-.604-.588c-.27-.137-.604-.206-1.001-.206-.37 0-.697.063-.977.19a1.701 1.701 0 0 0-.652.501c-.153.207-.23.429-.23.667h-1.47c0-.307.08-.611.238-.913.16-.302.387-.575.684-.819a3.416 3.416 0 0 1 1.08-.587 4.26 4.26 0 0 1 1.414-.223c.625 0 1.176.106 1.653.318.482.212.858.532 1.128.961.275.424.413.956.413 1.597v4.004c0 .286.024.59.072.914.053.323.13.6.23.834v.127h-1.533a2.75 2.75 0 0 1-.175-.675 5.455 5.455 0 0 1-.064-.795Zm.255-3.742.016 1.033H35.77c-.419 0-.792.035-1.12.104a2.56 2.56 0 0 0-.827.293c-.222.133-.392.3-.508.5a1.328 1.328 0 0 0-.175.692c0 .27.061.517.183.739.122.222.304.4.548.532.249.127.553.191.914.191.45 0 .847-.095 1.191-.286.345-.19.617-.424.819-.7.206-.275.318-.542.333-.802l.628.708c-.037.222-.138.468-.302.738a3.558 3.558 0 0 1-1.629 1.39c-.37.16-.789.239-1.255.239-.582 0-1.093-.114-1.533-.342a2.622 2.622 0 0 1-1.017-.913 2.418 2.418 0 0 1-.358-1.295c0-.461.09-.866.27-1.216.18-.355.44-.649.78-.882a3.698 3.698 0 0 1 1.223-.54 6.455 6.455 0 0 1 1.596-.183h1.709ZM43.83 38.638v12.203h-1.478V38.638h1.477ZM51.252 42.245v1.128h-4.648v-1.128h4.648Zm-3.074-2.09h1.47v8.557c0 .291.044.511.134.66.09.148.207.246.35.293.143.048.297.072.46.072.123 0 .25-.01.382-.032a9.75 9.75 0 0 0 .31-.063l.008 1.2c-.117.036-.27.07-.46.102-.186.037-.411.056-.676.056a2.29 2.29 0 0 1-.993-.215c-.302-.142-.543-.38-.723-.714-.175-.34-.262-.795-.262-1.367v-8.548ZM55.91 38.638v12.203h-1.47V38.638h1.47Zm-.35 7.58-.611-.025a5.17 5.17 0 0 1 .262-1.628c.17-.503.408-.94.715-1.311a3.186 3.186 0 0 1 2.519-1.168c.423 0 .805.058 1.144.175.339.111.627.291.866.54.243.249.429.572.556.97.127.391.19.87.19 1.437v5.633h-1.477v-5.649c0-.45-.066-.81-.199-1.08a1.22 1.22 0 0 0-.58-.596c-.254-.127-.567-.19-.937-.19-.366 0-.7.076-1.001.23a2.396 2.396 0 0 0-.771.635c-.212.27-.379.58-.5.93-.117.344-.175.71-.175 1.096ZM73.807 49.792c.35 0 .672-.071.97-.214.296-.143.54-.34.73-.588.19-.254.3-.543.326-.866h1.398a2.621 2.621 0 0 1-.516 1.422 3.527 3.527 0 0 1-1.232 1.057 3.574 3.574 0 0 1-1.676.397c-.646 0-1.21-.114-1.692-.342a3.355 3.355 0 0 1-1.192-.937 4.188 4.188 0 0 1-.707-1.367 5.766 5.766 0 0 1-.23-1.644v-.334c0-.577.076-1.123.23-1.636.159-.52.394-.978.707-1.375.318-.397.715-.71 1.192-.937.482-.228 1.046-.342 1.692-.342.672 0 1.26.138 1.763.413.504.27.898.641 1.184 1.112.292.467.45.996.477 1.59h-1.398a2.117 2.117 0 0 0-.302-.962 1.883 1.883 0 0 0-.7-.683 1.954 1.954 0 0 0-1.024-.262c-.45 0-.83.09-1.136.27a1.99 1.99 0 0 0-.723.715 3.339 3.339 0 0 0-.382.993c-.074.36-.11.728-.11 1.104v.334c0 .376.036.747.11 1.112.075.366.199.697.374.993.18.297.42.535.723.715.307.175.688.262 1.144.262ZM81.945 38.638v12.203h-1.478V38.638h1.478ZM87.365 42.245v8.596h-1.477v-8.596h1.477Zm-1.588-2.28c0-.239.071-.44.214-.604.148-.164.366-.246.652-.246.28 0 .495.082.643.246a.85.85 0 0 1 .23.604.83.83 0 0 1-.23.588c-.148.159-.363.238-.643.238-.286 0-.504-.08-.652-.238a.865.865 0 0 1-.214-.588ZM92.66 44.08v6.761h-1.47v-8.596h1.39l.08 1.835Zm-.35 2.137-.612-.023a5.17 5.17 0 0 1 .262-1.63c.17-.502.408-.94.715-1.31a3.187 3.187 0 0 1 2.519-1.168c.423 0 .805.058 1.144.175.339.111.627.291.866.54.243.249.429.572.556.97.127.391.19.87.19 1.437v5.633h-1.477v-5.649c0-.45-.067-.81-.199-1.08a1.221 1.221 0 0 0-.58-.596c-.254-.127-.567-.19-.937-.19-.366 0-.7.076-1.001.23a2.394 2.394 0 0 0-.771.635c-.212.27-.379.58-.5.93-.117.344-.175.71-.175 1.096ZM103.244 42.245v8.596h-1.478v-8.596h1.478Zm-1.589-2.28c0-.239.072-.44.215-.604.148-.164.365-.246.651-.246.281 0 .495.082.644.246.153.164.23.366.23.604a.833.833 0 0 1-.23.588c-.149.159-.363.238-.644.238-.286 0-.503-.08-.651-.238a.866.866 0 0 1-.215-.588ZM110.508 49.792c.35 0 .673-.071.969-.214.297-.143.541-.34.731-.588.191-.254.3-.543.326-.866h1.398a2.615 2.615 0 0 1-.516 1.422 3.528 3.528 0 0 1-1.232 1.057 3.572 3.572 0 0 1-1.676.397c-.646 0-1.21-.114-1.692-.342a3.355 3.355 0 0 1-1.192-.937 4.199 4.199 0 0 1-.707-1.367 5.787 5.787 0 0 1-.23-1.644v-.334c0-.577.077-1.123.23-1.636.159-.52.395-.978.707-1.375.318-.397.715-.71 1.192-.937.482-.228 1.046-.342 1.692-.342.673 0 1.261.138 1.764.413.503.27.898.641 1.184 1.112.291.467.45.996.476 1.59h-1.398a2.109 2.109 0 0 0-.302-.962 1.876 1.876 0 0 0-.699-.683 1.953 1.953 0 0 0-1.025-.262c-.45 0-.829.09-1.136.27a1.99 1.99 0 0 0-.723.715 3.32 3.32 0 0 0-.381.993c-.074.36-.112.728-.112 1.104v.334c0 .376.038.747.112 1.112.074.366.198.697.373.993.18.297.421.535.723.715.307.175.689.262 1.144.262Z"/></svg>