<svg width="77" height="70" viewBox="0 0 77 70" fill="none" xmlns="http://www.w3.org/2000/svg">
<path d="M12.4847 53.3261C11.9357 54.1108 11.1699 54.6975 10.1869 55.086C9.20388 55.4747 8.06024 55.6686 6.75453 55.6686C5.43385 55.6686 4.26134 55.3596 3.23805 54.7419C2.21476 54.1239 1.42269 53.2449 0.86268 52.1044C0.302876 50.9647 0.0147539 49.6434 0 48.1398V46.7299C0 44.2945 0.569709 42.4063 1.70829 41.0662C2.84707 39.7269 4.44744 39.0564 6.50982 39.0564C8.20104 39.0564 9.56197 39.4878 10.5935 40.3506C11.6244 41.2124 12.255 42.4359 12.4847 44.02H10.3481C9.9481 41.8731 8.6719 40.7999 6.52057 40.7999C5.08882 40.7999 4.00377 41.302 3.26608 42.3062C2.52755 43.3101 2.15533 44.7644 2.14795 46.6683V47.9903C2.14795 49.8062 2.56296 51.2489 3.3936 52.3196C4.22445 53.3902 5.34912 53.9259 6.76591 53.9259C7.56704 53.9259 8.26764 53.8372 8.86875 53.6597C9.46966 53.4821 9.96623 53.1832 10.3597 52.7625V49.139H6.60952V47.3963H12.4847V53.3261Z" fill="white"/>
<path d="M25.2034 47.9739H18.182V53.7032H26.3379V55.4468H16.0456V39.2783H26.2275V41.0218H18.182V46.2304H25.2034V47.9739Z" fill="white"/>
<path d="M41.4491 55.4468H39.3011L31.1452 42.9873V55.4468H28.9973V39.2783H31.1452L39.3233 51.7937V39.2783H41.4491V55.4468Z" fill="white"/>
<path d="M45.3993 39.2783H47.535V55.4468H45.3993V39.2783Z" fill="white"/>
<path d="M62.8464 39.2783V50.2721C62.8388 51.7971 62.358 53.0442 61.4056 54.0148C60.452 54.9842 59.1594 55.5282 57.5276 55.6466L56.9596 55.6687C55.187 55.6687 53.7742 55.1912 52.7204 54.2365C51.6672 53.2817 51.1329 51.9671 51.1181 50.2942V39.2783H53.2323V50.2277C53.2323 51.3977 53.555 52.3066 54.2006 52.954C54.846 53.6023 55.7658 53.926 56.9596 53.926C58.169 53.926 59.0945 53.6031 59.7367 52.9597C60.3781 52.3156 60.6982 51.4084 60.6982 50.2393V39.2783H62.8464Z" fill="white"/>
<path d="M70.9914 48.2402C69.1587 47.7143 67.8256 47.0683 66.991 46.3027C66.157 45.536 65.7394 44.5903 65.7394 43.4645C65.7394 42.1919 66.2491 41.1385 67.2692 40.3054C68.2893 39.473 69.6157 39.0564 71.2475 39.0564C72.3597 39.0564 73.3518 39.2709 74.2237 39.7006C75.0949 40.1295 75.77 40.7219 76.249 41.477C76.7275 42.2321 76.9663 43.0579 76.9663 43.9536H74.819C74.819 42.9734 74.5079 42.2018 73.8846 41.6413C73.2614 41.0803 72.382 40.7999 71.2475 40.7999C70.1936 40.7999 69.3718 41.0317 68.7825 41.4951C68.193 41.9585 67.8981 42.6019 67.8981 43.4252C67.8981 44.085 68.178 44.6437 68.7381 45.0997C69.2979 45.5558 70.2512 45.9722 71.5974 46.3511C72.9444 46.729 73.9974 47.1464 74.758 47.6016C75.5181 48.0567 76.0819 48.5876 76.4493 49.1949C76.8164 49.802 77 50.5169 77 51.3385C77 52.6483 76.4878 53.6975 75.4645 54.4863C74.441 55.2743 73.0719 55.6686 71.3585 55.6686C70.2455 55.6686 69.2072 55.4558 68.2432 55.0303C67.2783 54.6045 66.5349 54.0221 66.012 53.2817C65.4893 52.5415 65.2273 51.7009 65.2273 50.7609H67.3746C67.3746 51.7377 67.7369 52.5093 68.4596 53.0764C69.1834 53.6424 70.1492 53.9259 71.3585 53.9259C72.4857 53.9259 73.3501 53.6958 73.9512 53.2373C74.5523 52.7781 74.8527 52.1528 74.8527 51.36C74.8527 50.5687 74.5745 49.9557 74.0178 49.5226C73.4614 49.0897 72.4529 48.6623 70.9914 48.2402Z" fill="white"/>
<path d="M7.71269 65.2269C8.11695 64.7324 8.6424 64.485 9.28862 64.485C10.415 64.485 10.983 65.1186 10.9929 66.3871V69.9013H10.0824V66.3823C10.079 65.9984 9.9909 65.7151 9.81891 65.5319C9.64587 65.3487 9.37756 65.2565 9.01272 65.2565C8.71806 65.2565 8.45797 65.3354 8.23477 65.4923C8.01156 65.6501 7.83789 65.8564 7.71269 66.1118V69.9013H6.80133V62.3513H7.71269V65.2269Z" fill="white"/>
<path d="M15.2627 65.2319C14.8947 65.2319 14.5867 65.3659 14.3363 65.6329C14.0878 65.9 13.9329 66.2738 13.8737 66.7552H16.5437V66.6871C16.5165 66.2254 16.3922 65.867 16.1692 65.6131C15.946 65.3592 15.6437 65.2319 15.2627 65.2319ZM15.3763 70C14.6533 70 14.0655 69.7634 13.6128 69.2901C13.1598 68.816 12.9335 68.1833 12.9335 67.3896V67.2228C12.9335 66.6953 13.034 66.2245 13.2357 65.8095C13.4382 65.3945 13.7205 65.07 14.0828 64.8359C14.4459 64.6017 14.8394 64.485 15.2627 64.485C15.9559 64.485 16.4944 64.7126 16.8788 65.1678C17.2624 65.6238 17.4551 66.2754 17.4551 67.1242V67.503H13.844C13.8573 68.0272 14.0111 68.4512 14.3051 68.7733C14.599 69.0962 14.972 69.2579 15.4256 69.2579C15.7468 69.2579 16.0193 69.1923 16.2432 69.0617C16.4664 68.9302 16.6613 68.756 16.8293 68.5398L17.386 68.9729C16.9389 69.6574 16.2695 70 15.3763 70Z" fill="white"/>
<path d="M21.0942 69.2087C21.3798 69.2087 21.6506 69.1349 21.9067 68.9876C22.1628 68.8397 22.3481 68.6483 22.4634 68.4125V67.3213H21.7486C20.6322 67.3213 20.0741 67.6475 20.0741 68.2992C20.0741 68.5842 20.1696 68.8069 20.3597 68.9681C20.5508 69.1281 20.7953 69.2087 21.0942 69.2087ZM22.6058 69.9013C22.5531 69.797 22.5101 69.6096 22.4781 69.341C22.054 69.7806 21.5486 70 20.9608 70C20.4355 70 20.0041 69.8521 19.6681 69.5555C19.3313 69.2587 19.1636 68.8824 19.1636 68.4273C19.1636 67.8734 19.3743 67.4431 19.7959 67.1366C20.2182 66.8299 20.8109 66.6772 21.5766 66.6772H22.4634V66.259C22.4634 65.9418 22.3679 65.688 22.1776 65.4997C21.9866 65.3117 21.7059 65.2172 21.3353 65.2172C21.0101 65.2172 20.7376 65.2992 20.5177 65.4627C20.2979 65.6272 20.1877 65.8251 20.1877 66.0577H19.2713C19.2713 65.7923 19.3661 65.5359 19.5545 65.2885C19.7432 65.0414 19.999 64.8449 20.3228 64.701C20.6463 64.5574 21.0019 64.485 21.3889 64.485C22.003 64.485 22.4846 64.6379 22.8322 64.9444C23.1804 65.2509 23.3608 65.6724 23.3747 66.2105V68.6582C23.3747 69.1462 23.4365 69.5349 23.5617 69.8233V69.9013H22.6058Z" fill="white"/>
<path d="M25.6883 62.3513H26.5997V69.9016H25.6883V62.3513Z" fill="white"/>
<path d="M30.1012 63.2953V64.5828H31.0959V65.2862H30.1012V68.5884C30.1012 68.8021 30.1457 68.9622 30.2338 69.0682C30.3228 69.175 30.4735 69.2285 30.6866 69.2285C30.7919 69.2285 30.9369 69.2087 31.1205 69.1694V69.9022C30.8809 69.9678 30.648 70 30.4216 70C30.014 70 29.7069 69.8767 29.5003 69.6311C29.2927 69.3854 29.1899 69.0362 29.1899 68.5842V65.2862H28.2191V64.5828H29.1899V63.2953H30.1012Z" fill="white"/>
<path d="M33.8778 65.2269C34.2821 64.7324 34.8073 64.485 35.4546 64.485C36.5807 64.485 37.1481 65.1186 37.1587 66.3871V69.9013H36.2473V66.3823C36.2442 65.9984 36.1561 65.7151 35.9839 65.5319C35.8119 65.3487 35.5427 65.2565 35.1787 65.2565C34.8832 65.2565 34.6229 65.3354 34.4008 65.4923C34.1767 65.6501 34.003 65.8564 33.8778 66.1118V69.9013H32.9665V62.3513H33.8778V65.2269Z" fill="white"/>
<path d="M44.7721 69.2579C45.0964 69.2579 45.3803 69.1595 45.6242 68.963C45.867 68.7668 46.0013 68.5202 46.0276 68.226H46.8895C46.873 68.5301 46.7676 68.82 46.5741 69.0953C46.3807 69.3707 46.1222 69.59 45.7987 69.7543C45.4752 69.9186 45.1327 70 44.7721 70C44.0457 70 43.4687 69.7583 43.0406 69.2754C42.6117 68.7914 42.3975 68.1307 42.3975 67.2918V67.1389C42.3975 66.6213 42.493 66.1612 42.6831 65.7578C42.8735 65.3552 43.1468 65.042 43.5032 64.8186C43.8596 64.5959 44.2805 64.485 44.767 64.485C45.3639 64.485 45.8613 64.6634 46.2565 65.0208C46.6523 65.3773 46.8631 65.8415 46.8895 66.4118H46.0276C46.0013 66.0676 45.871 65.7849 45.6364 65.5639C45.401 65.3428 45.1112 65.2319 44.767 65.2319C44.3035 65.2319 43.9454 65.3987 43.6902 65.7307C43.4358 66.0634 43.3089 66.5441 43.3089 67.1734V67.3461C43.3089 67.9582 43.4349 68.4306 43.6877 68.7617C43.9404 69.0928 44.3018 69.2579 44.7721 69.2579Z" fill="white"/>
<path d="M48.7997 62.3513H49.711V69.9016H48.7997V62.3513Z" fill="white"/>
<path d="M52.9664 69.9013H52.055V64.5828H52.9664V69.9013ZM51.981 63.1728C51.981 63.025 52.0263 62.9 52.1167 62.7989C52.2065 62.697 52.3408 62.6461 52.5178 62.6461C52.6955 62.6461 52.8298 62.697 52.9221 62.7989C53.0134 62.9 53.0595 63.025 53.0595 63.1728C53.0595 63.3199 53.0134 63.4423 52.9221 63.5409C52.8298 63.6396 52.6955 63.688 52.5178 63.688C52.3408 63.688 52.2065 63.6396 52.1167 63.5409C52.0263 63.4423 51.981 63.3199 51.981 63.1728Z" fill="white"/>
<path d="M56.0933 64.5828L56.123 65.2517C56.5298 64.7406 57.0616 64.485 57.7185 64.485C58.8449 64.485 59.4129 65.1186 59.4228 66.3871V69.9013H58.5115V66.3823C58.5081 65.9993 58.4202 65.7159 58.248 65.5319C58.076 65.3487 57.8066 65.2565 57.4429 65.2565C57.1472 65.2565 56.8879 65.3354 56.6647 65.4923C56.4409 65.6501 56.2672 65.8564 56.142 66.1118V69.9013H55.2315V64.5828H56.0933Z" fill="white"/>
<path d="M62.5943 69.9013H61.683V64.5828H62.5943V69.9013ZM61.6088 63.1728C61.6088 63.025 61.6541 62.9 61.7447 62.7989C61.8345 62.697 61.9686 62.6461 62.1456 62.6461C62.3235 62.6461 62.4578 62.697 62.5499 62.7989C62.6413 62.9 62.6875 63.025 62.6875 63.1728C62.6875 63.3199 62.6413 63.4423 62.5499 63.5409C62.4578 63.6396 62.3235 63.688 62.1456 63.688C61.9686 63.688 61.8345 63.6396 61.7447 63.5409C61.6541 63.4423 61.6088 63.3199 61.6088 63.1728Z" fill="white"/>
<path d="M66.9967 69.2579C67.3219 69.2579 67.606 69.1595 67.8488 68.963C68.0916 68.7668 68.2259 68.5202 68.2522 68.226H69.1143C69.0978 68.5301 68.9933 68.82 68.7989 69.0953C68.6055 69.3707 68.3468 69.59 68.0233 69.7543C67.6998 69.9186 67.3581 70 66.9967 70C66.2706 70 65.6933 69.7583 65.2652 69.2754C64.8371 68.7914 64.6221 68.1307 64.6221 67.2918V67.1389C64.6221 66.6213 64.7176 66.1612 64.9079 65.7578C65.0989 65.3552 65.3723 65.042 65.7278 64.8186C66.0844 64.5959 66.506 64.485 66.9916 64.485C67.5893 64.485 68.0859 64.6634 68.4811 65.0208C68.8771 65.3773 69.0879 65.8415 69.1143 66.4118H68.2522C68.2259 66.0676 68.0958 65.7849 67.861 65.5639C67.6256 65.3428 67.3358 65.2319 66.9916 65.2319C66.529 65.2319 66.17 65.3987 65.9156 65.7307C65.6612 66.0634 65.5337 66.5441 65.5337 67.1734V67.3461C65.5337 67.9582 65.6604 68.4306 65.9131 68.7617C66.166 69.0928 66.5264 69.2579 66.9967 69.2579Z" fill="white"/>
<path d="M37.9394 32.4232L29.5514 24.0515C29.446 23.9463 29.3438 23.8403 29.2443 23.7326C27.0731 21.3827 26.1363 18.2077 26.6729 15.0206C27.2247 11.7439 29.2196 8.96505 32.1455 7.39567L32.4897 7.21162C35.154 5.78276 36.8096 3.01864 36.8096 0C38.1269 0 39.9168 5.06213 33.5583 9.19748L33.2152 9.38237C30.9089 10.619 29.3364 12.8103 28.9009 15.3936C28.4811 17.8891 29.2112 20.3705 30.9049 22.2034C30.984 22.289 31.0653 22.3736 31.1486 22.4565L37.9394 29.2335L45.8877 21.3021C46.9588 20.2323 47.7203 18.8981 48.0908 17.4413C48.5756 15.5284 47.5622 14.1037 46.5191 13.3141C42.6568 10.388 39.3051 15.2966 38.7626 16.7215C38.215 18.1602 36.8096 18.9177 36.8096 18.9177C36.8096 15.9598 38.2578 13.1784 40.6834 11.4776C42.833 9.96986 45.6274 9.96165 47.801 11.457C49.9425 12.9288 50.9156 15.4956 50.2807 17.9951C49.8107 19.8453 48.845 21.5396 47.4857 22.8961L37.9394 32.4232Z" fill="white"/>
</svg>
