<svg width="20" height="21" viewBox="0 0 20 21" fill="none" xmlns="http://www.w3.org/2000/svg">
<path d="M2 12.5098H18C19.1046 12.5098 20 11.6144 20 10.5098C20 9.40522 19.1046 8.50979 18 8.50979H2C0.89543 8.50979 0 9.40522 0 10.5098C0 11.6144 0.895432 12.5098 2 12.5098Z" fill="#099582"/>
<path d="M8.02452 2.50411L8.00273 18.5041C8.00122 19.6087 8.89543 20.5053 10 20.5068C11.1046 20.5083 12.0012 19.6141 12.0027 18.5095L12.0245 2.50956C12.026 1.40499 11.1318 0.508342 10.0272 0.506838C8.92267 0.505334 8.02602 1.39954 8.02452 2.50411Z" fill="#099582"/>
</svg>
