<svg width="68" height="72" viewBox="0 0 68 72" fill="none" xmlns="http://www.w3.org/2000/svg">
<path d="M5.34446 63.7895C3.88552 63.7895 2.69826 64.977 2.69826 66.4358V69.5357H1.36416C0.886976 69.5357 0.5 69.9225 0.5 70.3999C0.5 70.8771 0.886769 71.264 1.36416 71.264H3.56221H64.4378H66.6358C67.113 71.264 67.5 70.8773 67.5 70.3999C67.5 69.9227 67.1132 69.5357 66.6358 69.5357H65.3019V66.4358C65.3019 64.9768 64.1145 63.7895 62.6549 63.7895H61.0958C61.0908 62.0017 61.0908 59.8601 61.0908 57.2933C61.0908 56.8161 60.7041 56.4291 60.2267 56.4291C59.7493 56.4291 59.3625 56.8159 59.3625 57.2933C59.3625 59.8012 59.3625 61.9034 59.3673 63.6666H47.4664V43.1827H49.3694C49.8465 43.1827 50.2335 42.796 50.2335 42.3186C50.2335 41.8412 49.8467 41.4544 49.3694 41.4544H46.6022H21.3559H18.5888C18.1116 41.4544 17.7246 41.8412 17.7246 42.3186C17.7246 42.796 18.1114 43.1827 18.5888 43.1827H20.4917V63.6666H8.80153L8.7557 29.1392H59.3289C59.3337 34.4036 59.3403 39.0436 59.3465 43.1294L59.3561 49.5596C59.3567 50.0361 59.7435 50.4223 60.2202 50.4223H60.2217C60.6983 50.4216 61.085 50.034 61.0844 49.5569L61.0749 43.1268C61.0691 39.0438 61.0616 34.3993 61.0572 29.1392H62.4324C64.349 29.1392 65.9077 27.5805 65.9077 25.6639V15.8733C65.9077 13.9575 64.349 12.3986 62.4324 12.3986H48.2308C47.0778 5.44073 41.1499 0.407959 34.0718 0.407959C26.9869 0.407959 21.0597 5.4399 19.9121 12.3986H5.7051C3.78847 12.3986 2.22978 13.9573 2.22978 15.8733V25.6639C2.22978 27.5805 3.78847 29.1392 5.7051 29.1392H7.02738L7.07383 63.7893L5.34446 63.7895ZM3.9579 25.6641V15.8735C3.9579 14.9109 4.7416 14.1272 5.70489 14.1272H20.0954C20.8488 14.1272 21.4786 13.5811 21.5933 12.8289C22.5419 6.63318 27.7899 2.13649 34.0713 2.13649C40.3476 2.13649 45.5948 6.6338 46.5494 12.831C46.6661 13.5824 47.2953 14.1272 48.0467 14.1272H62.4322C63.3955 14.1272 64.1792 14.9109 64.1792 15.8735V25.6641C64.1792 26.6274 63.3955 27.4111 62.4322 27.4111C52.0641 27.4111 15.9162 27.4109 5.7051 27.4111C4.7416 27.4113 3.9579 26.6274 3.9579 25.6641ZM63.5736 66.436V69.5359H4.42638V66.436C4.42638 65.9297 4.83824 65.5179 5.34446 65.5179H62.6549C63.1611 65.5179 63.5736 65.9295 63.5736 66.436ZM45.7383 63.6668H34.8447V43.183H45.7383V63.6668ZM22.22 43.183H33.1163V63.6668H22.22V43.183Z" fill="#099582"/>
<path d="M26.8961 18.8007H30.0406V21.9459C30.0406 23.1253 31.0006 24.0853 32.1806 24.0853H35.9571C37.1364 24.0853 38.0964 23.1253 38.0964 21.9459V18.8007H41.2416C42.421 18.8007 43.3809 17.8408 43.3809 16.6608V12.8851C43.3809 11.7051 42.421 10.7452 41.2416 10.7452H38.0964V7.60062C38.0964 6.42061 37.1364 5.46063 35.9571 5.46063H32.1806C31.0006 5.46063 30.0406 6.42061 30.0406 7.60062V10.7452H26.8961C25.7161 10.7452 24.7561 11.7051 24.7561 12.8851V16.6608C24.7561 17.8408 25.7161 18.8007 26.8961 18.8007ZM26.4844 12.8849C26.4844 12.6581 26.6694 12.4731 26.8963 12.4731H30.9048C31.382 12.4731 31.769 12.0863 31.769 11.6089V7.60041C31.769 7.37353 31.9539 7.18855 32.1808 7.18855H35.9573C36.1841 7.18855 36.3683 7.37353 36.3683 7.60041V11.6089C36.3683 12.0861 36.7551 12.4731 37.2325 12.4731H41.2418C41.4687 12.4731 41.6528 12.6581 41.6528 12.8849V16.6605C41.6528 16.8874 41.4685 17.0724 41.2418 17.0724H37.2325C36.7553 17.0724 36.3683 17.4592 36.3683 17.9366V21.9459C36.3683 22.1728 36.1839 22.3569 35.9573 22.3569H32.1808C31.9539 22.3569 31.769 22.1726 31.769 21.9459V17.9366C31.769 17.4594 31.3822 17.0724 30.9048 17.0724H26.8963C26.6694 17.0724 26.4844 16.8874 26.4844 16.6605V12.8849Z" fill="#099582"/>
</svg>
