<svg width="70" height="61" viewBox="0 0 70 61" fill="none" xmlns="http://www.w3.org/2000/svg">
<path d="M64.2177 5.86678C56.4208 -1.93012 43.7346 -1.93012 35.9377 5.86678L35.0376 6.76693L34.1171 5.84647C26.3223 -1.94838 13.639 -1.94941 5.84332 5.84688C-1.94784 13.6454 -1.94784 26.3347 5.84373 34.1336L30.1656 58.4555C31.4647 59.7583 33.1952 60.4759 35.0376 60.4759C36.8804 60.4759 38.6109 59.7583 39.909 58.4563L64.2177 34.1404C66.4533 31.905 68.0831 29.2608 69.0614 26.2811C69.2087 25.8323 68.9646 25.3496 68.5162 25.2023C68.0651 25.0556 67.5846 25.2995 67.4374 25.7476C66.5432 28.4704 65.0534 30.8873 63.009 32.9317L38.6993 57.2482C37.7233 58.2271 36.4229 58.766 35.0376 58.766C33.6527 58.766 32.3521 58.2271 31.3753 57.2472L7.05281 32.9252C-0.0728757 25.7927 -0.0728757 14.1872 7.0524 7.05515C14.1808 -0.0732091 25.7799 -0.0732091 32.9085 7.05515L34.4333 8.57994C34.7672 8.91391 35.308 8.91391 35.6419 8.57994L37.1464 7.07545C44.2772 -0.0543365 55.879 -0.0543373 63.0084 7.07484C66.0525 10.1255 67.9295 14.1599 68.2934 18.435C68.3334 18.9054 68.7435 19.2517 69.2176 19.2143C69.6879 19.1743 70.0369 18.7601 69.9969 18.2902C69.5985 13.6142 67.5465 9.20233 64.2177 5.86678Z" fill="#099582"/>
<path d="M31.9232 45.1366H38.1385C40.0389 45.1366 41.5852 43.5905 41.5852 41.6899V36.7871H46.4878C48.3882 36.7871 49.9341 35.2411 49.9341 33.3407V27.1255C49.9341 25.2251 48.3882 23.6787 46.4878 23.6787H41.585V18.7759C41.585 16.8755 40.0389 15.3296 38.1383 15.3296H31.923C30.0226 15.3296 28.4766 16.8755 28.4766 18.7759V23.6787H23.5738C21.6734 23.6787 20.1271 25.2249 20.1271 27.1255V33.3407C20.1271 35.2411 21.6732 36.7871 23.5738 36.7871H28.4766V41.6899C28.4766 43.5905 30.0226 45.1366 31.9232 45.1366ZM23.574 35.0776C22.616 35.0776 21.8369 34.2983 21.8369 33.3407V27.1255C21.8369 26.1675 22.6163 25.3883 23.574 25.3883H29.3315C29.8035 25.3883 30.1863 25.0058 30.1863 24.5335V18.7761C30.1863 17.8185 30.9656 17.0392 31.9232 17.0392H38.1385C39.0965 17.0392 39.8756 17.8185 39.8756 18.7761V24.5335C39.8756 25.0056 40.2582 25.3883 40.7304 25.3883H46.4878C47.4454 25.3883 48.2247 26.1677 48.2247 27.1255V33.3407C48.2247 34.2983 47.4454 35.0776 46.4878 35.0776H40.7304C40.2584 35.0776 39.8756 35.4602 39.8756 35.9325V41.6899C39.8756 42.6479 39.0963 43.427 38.1385 43.427H31.9232C30.9656 43.427 30.1863 42.6477 30.1863 41.6899V35.9325C30.1863 35.4604 29.8037 35.0776 29.3315 35.0776H23.574Z" fill="#099582"/>
</svg>
