<svg width="60" height="76" viewBox="0 0 60 76" fill="none" xmlns="http://www.w3.org/2000/svg">
<path d="M59.0809 55.483C59.5884 55.483 60 55.0716 60 54.5638V24.8596C60 24.6624 59.9025 24.3788 59.7329 24.2092C57.8333 22.3091 67.5352 32.0139 35.801 0.269326C35.6332 0.101907 35.3429 0 35.1512 0H4.96944C2.22942 0 3.05176e-05 2.22939 3.05176e-05 4.97029V60.7575C3.05176e-05 63.4981 2.22942 65.7278 4.96944 65.7278H9.63446V70.3943C9.63446 73.135 11.8638 75.3646 14.6048 75.3646H55.0291C57.7698 75.3646 60 73.1352 60 70.3943V62.7919C60 62.2843 59.5886 61.8727 59.0809 61.8727C58.5733 61.8727 58.1617 62.2841 58.1617 62.7919V70.3943C58.1617 72.1212 56.7566 73.5263 55.0291 73.5263H14.6048C12.8778 73.5263 11.4728 72.1212 11.4728 70.3943V14.6098C11.4728 12.8829 12.8778 11.4778 14.6048 11.4778H43.8687V24.859C43.8687 25.3665 44.2801 25.7781 44.7878 25.7781H58.1619V54.5638C58.1619 55.0716 58.5733 55.483 59.0809 55.483ZM36.0703 3.13861L42.5677 9.6395H36.0703V3.13861ZM9.63468 14.6098V63.8895H4.96966C3.24275 63.8895 1.83833 62.4844 1.83833 60.7575V4.97029C1.83833 3.24339 3.24275 1.8383 4.96966 1.8383H34.2323V9.63972H14.605C11.8641 9.63972 9.63468 11.8691 9.63468 14.6098ZM45.707 12.7808C60.9212 28 55.7654 22.8427 56.8623 23.9398H45.707V12.7808Z" fill="#099582"/>
<path d="M25.9001 44.4082C25.9001 42.8501 24.632 41.582 23.0738 41.582H18.7527C17.1939 41.582 15.9258 42.8501 15.9258 44.4082V48.6978C15.9258 50.2567 17.1939 51.5248 18.7527 51.5248H23.0738C24.632 51.5248 25.9001 50.2567 25.9001 48.6978V44.4082ZM24.0618 48.6976C24.0618 49.2427 23.6189 49.6863 23.0738 49.6863H18.7527C18.2077 49.6863 17.7641 49.2424 17.7641 48.6976V44.408C17.7641 43.863 18.2079 43.4201 18.7527 43.4201H23.0738C23.6189 43.4201 24.0618 43.863 24.0618 44.408V48.6976Z" fill="#099582"/>
<path d="M23.0738 58.1741H18.7527C17.1939 58.1741 15.9258 59.4422 15.9258 61.0003V65.2899C15.9258 66.8488 17.1939 68.1169 18.7527 68.1169H23.0738C24.632 68.1169 25.9001 66.8488 25.9001 65.2899V61.0003C25.9001 59.4422 24.632 58.1741 23.0738 58.1741ZM24.0618 65.2899C24.0618 65.835 23.6189 66.2786 23.0738 66.2786H18.7527C18.2077 66.2786 17.7641 65.8348 17.7641 65.2899V61.0003C17.7641 60.4553 18.2079 60.0124 18.7527 60.0124H23.0738C23.6189 60.0124 24.0618 60.4553 24.0618 61.0003V65.2899Z" fill="#099582"/>
<path d="M53.965 43.3949H35.327C34.8194 43.3949 34.4078 43.8063 34.4078 44.314C34.4078 44.8216 34.8192 45.2332 35.327 45.2332H53.9648C54.4723 45.2332 54.8839 44.8218 54.8839 44.314C54.8841 43.8065 54.4725 43.3949 53.965 43.3949Z" fill="#099582"/>
<path d="M49.8521 51.5245C50.3596 51.5245 50.7712 51.1131 50.7712 50.6054C50.7712 50.0978 50.3599 49.6862 49.8521 49.6862H39.4399C38.9323 49.6862 38.5208 50.0976 38.5208 50.6054C38.5208 51.1129 38.9321 51.5245 39.4399 51.5245H49.8521Z" fill="#099582"/>
<path d="M54.8841 59.9993C54.8841 59.4918 54.4728 59.0802 53.965 59.0802H35.327C34.8194 59.0802 34.4078 59.4916 34.4078 59.9993C34.4078 60.5069 34.8192 60.9185 35.327 60.9185H53.9648C54.4725 60.9185 54.8841 60.5071 54.8841 59.9993Z" fill="#099582"/>
<path d="M39.4399 65.3718C38.9323 65.3718 38.5208 65.7831 38.5208 66.2909C38.5208 66.7987 38.9321 67.2101 39.4399 67.2101H49.8521C50.3596 67.2101 50.7712 66.7987 50.7712 66.2909C50.7712 65.7831 50.3599 65.3718 49.8521 65.3718H39.4399Z" fill="#099582"/>
<path d="M29.44 33.9063V32.1536H31.192C32.6898 32.1536 33.9082 30.9351 33.9082 29.4374V26.3557C33.9082 24.8579 32.6898 23.6395 31.192 23.6395H29.44V21.8867C29.44 20.389 28.2215 19.1705 26.7238 19.1705H23.6412C22.1435 19.1705 20.925 20.389 20.925 21.8867V23.6395H19.1729C17.6752 23.6395 16.4567 24.8579 16.4567 26.3557V29.4374C16.4567 30.9351 17.6752 32.1536 19.1729 32.1536H20.925V33.9063C20.925 35.404 22.1435 36.6225 23.6412 36.6225H26.7238C28.2215 36.6225 29.44 35.404 29.44 33.9063ZM22.7631 33.9063V31.2344C22.7631 30.7269 22.3517 30.3153 21.8439 30.3153H19.1729C18.689 30.3153 18.2948 29.9211 18.2948 29.4371V26.3554C18.2948 25.8715 18.689 25.4773 19.1729 25.4773H21.8439C22.3515 25.4773 22.7631 25.0659 22.7631 24.5582V21.8863C22.7631 21.4023 23.1572 21.0082 23.6412 21.0082H26.7238C27.2077 21.0082 27.6019 21.4023 27.6019 21.8863V24.5582C27.6019 25.0657 28.0133 25.4773 28.521 25.4773H31.192C31.676 25.4773 32.0702 25.8715 32.0702 26.3554V29.4371C32.0702 29.9211 31.676 30.3153 31.192 30.3153H28.521C28.0135 30.3153 27.6019 30.7266 27.6019 31.2344V33.9063C27.6019 34.3902 27.2077 34.7844 26.7238 34.7844H23.6412C23.1572 34.7844 22.7631 34.3902 22.7631 33.9063Z" fill="#099582"/>
</svg>
