<svg width="68" height="70" viewBox="0 0 68 70" fill="none" xmlns="http://www.w3.org/2000/svg">
<path d="M62.3267 58.6777H59.2778C56.4251 58.6777 54.1039 60.9981 54.1039 63.8509C54.1039 63.9885 54.1139 64.1235 54.1246 64.2584C53.4162 63.9895 52.7695 63.5688 52.2351 62.991C52.2315 62.987 52.2283 62.9833 52.2247 62.9793C49.5833 60.1098 45.0577 60.1054 42.4111 62.9624L42.3946 62.9799C40.4118 65.1345 32.909 65.1453 30.9163 62.9793C28.2687 60.103 23.7309 60.1066 21.0873 62.9793C19.7913 64.3839 18.0575 64.6434 16.4932 63.957C15.249 63.4091 13.9199 62.0975 13.9199 60.0592V40.7222H16.3526V46.7577C16.3526 51.9232 22.7205 54.7863 26.4016 50.8015C28.3892 48.6411 31.798 48.6391 33.7873 50.8021C36.4232 53.6656 40.9613 53.6875 43.6175 50.8007C45.6026 48.6448 49.0025 48.6389 50.994 50.7909C50.9976 50.7949 51.0008 50.7987 51.0044 50.8027C51.9961 51.8802 53.318 52.5835 54.7425 52.8386C55.6232 54.4394 57.3255 55.5272 59.278 55.5272H62.3269C65.1797 55.5272 67.5008 53.2061 67.5008 50.3533C67.5008 47.5006 65.1797 45.1794 62.3269 45.1794H59.278C56.4253 45.1794 54.1041 47.5006 54.1041 50.3533C54.1041 50.5623 54.1202 50.7672 54.1443 50.9698C53.4273 50.7009 52.775 50.2725 52.2353 49.6887C52.2317 49.6847 52.2285 49.6809 52.2249 49.6769C49.5797 46.8033 45.041 46.8029 42.3948 49.6783C40.4056 51.8392 36.9984 51.8404 35.0089 49.6778C32.3676 46.8077 27.8299 46.7987 25.1789 49.6783C22.5166 52.5845 18.0125 50.3743 18.0125 46.7575V40.722H51.0046C53.3986 40.722 55.3465 38.7743 55.3465 36.38V31.1348C55.3465 30.6765 54.9751 30.3048 54.5166 30.3048C54.0583 30.3048 53.6866 30.6763 53.6866 31.1348V36.38C53.6866 37.8589 52.4832 39.0623 51.0044 39.0623C44.4207 39.0623 11.4314 39.0623 4.8426 39.0623C3.36374 39.0623 2.16074 37.8589 2.16074 36.38V5.30971C2.16074 3.83404 3.36374 2.63402 4.8426 2.63402H51.0044C52.4832 2.63402 53.6866 3.83404 53.6866 5.30971V23.7001C53.6866 24.1584 54.0581 24.53 54.5166 24.53C54.9749 24.53 55.3465 24.1586 55.3465 23.7001V5.30971C55.3465 2.91924 53.3986 0.974121 51.0046 0.974121H4.8428C2.44874 0.974121 0.501038 2.91924 0.501038 5.30971V36.3804C0.501038 38.7747 2.44874 40.7224 4.8428 40.7224H12.2602V60.0594C12.2602 62.4324 13.6259 64.5083 15.8246 65.4763C17.9818 66.4252 20.5011 66.0557 22.3094 64.103C24.289 61.9519 27.694 61.9286 29.6951 64.1036C32.3437 66.9824 40.9404 66.9757 43.6002 64.1211C43.6063 64.1154 43.6121 64.1088 43.6181 64.103C45.602 61.9464 49.0031 61.9402 50.9942 64.0932C50.9978 64.0972 51.0014 64.101 51.0046 64.105C51.973 65.1572 53.255 65.8599 54.6411 66.131C55.486 67.8421 57.2445 69.0248 59.2782 69.0248H62.3271C65.1799 69.0248 67.501 66.7036 67.501 63.8509C67.5006 60.9983 65.1795 58.6777 62.3267 58.6777ZM59.278 46.8397H62.3269C64.2645 46.8397 65.8409 48.4158 65.8409 50.3537C65.8409 52.2917 64.2645 53.8677 62.3269 53.8677H59.278C57.3405 53.8677 55.764 52.2917 55.764 50.3537C55.764 48.4158 57.3405 46.8397 59.278 46.8397ZM62.3267 67.3651H59.2778C57.3403 67.3651 55.7638 65.789 55.7638 63.8511C55.7638 61.9137 57.3403 60.3377 59.2778 60.3377H62.3267C64.2643 60.3377 65.8407 61.9137 65.8407 63.8511C65.8409 65.789 64.2645 67.3651 62.3267 67.3651Z" fill="#099582"/>
</svg>
