<svg width="68" height="78" viewBox="0 0 68 78" fill="none" xmlns="http://www.w3.org/2000/svg">
<path d="M3.42671 77.4409C22.6104 77.4708 30.2463 77.4977 64.5706 77.4409C66.1852 77.4409 67.4985 76.1277 67.4985 74.513V60.3483C67.4985 55.56 64.6305 51.2981 60.1918 49.4908L53.1092 46.6049C52.6477 46.4169 52.1211 46.6384 51.9337 47.0999C51.7452 47.5611 51.9671 48.0873 52.4282 48.2754L59.5112 51.1612C63.2676 52.6907 65.6949 56.2968 65.6949 60.3483V74.513C65.6949 75.133 65.1906 75.6373 64.5706 75.6373H41.2792V65.388C41.473 65.2824 41.631 65.1155 41.706 64.8964L45.928 52.5315C46.2286 51.6379 45.972 50.6533 45.2763 50.0252L44.7985 49.5913L45.732 47.76L49.1157 51.9397C49.3747 52.26 49.8184 52.3637 50.1919 52.1922C50.5665 52.0207 50.7772 51.6177 50.7043 51.2127L49.4779 44.4026C49.2535 43.1405 48.4709 42.0744 47.3301 41.4766L42.6867 39.0508C46.0312 36.4463 48.1958 32.3801 48.2215 27.8111C50.0211 27.1009 51.2654 25.3225 51.2654 23.3313V12.1727C51.2654 5.75121 46.0735 0.5271 39.692 0.5271H30.1624C25.9339 0.5271 22.2684 3.26865 21.0337 7.2706C18.6065 7.66524 16.7317 9.81207 16.7317 12.3473V23.3378C16.7317 25.3281 17.9764 27.1067 19.776 27.8171C19.8044 32.5357 22.1138 36.718 25.6482 39.3064L20.7817 41.0475C19.2803 41.5814 18.2417 42.8976 18.0714 44.4814L17.2836 51.7442C17.2379 52.166 17.4926 52.563 17.8954 52.697C18.2975 52.8302 18.739 52.6662 18.9564 52.3006L22.242 46.7514L23.3828 48.2588L21.7259 50.3234C21.1946 50.99 21.0636 51.8954 21.3858 52.6888L26.31 64.6771C26.3904 64.8728 26.539 65.0219 26.7174 65.1191V75.6373H3.42599C2.80625 75.6373 2.30195 75.133 2.30195 74.513V60.4806C2.30195 56.3582 4.78787 52.7282 8.63422 51.2331L15.3138 48.6419C15.7781 48.4615 16.0085 47.9394 15.8284 47.475C15.6478 47.0104 15.125 46.7793 14.6616 46.9604L7.98154 49.5519C3.43561 51.3187 0.498535 55.6088 0.498535 60.4806V74.513C0.499016 76.1274 1.81232 77.4409 3.42671 77.4409ZM28.5218 40.9371C32.0187 42.4109 35.9779 42.4113 39.4757 40.9374V49.7505C35.7116 52.9144 32.1219 52.917 28.5218 49.7621V40.9371ZM47.7026 44.72L48.3067 48.0731L46.738 46.1353C46.4403 45.7654 45.9817 45.5737 45.5098 45.6228C45.0394 45.6711 44.6296 45.9527 44.4142 46.3753L43.0561 49.0377C42.7625 49.5911 42.8801 50.2769 43.349 50.7115L44.0664 51.3623C44.2302 51.5104 44.2901 51.7437 44.2196 51.9524L41.2792 60.564C41.2792 53.5704 41.2792 47.5214 41.2792 40.3761H41.3285L46.4939 43.0748C47.136 43.4105 47.5763 44.0098 47.7026 44.72ZM18.5358 23.3373V12.3468C18.5358 10.5489 19.9826 9.05214 21.7615 9.00981C22.1712 9.00019 22.5231 8.71497 22.6176 8.316C23.4526 4.79166 26.5556 2.33027 30.1629 2.33027H39.6924C45.0793 2.33027 49.4622 6.74538 49.4622 12.1722V23.3308C49.4622 24.3123 48.9755 25.2035 48.224 25.7576V17.7626C48.224 17.2643 47.8199 16.8608 47.3221 16.8608C42.168 16.886 42.6196 16.8131 41.2284 16.9197C36.3153 17.3001 31.8314 14.5706 27.6659 11.7454C27.3934 11.5602 27.0411 11.5383 26.7477 11.6896C26.4541 11.8401 26.2667 12.139 26.2581 12.4687L26.2569 12.5428C26.2088 14.9239 24.1961 16.8608 21.7706 16.8608H20.6759C20.1781 16.8608 19.7741 17.2643 19.7741 17.7626V25.7634C19.0223 25.2093 18.5358 24.3183 18.5358 23.3373ZM21.5777 27.7291C21.5777 25.9949 21.5777 21.3925 21.5777 18.6646H21.7704C24.6603 18.6646 27.1325 16.6919 27.8513 14.0398C31.9447 16.7347 36.3624 19.1028 41.3665 18.7183C42.6252 18.6221 42.1668 18.6868 46.4205 18.6646V27.7291C46.4205 34.6578 40.7936 40.2385 33.9994 40.2385C27.1503 40.2385 21.5777 34.6268 21.5777 27.7291ZM23.0562 52.0068C22.98 51.8194 23.011 51.6049 23.1349 51.4496L24.9837 49.1457C25.3964 48.6469 25.4077 47.9375 25.0143 47.4248L23.3174 45.1825C23.0404 44.8102 22.5988 44.6043 22.1354 44.6248C21.6674 44.6479 21.2442 44.9023 20.9998 45.309L19.5261 47.798L19.865 44.6746C19.9607 43.785 20.5436 43.0462 21.388 42.7456L26.7179 40.8383V60.9219L23.0562 52.0068ZM28.5218 52.0484C32.1912 54.6372 35.8963 54.4797 39.4757 52.0082V75.637H28.5218V52.0484Z" fill="#099582"/>
<path d="M18.6738 68.769C18.9134 69.2066 19.4624 69.3661 19.8979 69.1266L22.5289 67.6848C22.9766 67.4395 23.1303 66.8725 22.8718 66.435L20.4934 62.4117C19.7507 61.0089 18.0046 60.4724 16.6023 61.215L14.6216 62.2633C13.3083 58.3621 13.6193 54.414 15.5502 50.5153C15.7712 50.0691 15.5886 49.528 15.142 49.307C14.6967 49.0865 14.1551 49.2686 13.9338 49.7151C11.7355 54.1538 11.4301 58.6584 13.0125 63.1149L11.017 64.1708C9.65124 64.8935 9.04594 66.6034 9.84002 68.0978L12.2386 72.1581C12.4969 72.5949 13.0638 72.7319 13.4928 72.4643L16.0451 70.8711C16.4676 70.6075 16.596 70.0512 16.3325 69.6285C16.0686 69.2064 15.5131 69.0773 15.0899 69.3411L13.3213 70.4449L11.413 67.2166C11.1379 66.6969 11.3308 66.0454 11.8604 65.765L17.4457 62.8094C17.9702 62.5317 18.6219 62.7322 18.9203 63.2928L20.845 66.5507L19.0312 67.5446C18.5945 67.7842 18.4343 68.3322 18.6738 68.769Z" fill="#099582"/>
<path d="M53.6891 62.5935C51.0564 62.5935 48.9144 64.7341 48.9144 67.3655C48.9144 69.9969 51.0562 72.1375 53.6891 72.1375C56.3212 72.1375 58.463 69.9969 58.463 67.3655C58.463 65.702 57.6056 64.2367 56.3111 63.3823C56.7449 58.9939 55.8669 54.669 53.6939 50.5266C53.463 50.0853 52.9166 49.916 52.4768 50.1471C52.0352 50.3784 51.8654 50.9234 52.0968 51.3644C54.0152 55.0217 54.8302 58.8246 54.5507 62.6757C54.2708 62.6243 53.9837 62.5935 53.6891 62.5935ZM53.6891 70.3336C52.0509 70.3336 50.7181 69.002 50.7181 67.3652C50.7181 65.7285 52.0509 64.3969 53.6891 64.3969C55.3273 64.3969 56.6593 65.7285 56.6593 67.3652C56.6593 69.002 55.327 70.3336 53.6891 70.3336Z" fill="#099582"/>
</svg>
