<svg width="68" height="78" viewBox="0 0 68 78" fill="none" xmlns="http://www.w3.org/2000/svg">
<path d="M6.27654 52.8292L1.68666 57.4189C0.25253 58.8525 0.251366 61.1756 1.68666 62.6102L15.0606 75.9841C16.4949 77.4185 18.8176 77.4192 20.2519 75.9841L24.842 71.3945C26.2727 69.9629 26.2727 67.6347 24.8418 66.2031L11.4677 52.8292C10.0333 51.3948 7.7109 51.3941 6.27654 52.8292ZM23.6074 70.1601L19.0173 74.7497C18.2901 75.4776 17.0222 75.4767 16.2952 74.7497L2.92107 61.3758C2.1706 60.6251 2.1706 59.4037 2.92107 58.653L7.51118 54.0634C8.26234 53.3115 9.48093 53.3108 10.233 54.0634L23.6072 67.4373C24.3579 68.1882 24.3579 69.4094 23.6074 70.1601Z" fill="#099582"/>
<path d="M12.8636 51.7386C13.1457 52.1285 13.6914 52.2177 14.0824 51.9346C17.9891 49.1125 21.8862 47.9214 25.6709 48.3981C26.9396 48.5587 26.478 48.4884 45.7118 48.859C47.2683 48.859 48.5858 50.0734 48.7102 51.6004C48.8082 53.4116 47.5577 54.6823 46.0623 54.859L30.7864 56.6747C30.3078 56.7315 29.9659 57.1656 30.0227 57.6442C30.0755 58.0881 30.4526 58.4142 30.8884 58.4142C30.9228 58.4142 30.9575 58.4126 30.9927 58.4079L46.2676 56.5923C48.6233 56.3143 50.608 54.2989 50.4516 51.4826C50.4108 50.9814 50.2879 50.5042 50.1026 50.0592L61.3797 40.1022C62.4458 39.1587 64.0703 39.2095 65.0783 40.2169C66.1111 41.2498 66.1022 42.8862 65.1916 43.9109C53.1545 57.5711 53.1438 57.5869 53.1173 57.6279C50.4173 61.3521 46.0044 63.5758 41.3123 63.5758H28.5213C27.9054 63.5758 27.302 63.6787 26.7287 63.8814C26.2743 64.0422 26.0362 64.5411 26.197 64.9952C26.3236 65.3539 26.6605 65.5772 27.0199 65.5772C27.1165 65.5772 27.2147 65.5613 27.3111 65.5271C27.697 65.3907 28.1041 65.3213 28.5213 65.3213H41.3123C46.5365 65.3213 51.4555 62.8521 54.5039 58.6875C54.9073 58.2238 62.4905 49.6162 66.4991 45.0671C68.0208 43.3552 68.0003 40.6688 66.3127 38.9823C64.6539 37.324 61.9791 37.2404 60.2237 38.7942L49.1357 48.5845C48.266 47.6788 47.0516 47.1125 45.7281 47.1125C26.5513 46.744 27.0308 46.8089 25.8895 46.6653C21.6551 46.1327 17.3371 47.429 13.0601 50.5189C12.6692 50.8022 12.5813 51.3476 12.8636 51.7386Z" fill="#099582"/>
<path d="M38.5395 38.2086C39.381 38.2086 40.2227 37.8932 40.8668 37.2623C52.1659 24.7669 60.497 21.894 59.6499 12.4003C59.3177 8.6784 57.3385 5.30059 54.219 3.13252C49.4965 -0.150084 43.1128 0.319425 38.6954 4.20841C33.5474 -0.473409 25.6332 -0.0704752 20.9528 5.06363C16.423 10.0322 16.7051 17.7555 21.5955 22.6457L36.1887 37.2391C36.8344 37.8853 37.6863 38.2086 38.5395 38.2086ZM22.2426 6.24008C26.4482 1.62623 33.5611 1.52264 37.9056 5.86717L38.0695 6.03081C38.4098 6.3702 39.0008 6.33202 39.3419 5.9917C43.1284 2.2063 48.9655 1.60621 53.2225 4.56595C55.916 6.4384 57.6245 9.35043 57.9106 12.5557C58.6515 20.8628 51.3675 23.2166 39.6447 36.0158C39.0292 36.6187 38.0327 36.6143 37.4228 36.0051L22.8294 21.4117C18.6004 17.1819 18.3427 10.5183 22.2426 6.24008Z" fill="#099582"/>
<path d="M41.7918 25.9804V21.9119H45.8603C46.6666 21.9119 47.4564 21.5851 48.0274 21.0151C48.5973 20.4445 48.9238 19.6552 48.9238 18.8481C48.9238 17.1587 47.5493 15.7844 45.8601 15.7844H41.7916V11.7159C41.7916 10.9089 41.4648 10.1195 40.8945 9.54829C40.3239 8.97892 39.5346 8.6521 38.728 8.6521C37.0388 8.6521 35.6642 10.0262 35.6642 11.7159V15.7844H31.5958C30.789 15.7844 29.9994 16.1112 29.4291 16.6812C28.859 17.2513 28.5322 18.0406 28.5322 18.8481C28.5322 20.5376 29.9063 21.9119 31.5956 21.9119H35.664V25.9804C35.664 26.7879 35.9911 27.5772 36.5609 28.1468C37.1307 28.7169 37.9205 29.0437 38.7278 29.0437C40.4178 29.0435 41.7918 27.6694 41.7918 25.9804ZM37.4105 25.9804V21.039C37.4105 20.5572 37.0199 20.1661 36.5376 20.1661H31.5963C30.8698 20.1661 30.2787 19.5751 30.2787 18.8481C30.2787 18.5004 30.4191 18.1605 30.6638 17.9161C30.9089 17.6705 31.2492 17.5302 31.5963 17.5302H36.5376C37.0199 17.5302 37.4105 17.1391 37.4105 16.6573V11.7159C37.4105 10.9889 38.0018 10.3979 38.7285 10.3979C39.0758 10.3979 39.4157 10.5383 39.6605 10.7832C39.9054 11.028 40.046 11.3679 40.046 11.7157V16.657C40.046 17.1389 40.4366 17.5299 40.9189 17.5299H45.8603C46.5868 17.5299 47.1783 18.121 47.1783 18.8479C47.1783 19.1957 47.0377 19.5355 46.7933 19.7799C46.5477 20.0255 46.2076 20.1659 45.8603 20.1659H40.9189C40.4366 20.1659 40.046 20.557 40.046 21.0388V25.9802C40.046 26.7064 39.455 27.2974 38.7285 27.2974C38.3807 27.2974 38.0409 27.1571 37.7955 26.9115C37.5509 26.6675 37.4105 26.3282 37.4105 25.9804Z" fill="#099582"/>
</svg>
