<svg width="68" height="70" viewBox="0 0 68 70" fill="none" xmlns="http://www.w3.org/2000/svg">
<path d="M14.9048 68.2112C16.3096 69.6166 18.5843 69.6168 19.9895 68.2112L24.5909 63.6101C25.9925 62.2085 25.9925 59.9268 24.5909 58.5252L11.1829 45.1172C9.78051 43.7156 7.50005 43.7156 6.09847 45.1172L1.49686 49.7188C0.0952839 51.1204 0.0952839 53.4015 1.49686 54.8033L14.9048 68.2112ZM2.61454 50.8365L7.21615 46.2349C8.00061 45.4504 9.27953 45.4496 10.0653 46.2349L23.4732 59.6429C24.2585 60.4286 24.2585 61.7067 23.4732 62.4926L18.8718 67.0938C18.0859 67.8785 16.808 67.8791 16.0225 67.0938L2.61454 53.6858C1.82945 52.8999 1.82945 51.6222 2.61454 50.8365Z" fill="#099582"/>
<path d="M49.0051 40.9236C48.1456 39.9931 46.9224 39.4097 45.5878 39.4097C27.2901 39.0611 27.018 39.1235 25.6909 38.9625C21.371 38.4258 16.9673 39.7899 12.6033 43.0213C12.2524 43.2806 12.1788 43.7757 12.4385 44.1266C12.6985 44.4775 13.1938 44.5511 13.5439 44.2912C17.5706 41.3093 21.5911 40.0435 25.498 40.5314C26.9095 40.7029 26.9103 40.6338 45.5735 40.9904C47.1768 40.9904 48.5343 42.2449 48.665 43.8617C48.8199 45.4013 47.6567 46.9704 45.9385 47.1765L30.621 48.9997C30.1875 49.0511 29.8781 49.4442 29.9297 49.8779C29.9774 50.2792 30.3188 50.5747 30.7134 50.5747C30.7446 50.5747 30.7762 50.5732 30.8078 50.569L46.1257 48.7459C48.7311 48.4335 50.4756 46.054 50.2392 43.7192C50.1976 43.2058 50.0682 42.7185 49.8737 42.2653L61.2246 32.2347C62.3258 31.2605 64.005 31.3115 65.0472 32.3546C66.1101 33.4179 66.1229 35.0901 65.1661 36.1736C53.1089 49.8573 53.0923 49.8811 53.0636 49.9211C50.3435 53.6727 45.8945 55.9127 41.1628 55.9127H28.3378C27.5863 55.9127 26.8577 56.064 26.1727 56.3629C25.7726 56.5374 25.5897 57.003 25.7642 57.4034C25.9389 57.8043 26.4054 57.9858 26.8047 57.8119C27.2895 57.6005 27.8052 57.4934 28.3381 57.4934H41.163C46.3851 57.4934 51.2991 55.0235 54.3231 50.8771C54.7556 50.381 62.3353 41.7772 66.3514 37.2192C67.8521 35.5215 67.8274 32.8998 66.1651 31.2369C64.534 29.6052 61.9032 29.523 60.1775 31.0506L49.0051 40.9236Z" fill="#099582"/>
<path d="M35.8151 0.239258C26.3497 0.239258 18.6495 7.93972 18.6495 17.4049C18.6495 26.8701 26.3499 34.5712 35.8151 34.5712C45.2803 34.5712 52.9812 26.8703 52.9812 17.4049C52.9812 7.93951 45.2805 0.239258 35.8151 0.239258ZM35.8151 32.9905C27.2214 32.9905 20.2302 25.9986 20.2302 17.4049C20.2302 8.81123 27.2214 1.81999 35.8151 1.81999C44.4088 1.81999 51.4005 8.81123 51.4005 17.4049C51.4005 25.9986 44.4088 32.9905 35.8151 32.9905Z" fill="#099582"/>
<path d="M35.8151 4.28674C28.5819 4.28674 22.6972 10.1717 22.6972 17.4049C22.6972 24.6381 28.5819 30.523 35.8151 30.523C43.0485 30.523 48.9333 24.6381 48.9333 17.4049C48.9333 10.1717 43.0485 4.28674 35.8151 4.28674ZM35.8151 28.9425C29.4534 28.9425 24.2779 23.767 24.2779 17.4051C24.2779 11.0432 29.4534 5.86768 35.8151 5.86768C42.1768 5.86768 47.3525 11.0432 47.3525 17.4051C47.3525 23.767 42.1768 28.9425 35.8151 28.9425Z" fill="#099582"/>
<path d="M38.5883 14.6321V11.0162C38.5883 9.49853 37.36 8.2428 35.8153 8.2428C34.286 8.2428 33.0421 9.48694 33.0421 11.0162V14.6321H29.4262C27.906 14.6321 26.653 15.8628 26.653 17.4051C26.653 18.9344 27.8969 20.1786 29.4262 20.1786H33.0421V23.7944C33.0421 25.3223 34.2808 26.5674 35.8153 26.5674C37.3444 26.5674 38.5883 25.3237 38.5883 23.7944V20.1786H42.2042C43.7209 20.1786 44.9774 18.95 44.9774 17.4051C44.9774 15.8758 43.7335 14.6321 42.2042 14.6321H38.5883ZM43.3967 17.4049C43.3967 18.0686 42.8574 18.5976 42.2042 18.5976H37.798C37.3613 18.5976 37.0076 18.9517 37.0076 19.388V23.7942C37.0076 24.4518 36.4727 24.9865 35.8153 24.9865C35.1565 24.9865 34.6228 24.4531 34.6228 23.7942V19.388C34.6228 18.9517 34.2692 18.5976 33.8325 18.5976H29.4262C28.7686 18.5976 28.2337 18.0625 28.2337 17.4049C28.2337 16.7433 28.7708 16.2126 29.4262 16.2126H33.8325C34.2692 16.2126 34.6228 15.8585 34.6228 15.4223V11.016C34.6228 10.3584 35.1577 9.82331 35.8153 9.82331C36.4763 9.82331 37.0076 10.3603 37.0076 11.016V15.4223C37.0076 15.8585 37.3613 16.2126 37.798 16.2126H42.2042C42.8618 16.2128 43.3967 16.7473 43.3967 17.4049Z" fill="#099582"/>
</svg>
